<?xml version="1.0" encoding="UTF-8" standalone="no"?>
<!-- Created with Inkscape (http://www.inkscape.org/) -->

<svg
     xmlns:dc="http://purl.org/dc/elements/1.1/"
     xmlns:cc="http://creativecommons.org/ns#"
     xmlns:rdf="http://www.w3.org/1999/02/22-rdf-syntax-ns#"
     xmlns:svg="http://www.w3.org/2000/svg"
     xmlns="http://www.w3.org/2000/svg"
     xmlns:sodipodi="http://sodipodi.sourceforge.net/DTD/sodipodi-0.dtd"
     xmlns:inkscape="http://www.inkscape.org/namespaces/inkscape"
     width="971.87372"
     height="762.39581"
     id="svg5578"
     version="1.1"
     inkscape:version="0.48.3.1 r9886"
     sodipodi:docname="donkey-pegasus2.svg">
    <defs
         id="defs5580" />
    <sodipodi:namedview
         id="base"
         pagecolor="#ffffff"
         bordercolor="#666666"
         borderopacity="1.0"
         inkscape:pageopacity="0.0"
         inkscape:pageshadow="2"
         inkscape:zoom="0.8"
         inkscape:cx="880.49657"
         inkscape:cy="394.70098"
         inkscape:document-units="px"
         inkscape:current-layer="layer1"
         showgrid="false"
         fit-margin-top="0"
         fit-margin-left="0"
         fit-margin-right="0"
         fit-margin-bottom="0"
         inkscape:window-width="1920"
         inkscape:window-height="1124"
         inkscape:window-x="0"
         inkscape:window-y="24"
         inkscape:window-maximized="1"
         inkscape:snap-bbox="true" />
    <metadata
         id="metadata5583">
        <rdf:RDF>
            <cc:Work
                 rdf:about="">
                <dc:format>image/svg+xml</dc:format>
                <dc:type
                     rdf:resource="http://purl.org/dc/dcmitype/StillImage" />
                <dc:title></dc:title>
            </cc:Work>
        </rdf:RDF>
    </metadata>
    <g
         inkscape:label="Layer 1"
         inkscape:groupmode="layer"
         id="layer1"
         transform="translate(82.971559,-42.235722)">
        <g
             id="g5598">
            <path
                 inkscape:connector-curvature="0"
                 id="path4195-2-0-1-1-9-7"
                 d="m 885.91517,51.911527 c -0.19821,-0.0677 -0.45277,-0.0588 -0.7002,-0.0418 -1.23227,0.0738 -12.46817,4.43293 -25.02709,9.68524 -44.81309,18.74077 -94.9679,35.8146 -122.46661,41.712953 -7.57943,1.62555 -28.26922,5.20271 -45.96406,7.97553 -51.16603,8.01689 -68.67128,11.45488 -73.04651,14.53486 -2.56074,1.80231 -6.34475,8.26741 -10.24102,17.23585 -16.50207,37.9851 -32.68059,64.76406 -46.32588,76.77323 -3.34279,2.94209 -5.80526,5.16495 -7.20398,6.4741 -23.38953,3.10174 -77.3449,88.41989 -83.15083,184.60899 -4.75745,78.82332 21.78422,45.22018 36.40029,40.60195 -5.58799,9.845 -9.20308,17.34514 -8.84525,18.71693 0.68235,2.61673 9.96883,9.76205 16.83871,12.88031 5.85111,2.64999 21.17342,-0.59376 28.54457,-6.00899 6.5514,-4.81283 14.63858,-16.85274 14.59634,-21.69548 -0.0108,-1.25189 -3.54335,-6.9022 -7.83235,-12.57564 -7.40869,-9.80511 -11.68528,-19.57454 -10.68883,-24.45466 0.25053,-1.22709 2.36288,1.43447 4.72697,5.96761 13.28214,25.47961 36.79465,35.80101 52.45112,23.05472 6.31278,-5.14015 14.11598,-18.24238 18.07742,-30.38028 l 2.42101,-7.46628 -7.34618,-11.29083 c -7.11793,-10.95729 -12.65583,-23.44554 -11.34342,-25.5828 0.3521,-0.57349 4.97048,5.6881 10.25407,13.85463 6.88838,10.64986 12.11891,16.52133 18.38249,20.88401 8.27017,5.76032 9.45173,6.06422 23.16646,5.19473 13.53473,-0.85802 15.15673,-1.45373 24.92504,-8.54753 7.93984,-5.76605 12.49613,-10.74387 18.76798,-20.71357 4.59767,-7.30804 7.8091,-14.0475 7.3041,-15.2551 -0.49908,-1.19239 -3.65108,-2.00839 -7.04246,-1.84292 -14.17746,0.69036 -35.77795,-7.29269 -46.00237,-16.9522 -5.68766,-5.37346 -2.23443,-4.91178 12.60697,1.58655 17.77955,7.78411 29.73683,9.83493 43.24002,7.53385 29.54592,-5.0345 65.09699,-26.35269 77.48243,-46.52323 5.5242,-8.99631 11.63886,-27.01106 11.57815,-34.00311 -0.0208,-2.40187 -1.25118,-5.97394 -2.73488,-7.93727 -2.61063,-3.44351 -3.37285,-3.39899 -22.66073,1.16873 -37.37609,8.85112 -57.38089,11.66808 -63.98505,9.05395 l -5.95722,-2.38983 11.8052,-2.2428 c 6.49813,-1.25682 19.49728,-3.72847 28.88388,-5.51363 38.84925,-7.38884 64.11859,-19.45512 87.99959,-42.12293 17.20878,-16.33424 24.32938,-30.89771 20.56873,-42.08235 -2.6685,-7.93707 -9.10103,-8.3513 -36.11328,-2.35247 -31.25698,6.9412 -63.29244,9.06825 -69.87465,4.63189 -4.49533,-3.02974 -4.0508,-3.13442 14.46317,-3.15321 32.86461,-0.0328 65.04731,-8.97509 84.29318,-23.38187 18.73332,-14.02308 33.28527,-35.38932 40.78379,-59.97262 4.01611,-13.166983 4.80949,-18.079163 5.17867,-32.737873 0.33485,-13.2892 0.18226,-16.41206 -1.18637,-16.9084 z"
                 style="fill:#f98b86;fill-opacity:1;fill-rule:evenodd;stroke:#000000;stroke-width:3.29762149;stroke-linecap:round;stroke-linejoin:round;stroke-miterlimit:4;stroke-opacity:1;stroke-dasharray:none" />
            <path
                 inkscape:connector-curvature="0"
                 id="path4195-2-0-1-1-9-7-6"
                 d="m -79.98459,45.786232 c 0.19821,-0.0677 0.45277,-0.0588 0.7002,-0.0418 1.23227,0.0738 12.46817,4.43293 25.02709,9.68524 44.81309,18.74077 94.9679,35.8146 122.46661,41.71296 7.57943,1.62555 28.26922,5.202708 45.96406,7.975528 51.16603,8.01689 68.67128,11.45488 73.04651,14.53486 2.56074,1.80231 6.34475,8.26741 10.24102,17.23585 16.50207,37.9851 32.68059,64.76406 46.32589,76.77323 3.34279,2.94209 5.80526,5.16495 7.20398,6.4741 23.38953,3.10174 77.34489,88.41989 83.15082,184.60899 4.75745,78.82332 -21.78421,45.22018 -36.40028,40.60195 5.58798,9.845 9.20308,17.34514 8.84524,18.71693 -0.68235,2.61673 -9.96882,9.76205 -16.8387,12.88031 -5.85111,2.64999 -21.17342,-0.59376 -28.54457,-6.00899 -6.5514,-4.81283 -14.63858,-16.85274 -14.59634,-21.69548 0.0108,-1.25189 3.54335,-6.9022 7.83235,-12.57564 7.40869,-9.80511 11.68528,-19.57454 10.68883,-24.45466 -0.25053,-1.22709 -2.36288,1.43447 -4.72697,5.96761 -13.28214,25.47961 -36.79466,35.80101 -52.45113,23.05472 -6.31278,-5.14015 -14.11598,-18.24238 -18.07742,-30.38028 l -2.42101,-7.46628 7.34618,-11.29083 c 7.11793,-10.95729 12.65583,-23.44554 11.34342,-25.5828 -0.3521,-0.57349 -4.97048,5.6881 -10.25407,13.85463 -6.88838,10.64986 -12.11891,16.52133 -18.38249,20.88401 -8.27017,5.76032 -9.45173,6.06422 -23.16646,5.19473 -13.53473,-0.85802 -15.15673,-1.45373 -24.92504,-8.54753 -7.93984,-5.76605 -12.49613,-10.74387 -18.76798,-20.71357 -4.59767,-7.30804 -7.8091,-14.0475 -7.3041,-15.2551 0.49908,-1.19239 3.65108,-2.00839 7.04246,-1.84292 14.17746,0.69036 35.77795,-7.29269 46.00237,-16.9522 5.68766,-5.37346 2.23443,-4.91178 -12.60697,1.58655 -17.77955,7.78411 -29.73683,9.83493 -43.24002,7.53385 -29.54592,-5.0345 -65.09699,-26.35269 -77.48243,-46.52323 -5.5242,-8.99631 -11.63886,-27.01106 -11.57815,-34.00311 0.0208,-2.40187 1.25118,-5.97394 2.73488,-7.93727 2.61063,-3.44351 3.37285,-3.39899 22.66073,1.16873 37.37609,8.85112 57.38089,11.66808 63.98505,9.05395 l 5.95722,-2.38983 -11.8052,-2.2428 c -6.49813,-1.25682 -19.49728,-3.72847 -28.88388,-5.51363 -38.84925,-7.38884 -64.11859,-19.45512 -87.99959,-42.12293 -17.20878,-16.33424 -24.32938,-30.89771 -20.56873,-42.08235 2.6685,-7.93707 9.10103,-8.3513 36.11328,-2.35247 31.25698,6.9412 63.29244,9.06825 69.87465,4.63189 4.49533,-3.02974 4.0508,-3.13442 -14.46317,-3.15321 -32.86461,-0.0328 -65.04731,-8.97509 -84.29318,-23.38187 -18.73332,-14.02308 -33.28527,-35.38932 -40.78379,-59.972618 -4.01611,-13.16699 -4.80949,-18.07917 -5.17867,-32.73788 -0.33485,-13.2892 -0.18226,-16.41206 1.18637,-16.9084 z"
                 style="fill:#f98b86;fill-opacity:1;fill-rule:evenodd;stroke:#000000;stroke-width:3.29762149;stroke-linecap:round;stroke-linejoin:round;stroke-miterlimit:4;stroke-opacity:1;stroke-dasharray:none" />
            <path
                 inkscape:export-ydpi="200"
                 inkscape:export-xdpi="200"
                 inkscape:export-filename="/home/sarah/path3511.png"
                 id="path3489"
                 style="fill:#c38d69;fill-opacity:1;stroke:#000000;stroke-width:2.79996753;stroke-linecap:butt;stroke-linejoin:miter;stroke-miterlimit:4;stroke-opacity:1;stroke-dasharray:none"
                 d="m 535.11063,717.7399 c 14.3128,-19.19901 55.81994,-122.17654 -1.4313,-260.06168 -57.2511,-137.88515 -76.1452,-106.46836 -127.71328,-106.46836 -51.56805,0 -70.46223,-31.41679 -127.71332,106.46836 -57.25112,137.88514 -15.74406,240.86267 -1.4313,260.06168 14.31282,19.19921 20.03792,26.18087 129.14462,26.18087 109.10668,0 114.83178,-6.98166 129.14458,-26.18087 z"
                 inkscape:connector-curvature="0"
                 sodipodi:nodetypes="ssssscs" />
            <path
                 id="path3542"
                 d="m 541.06593,479.86749 -150.625,82.59375 c 24.32204,16.17947 24.87405,33.86775 34.90625,52.25 7.36761,13.49972 -5.76517,-8.16948 18.40625,42.3125 9.4596,19.75674 21.8516,29.89735 35.0625,34.34375 14.4458,23.35231 42.3904,39.1875 74.5312,39.1875 46.9425,0 85,-33.75308 85,-75.40625 0,-26.49811 -15.3952,-49.79823 -38.6874,-63.25 -0.487,-0.91595 -1.0023,-1.83353 -1.5313,-2.78125 -26.3767,-47.25747 -57.0625,-109.25 -57.0625,-109.25 z"
                 style="fill:#c38d69;fill-opacity:1;stroke:#000000;stroke-width:2.79996753;stroke-linecap:butt;stroke-linejoin:miter;stroke-miterlimit:4;stroke-opacity:1;stroke-dasharray:none"
                 inkscape:connector-curvature="0" />
            <path
                 transform="matrix(0.53970041,1.0455746,-1.4898693,0.768765,828.50007,-568.80146)"
                 d="m 881.66665,482.81644 c 0,24.39257 -24.99744,44.16666 -55.83334,44.16666 -30.83589,0 -55.83333,-19.77409 -55.83333,-44.16666 0,-24.39258 24.99744,-44.16667 55.83333,-44.16667 30.8359,0 55.83334,19.77409 55.83334,44.16667 z"
                 sodipodi:ry="44.166668"
                 sodipodi:rx="55.833332"
                 sodipodi:cy="482.81644"
                 sodipodi:cx="825.83331"
                 id="path5288"
                 style="fill:#d3626d;fill-opacity:1;fill-rule:evenodd;stroke:#000000;stroke-width:1.99356592;stroke-linecap:round;stroke-linejoin:round;stroke-miterlimit:4;stroke-opacity:1;stroke-dasharray:none;stroke-dashoffset:0"
                 sodipodi:type="arc" />
            <path
                 id="path3542-8"
                 d="m 269.3524,483.38285 150.625,82.59375 c -24.32204,16.17947 -24.87405,33.86775 -34.90625,52.25 -7.36761,13.49972 5.76517,-8.16948 -18.40625,42.3125 -9.4596,19.75674 -21.8516,29.89735 -35.0625,34.34375 -14.4458,23.35231 -42.3904,39.1875 -74.5312,39.1875 -46.9425,0 -85,-33.75308 -85,-75.40625 0,-26.49811 15.3952,-49.79823 38.6874,-63.25 0.487,-0.91595 1.0023,-1.83353 1.5313,-2.78125 26.3767,-47.25747 57.0625,-109.25 57.0625,-109.25 z"
                 style="fill:#c38d69;fill-opacity:1;stroke:#000000;stroke-width:2.79996753;stroke-linecap:butt;stroke-linejoin:miter;stroke-miterlimit:4;stroke-opacity:1;stroke-dasharray:none"
                 inkscape:connector-curvature="0" />
            <path
                 transform="matrix(-0.53970041,1.0455746,1.4898693,0.768765,-10.0817,-565.2861)"
                 d="m 881.66665,482.81644 c 0,24.39257 -24.99744,44.16666 -55.83334,44.16666 -30.83589,0 -55.83333,-19.77409 -55.83333,-44.16666 0,-24.39258 24.99744,-44.16667 55.83333,-44.16667 30.8359,0 55.83334,19.77409 55.83334,44.16667 z"
                 sodipodi:ry="44.166668"
                 sodipodi:rx="55.833332"
                 sodipodi:cy="482.81644"
                 sodipodi:cx="825.83331"
                 id="path5288-3"
                 style="fill:#d3626d;fill-opacity:1;fill-rule:evenodd;stroke:#000000;stroke-width:1.99356592;stroke-linecap:round;stroke-linejoin:round;stroke-miterlimit:4;stroke-opacity:1;stroke-dasharray:none;stroke-dashoffset:0"
                 sodipodi:type="arc" />
            <path
                 style="fill:#c38d69;fill-opacity:1;stroke:#000000;stroke-width:2.79996753;stroke-linecap:butt;stroke-linejoin:miter;stroke-miterlimit:4;stroke-opacity:1;stroke-dasharray:none"
                 d="m 280.11745,547.57353 c 0,0 -14.42938,73.26576 -19.67735,145.69905 -5.24797,72.43329 -14.86926,109.95898 57.7277,109.95898 72.59697,0 82.21825,-3.49061 79.59427,-86.3964 -2.62397,-82.90553 -1.74933,-86.39637 -1.74933,-86.39637"
                 id="path3499"
                 inkscape:connector-curvature="0"
                 sodipodi:nodetypes="csssc" />
            <path
                 sodipodi:nodetypes="cscc"
                 inkscape:connector-curvature="0"
                 id="path3501"
                 d="m 257.14662,738.36403 c -1.95404,42.85281 5.4167,64.86753 61.02118,64.86753 65.73036,0 79.83477,-2.86145 79.96727,-64.93862 -46.99615,7.25854 -93.99231,12.97532 -140.98845,0.0702 z"
                 style="fill:#d3626d;fill-opacity:1;stroke:#000000;stroke-width:2.79996753;stroke-linecap:butt;stroke-linejoin:miter;stroke-miterlimit:4;stroke-opacity:1;stroke-dasharray:none" />
            <path
                 sodipodi:nodetypes="csssc"
                 inkscape:connector-curvature="0"
                 id="path3505"
                 d="m 527.39752,543.80787 c 0,0 16.22295,75.03142 21.47094,147.46471 5.24796,72.43329 14.86925,109.95898 -57.72772,109.95898 -72.59697,0 -82.21824,-3.49061 -79.59427,-86.3964 2.62398,-82.90553 1.74935,-86.39637 1.74935,-86.39637"
                 style="fill:#c38d69;fill-opacity:1;stroke:#000000;stroke-width:2.79996753;stroke-linecap:butt;stroke-linejoin:miter;stroke-miterlimit:4;stroke-opacity:1;stroke-dasharray:none" />
            <path
                 style="fill:#d3626d;fill-opacity:1;stroke:#000000;stroke-width:2.79999995;stroke-linecap:butt;stroke-linejoin:miter;stroke-miterlimit:4;stroke-opacity:1;stroke-dasharray:none"
                 d="m 552.0974,738.36403 c 1.95402,42.85281 -5.41669,64.86753 -61.02121,64.86753 -65.73036,0 -79.83477,-2.86145 -79.96727,-64.93862 42.92601,16.26758 91.26589,10.92845 140.98848,0.0702 z"
                 id="path3507"
                 inkscape:connector-curvature="0"
                 sodipodi:nodetypes="cscc" />
            <path
                 sodipodi:nodetypes="cac"
                 inkscape:connector-curvature="0"
                 id="path3517"
                 d="m 379.71001,622.49325 c 10.0094,8.90761 16.02379,9.38034 24.95815,9.85238 8.83258,0.46682 25.56685,-7.08557 25.56685,-7.08557"
                 style="fill:none;stroke:#000000;stroke-width:2.79996753;stroke-linecap:butt;stroke-linejoin:miter;stroke-miterlimit:4;stroke-opacity:1;stroke-dasharray:none" />
            <path
                 transform="matrix(1.9880952,0,0,2.8478261,-1761.8131,811.6831)"
                 d="m 1161.6666,-103.01688 c 0,21.170918 -31.34,38.333336 -70,38.333336 -38.6599,0 -70,-17.162418 -70,-38.333336 0,-21.17091 31.3401,-38.33333 70,-38.33333 38.66,0 70,17.16242 70,38.33333 z"
                 sodipodi:ry="38.333332"
                 sodipodi:rx="70"
                 sodipodi:cy="-103.01688"
                 sodipodi:cx="1091.6666"
                 id="path5467"
                 style="fill:#c38d69;fill-opacity:1;fill-rule:evenodd;stroke:none"
                 sodipodi:type="arc" />
            <path
                 sodipodi:nodetypes="cccssscssscsssccssscccssccccssccc"
                 id="path3922"
                 d="m 231.34798,43.635706 c -3.02244,0 -5.14249,0.574378 -5.60183,1.768851 -0.38417,0.998637 0.69878,6.474521 2.41093,12.168882 2.34153,7.786965 3.63258,16.159611 5.24727,33.817962 2.44739,26.765439 8.16369,68.576379 10.70728,78.319629 3.93023,15.05525 17.03055,36.56598 39.14186,64.38191 5.4863,6.90173 9.36198,11.72854 11.34547,14.079 -13.80986,25.10391 -20.10665,60.36063 -19.28729,98.20009 1.13454,52.39527 27.22913,87.16342 30.63274,106.40701 1.71756,9.71089 3.93633,43.3715 15.24547,77.04615 11.10166,33.0568 47.29293,42.22162 75.37645,40.53949 29.36298,1.75888 69.01703,-5.46547 80.83645,-40.25649 11.00069,-32.38079 10.05927,-68.0525 11.70002,-77.32915 3.40364,-19.24381 32.33458,-54.01174 33.46912,-106.40701 0.7681,-35.47135 -4.67077,-68.68708 -16.73456,-93.38913 0.0452,0.0634 0.48832,0.76998 0.49637,0.77835 0.094,0.0974 1.59756,-5.24681 7.51636,-15.14035 11.9004,-19.892 31.808,-50.45866 35.73823,-65.51389 2.54359,-9.74326 17.33626,-51.55419 19.78366,-78.319634 1.61469,-17.658367 2.90574,-26.031013 5.24728,-33.817962 1.71215,-5.694361 2.7951,-11.170245 2.41091,-12.168882 -0.91866,-2.388962 -8.54724,-2.434242 -16.52184,-0.07018 -17.57339,5.206921 -63.11563,36.852359 -76.15644,52.920498 -10.35456,12.75821 -17.81709,29.74846 -20.98913,47.89742 -1.32734,7.59406 -4.73403,49.84625 -5.03454,61.69343 -27.54491,-8.55558 -59.42189,-7.49943 -59.42189,-7.49966 0,0 -28.17331,-0.8714 -54.45825,6.15531 0.0113,-0.11773 0.071,-0.22685 0.0708,-0.35364 -0.0162,-9.44395 -3.72038,-55.46704 -5.10545,-63.39141 -3.17204,-18.14896 -10.63457,-35.13922 -20.98912,-47.897418 -13.04082,-16.06813 -58.58303,-47.713584 -76.15643,-52.920505 -3.98729,-1.181795 -7.89758,-1.706817 -10.92001,-1.697988 z"
                 style="color:#000000;fill:#c38d69;fill-opacity:1;stroke:#000000;stroke-width:2.79996753;marker:none;visibility:visible;display:inline;overflow:visible;enable-background:accumulate"
                 inkscape:connector-curvature="0" />
            <path
                 style="color:#000000;fill:#e0cfb7;fill-opacity:1;fill-rule:nonzero;stroke:none;stroke-width:2;marker:none;visibility:visible;display:inline;overflow:visible;enable-background:accumulate"
                 clip-path="none"
                 d="m 400.89557,458.65292 c -33.32324,2.3e-4 -63.18111,19.33189 -83.43296,49.8784 1.62965,6.78763 3.57232,13.82543 5.92994,20.84535 10.79537,32.14511 45.91922,41.05704 73.22793,39.42109 28.5529,1.71044 67.18188,-5.31447 78.67523,-39.14578 2.83304,-8.33914 4.81027,-16.93208 6.2747,-25.17975 -20.15669,-28.20511 -48.84216,-45.81931 -80.67484,-45.81931 z"
                 id="path3292-1"
                 inkscape:connector-curvature="0" />
            <path
                 style="color:#000000;fill:#7e4b4f;fill-opacity:1;fill-rule:nonzero;stroke:none;stroke-width:0.91346008;marker:none;visibility:visible;display:inline;overflow:visible;enable-background:accumulate"
                 d="m 362.76047,518.27902 c 0,-7.54924 -3.91923,-9.70477 -8.75383,-9.70477 -4.83459,0 -8.7538,2.15553 -8.7538,9.70477 0,7.54946 3.91921,13.66968 8.7538,13.66968 4.8346,0 8.75383,-6.12022 8.75383,-13.66968 z"
                 id="path4757-1"
                 inkscape:connector-curvature="0"
                 sodipodi:nodetypes="sssss" />
            <path
                 sodipodi:nodetypes="sssss"
                 inkscape:connector-curvature="0"
                 id="path4810"
                 d="m 456.62322,518.27902 c 0,-7.54924 -3.91922,-9.70477 -8.75383,-9.70477 -4.83458,0 -8.75379,2.15553 -8.75379,9.70477 0,7.54946 3.91921,13.66968 8.75379,13.66968 4.83461,0 8.75383,-6.12022 8.75383,-13.66968 z"
                 style="color:#000000;fill:#7e4b4f;fill-opacity:1;fill-rule:nonzero;stroke:none;stroke-width:0.91346008;marker:none;visibility:visible;display:inline;overflow:visible;enable-background:accumulate" />
            <path
                 sodipodi:nodetypes="csssscc"
                 inkscape:connector-curvature="0"
                 id="path4891"
                 d="m 303.63614,231.86406 c -38.43857,-59.32554 -29.09555,-44.94361 -33.90038,-59.32554 -4.80481,-14.38192 -25.62659,-90.48648 -26.22721,-97.078276 -0.60061,-6.591813 -2.4024,-18.576631 25.22531,2.996378 27.62772,21.572768 35.96879,49.737568 40.77359,73.707448 4.80483,23.96988 7.80785,52.73395 1.80183,59.92481 -6.00606,7.19107 -7.67314,19.77518 -7.67314,19.77518 z"
                 style="fill:#e0cfb7;fill-opacity:1;stroke:#000000;stroke-width:2.79996753;stroke-miterlimit:4;stroke-dasharray:none" />
            <path
                 sodipodi:nodetypes="csssscc"
                 style="fill:#e0cfb7;fill-opacity:1;stroke:#000000;stroke-width:2.79996753;stroke-miterlimit:4;stroke-dasharray:none"
                 d="m 501.16622,231.86406 c 12.34397,-21.96988 22.28825,-39.28366 29.36218,-59.32554 5.04697,-14.2991 30.16477,-90.48648 30.76539,-97.078276 0.6006,-6.591813 2.4024,-18.576631 -25.22532,2.996378 -27.6277,21.572768 -45.04517,49.737568 -49.84998,73.707448 -4.80483,23.96988 -7.80783,52.73395 -1.80183,59.92481 6.00605,7.19107 16.74956,19.77518 16.74956,19.77518 z"
                 id="path4893"
                 inkscape:connector-curvature="0" />
            <path
                 inkscape:export-xdpi="195.37589"
                 inkscape:connector-curvature="0"
                 inkscape:export-filename="/home/squirrel/my-documents/glow-in-the-dark/Glimmer/Glimmer.png"
                 sodipodi:nodetypes="ccc"
                 inkscape:export-ydpi="195.37589"
                 d="m 348.04919,374.13284 c -66.32737,2.71299 -66.02856,-34.95648 -63.69317,-75.27759 16.52446,-0.64959 64.56061,-15.51107 63.69317,75.27759 z"
                 style="fill:#ffffff;fill-opacity:1;stroke:#000000;stroke-width:2.05146551"
                 id="path6308-4-4-6-3-9-5" />
            <path
                 id="path3288-5-2-8"
                 d="m 301.34721,298.51273 c -1.55543,0.0146 -3.05401,0.10641 -4.52017,0.20171 -5.91172,10.75533 -8.29811,24.89585 -4.03587,38.27698 8.3618,29.358 38.41717,35.21383 54.24207,15.27044 -4.98434,-47.27149 -27.80038,-53.92259 -45.68603,-53.74924 z"
                 style="fill:#665a9f;fill-opacity:1;fill-rule:evenodd;stroke:none"
                 inkscape:connector-curvature="0" />
            <path
                 id="path3288-5-3"
                 d="m 301.34721,298.51273 c -0.37052,0.005 -0.71014,0.0581 -1.07623,0.0671 -4.30731,6.60844 -6.94169,15.02842 -6.94169,24.21743 0,21.20171 13.76659,38.41153 30.72641,38.41153 8.92788,0 16.93603,-4.77377 22.54706,-12.3778 -5.71447,-44.12761 -27.81711,-50.48746 -45.25555,-50.31843 z"
                 style="fill:#b6a6ff;fill-opacity:1;fill-rule:evenodd;stroke:none"
                 inkscape:connector-curvature="0" />
            <path
                 id="path3288-8"
                 d="m 309.36514,298.98363 c -4.8924,5.51579 -7.96412,13.5167 -7.96412,22.40111 0,16.64435 10.79333,30.13724 24.1076,30.13724 8.0198,0 15.09716,-4.91409 19.47979,-12.44506 -6.30883,-29.65746 -21.43166,-38.20914 -35.62327,-40.09329 z"
                 style="fill:#000000;fill-opacity:1;fill-rule:evenodd;stroke:none"
                 inkscape:connector-curvature="0" />
            <path
                 inkscape:connector-curvature="0"
                 id="path6368-3-4-7-3-9-9"
                 d="m 268.28895,288.28759 c 3.1656,2.68443 5.58364,5.17583 7.47982,7.73612 -1.62972,-0.56394 -3.51534,-0.51496 -5.5426,0.53817 5.1161,3.72246 6.84082,12.22063 14.36769,32.62626 -0.0431,-0.41839 -0.0699,-0.85627 -0.10762,-1.27815 l -1.56054,-12.31052 c 0.55125,-3.79082 0.47736,-8.66476 1.45292,-12.51234 0.0964,-1.94012 0.15559,-3.8956 0.26905,-5.85255 1.17072,-0.0461 2.57744,-0.19029 4.03587,-0.33635 -6.56103,-10.32981 -15.01768,-8.08078 -20.39459,-8.61064 z"
                 style="fill:#000000;fill-opacity:1" />
            <path
                 sodipodi:start="6.1069644"
                 sodipodi:end="12.315964"
                 inkscape:export-xdpi="195.37589"
                 sodipodi:cx="267.81668"
                 sodipodi:cy="356.49335"
                 transform="matrix(1.0460292,0.01045574,-0.01211454,1.0277985,29.112935,-54.389078)"
                 inkscape:export-filename="/home/squirrel/my-documents/glow-in-the-dark/Glimmer/Glimmer.png"
                 inkscape:export-ydpi="195.37589"
                 sodipodi:open="true"
                 d="m 276.64294,354.3904 c 0.86802,6.52237 -2.37997,12.75131 -7.25458,13.91274 -4.87462,1.16142 -9.52993,-3.18448 -10.39794,-9.70685 -0.86801,-6.52236 2.37998,-12.75131 7.25459,-13.91273 4.62082,-1.10096 9.09413,2.75313 10.25717,8.83731"
                 sodipodi:type="arc"
                 style="color:#000000;fill:#ffffff"
                 sodipodi:ry="11.995562"
                 sodipodi:rx="8.9651041"
                 id="path7471-2-5-6-1-7" />
            <path
                 sodipodi:start="6.1069644"
                 sodipodi:end="12.315964"
                 sodipodi:cx="288.21429"
                 sodipodi:cy="388.25504"
                 transform="matrix(0.81483323,-0.00872957,0.01226411,0.97087016,77.675323,-39.813074)"
                 sodipodi:open="true"
                 d="m 295.59814,387.03412 c 0.72616,3.78671 -1.99103,7.40306 -6.06902,8.07735 -4.07799,0.67429 -7.97252,-1.84882 -8.69867,-5.63552 -0.72616,-3.78671 1.99103,-7.40306 6.06902,-8.07735 3.86567,-0.63918 7.60794,1.59839 8.58091,5.1307"
                 sodipodi:type="arc"
                 style="color:#000000;fill:#ffffff"
                 sodipodi:ry="6.9642859"
                 sodipodi:rx="7.5"
                 id="path4504-6-1-6-4-3" />
            <path
                 id="use4315"
                 style="fill:none;stroke:#000000;stroke-width:2.05146551"
                 d="m 348.04919,374.13284 c -66.32737,2.71299 -66.02856,-34.95648 -63.69317,-75.27759 16.52446,-0.64959 64.56061,-15.51107 63.69317,75.27759 z"
                 inkscape:export-ydpi="195.37589"
                 sodipodi:nodetypes="ccc"
                 inkscape:export-filename="/home/squirrel/my-documents/glow-in-the-dark/Glimmer/Glimmer.png"
                 inkscape:connector-curvature="0"
                 inkscape:export-xdpi="195.37589" />
            <g
                 id="use4329"
                 transform="matrix(-1.7219708,0,0,2.15266,686.10075,-574.90664)">
                <path
                     inkscape:export-xdpi="195.37589"
                     inkscape:connector-curvature="0"
                     inkscape:export-filename="/home/squirrel/my-documents/glow-in-the-dark/Glimmer/Glimmer.png"
                     sodipodi:nodetypes="ccc"
                     inkscape:export-ydpi="195.37589"
                     d="m 137.33875,440.86826 c -38.51829,1.26029 -38.34476,-16.23874 -36.98853,-34.96957 9.59625,-0.30176 37.49228,-7.20554 36.98853,34.96957 z"
                     style="fill:#ffffff;fill-opacity:1;stroke:#000000;stroke-width:1.06552494"
                     id="path5258" />
                <path
                     id="path5260"
                     d="m 110.2175,405.73958 c -0.90329,0.007 -1.77355,0.0494 -2.625,0.0937 -3.43311,4.9963 -4.81896,11.56516 -2.34375,17.78125 4.85595,13.63801 22.31,16.35829 31.5,7.09375 -2.89456,-21.95957 -16.14451,-25.04928 -26.53125,-24.96875 z"
                     style="fill:#665a9f;fill-opacity:1;fill-rule:evenodd;stroke:none"
                     inkscape:connector-curvature="0" />
                <path
                     id="path5262"
                     d="m 110.2175,405.73958 c -0.21517,0.002 -0.4124,0.027 -0.625,0.0312 -2.50138,3.06989 -4.03125,6.98132 -4.03125,11.25 0,9.84908 7.99467,17.84375 17.84375,17.84375 5.18469,0 9.83526,-2.21761 13.09375,-5.75 -3.31856,-20.49911 -16.15422,-23.45352 -26.28125,-23.375 z"
                     style="fill:#b6a6ff;fill-opacity:1;fill-rule:evenodd;stroke:none"
                     inkscape:connector-curvature="0" />
                <path
                     id="path5264"
                     d="m 114.87375,405.95833 c -2.84116,2.56232 -4.625,6.27907 -4.625,10.40625 0,7.73199 6.26801,14 14,14 4.65734,0 8.76738,-2.2828 11.3125,-5.78125 -3.66373,-13.77712 -12.446,-17.74973 -20.6875,-18.625 z"
                     style="fill:#000000;fill-opacity:1;fill-rule:evenodd;stroke:none"
                     inkscape:connector-curvature="0" />
                <path
                     inkscape:connector-curvature="0"
                     id="path5266"
                     d="m 91.01958,400.98958 c 1.83836,1.24703 3.24259,2.40438 4.34375,3.59375 -0.94642,-0.26198 -2.04146,-0.23922 -3.21875,0.25 2.97107,1.72924 3.97267,5.67699 8.34375,15.15625 -0.025,-0.19436 -0.0406,-0.39777 -0.0625,-0.59375 l -0.90625,-5.71875 c 0.32013,-1.76099 0.27721,-4.02514 0.84375,-5.8125 0.056,-0.90127 0.0904,-1.80967 0.15625,-2.71875 0.67987,-0.0214 1.4968,-0.0884 2.34375,-0.15625 -3.81019,-4.79863 -8.72122,-3.75386 -11.84375,-4 z"
                     style="fill:#000000;fill-opacity:1" />
                <path
                     sodipodi:start="6.1069644"
                     sodipodi:end="12.315964"
                     inkscape:export-xdpi="195.37589"
                     sodipodi:cx="267.81668"
                     sodipodi:cy="356.49335"
                     transform="matrix(0.60746049,0.00485713,-0.00703528,0.47745508,-47.87709,241.80203)"
                     inkscape:export-filename="/home/squirrel/my-documents/glow-in-the-dark/Glimmer/Glimmer.png"
                     inkscape:export-ydpi="195.37589"
                     sodipodi:open="true"
                     d="m 276.64294,354.3904 c 0.86802,6.52237 -2.37997,12.75131 -7.25458,13.91274 -4.87462,1.16142 -9.52993,-3.18448 -10.39794,-9.70685 -0.86801,-6.52236 2.37998,-12.75131 7.25459,-13.91273 4.62082,-1.10096 9.09413,2.75313 10.25717,8.83731"
                     sodipodi:type="arc"
                     style="color:#000000;fill:#ffffff"
                     sodipodi:ry="11.995562"
                     sodipodi:rx="8.9651041"
                     id="path5268" />
                <path
                     sodipodi:start="6.1069644"
                     sodipodi:end="12.315964"
                     sodipodi:cx="288.21429"
                     sodipodi:cy="388.25504"
                     transform="matrix(0.47319805,-0.00405525,0.00712213,0.45100952,-19.67546,248.57319)"
                     sodipodi:open="true"
                     d="m 295.59814,387.03412 c 0.72616,3.78671 -1.99103,7.40306 -6.06902,8.07735 -4.07799,0.67429 -7.97252,-1.84882 -8.69867,-5.63552 -0.72616,-3.78671 1.99103,-7.40306 6.06902,-8.07735 3.86567,-0.63918 7.60794,1.59839 8.58091,5.1307"
                     sodipodi:type="arc"
                     style="color:#000000;fill:#ffffff"
                     sodipodi:ry="6.9642859"
                     sodipodi:rx="7.5"
                     id="path5270" />
                <path
                     id="path5272"
                     style="fill:none;stroke:#000000;stroke-width:1.06552494"
                     d="m 137.33875,440.86826 c -38.51829,1.26029 -38.34476,-16.23874 -36.98853,-34.96957 9.59625,-0.30176 37.49228,-7.20554 36.98853,34.96957 z"
                     inkscape:export-ydpi="195.37589"
                     sodipodi:nodetypes="ccc"
                     inkscape:export-filename="/home/squirrel/my-documents/glow-in-the-dark/Glimmer/Glimmer.png"
                     inkscape:connector-curvature="0"
                     inkscape:export-xdpi="195.37589" />
            </g>
            <path
                 inkscape:connector-curvature="0"
                 id="path3926-78"
                 d="m 380.6875,162.90625 c -3.16906,3.69897 -2.04287,9.58767 -2.625,13.375 -2.78853,-5.62669 -11.58434,-3.8434 -10.75,2.875 0.13457,2.90017 0.50102,4.52561 -2.71875,3.21875 -6.61031,0.0632 -6.31345,8.53266 -5.125,13.0625 -0.76563,1.73032 -4.24391,2.09345 -4.34375,4.8125 -1.35841,3.58872 1.90848,6.25063 4.4375,7.625 -1.40984,1.7474 -4.83536,2.58153 -5.25,5.53125 -2.62375,5.37539 3.27336,11.65538 8.75,8.9375 2.38603,-0.64708 5.973,-4.82407 4.78125,0.1875 -0.38467,4.45363 -0.47855,13.54475 6.125,12.5625 2.21186,-0.21783 3.62434,-4.36885 4.59375,-4 0.68695,4.97154 -0.34313,10.16763 1.46875,14.96875 7.22452,1.67857 11.2624,-5.74127 14.25,-10.53125 1.7695,4.90903 9.07879,8.67483 12.40625,3.125 1.0085,-1.5574 0.61156,-3.95892 2.65625,-1.875 4.89448,2.77203 10.21892,-1.69175 10.21875,-6.84375 0.18864,-3.09064 0.61599,-5.37105 3.09375,-2.15625 3.56219,3.3895 9.8358,2.07248 10.9375,-2.96875 1.34083,-2.46778 -0.79217,-7.85746 3.375,-6.65625 5.23839,-1.20183 5.6651,-7.29059 5,-11.625 0.72204,-5.58274 5.60346,-12.85954 0.46875,-17.5625 -3.51348,-2.259 -7.14345,3.10308 -9.78125,1.59375 0.0264,-5.55898 0.38646,-14.69292 -7,-15.53125 -2.50907,-0.51229 -4.47754,3.95502 -5.65625,3.3125 -0.81017,-5.04035 -6.13355,-10.81479 -11.34375,-7.125 -1.69456,2.70049 -1.59841,-2.08077 -3.46875,-2.53125 -3.73853,-3.15152 -9.54704,-1.24707 -11.21875,3.125 -1.92117,0.98785 -2.81579,-3.79201 -4.375,-4.71875 -2.02658,-2.48595 -5.86811,-6.34958 -8.52757,-4.974 l -0.37868,0.7865 z"
                 style="color:#000000;fill:#d3626d;fill-opacity:1;stroke:#000000;stroke-width:2.79996753;stroke-linecap:butt;stroke-linejoin:miter;stroke-miterlimit:4;stroke-opacity:1;stroke-dasharray:none;stroke-dashoffset:0;marker:none;visibility:visible;display:inline;overflow:visible;enable-background:accumulate" />
        </g>
    </g>
</svg>
