<?xml version="1.0" encoding="UTF-8"?>
<!DOCTYPE svg PUBLIC "-//W3C//DTD SVG 1.1//EN" "http://www.w3.org/Graphics/SVG/1.1/DTD/svg11.dtd">
<svg version="1.1" xmlns="http://www.w3.org/2000/svg" xmlns:xlink="http://www.w3.org/1999/xlink" x="0" y="0" width="541" height="506" viewBox="0, 0, 541, 506">
  <defs>
    <radialGradient id="Gradient_1" gradientUnits="userSpaceOnUse" cx="249.891" cy="115.256" r="180.443">
      <stop offset="0" stop-color="#A5B68A"/>
      <stop offset="0.663" stop-color="#5B8741"/>
      <stop offset="1" stop-color="#4D7236"/>
    </radialGradient>
    <clipPath id="Clip_1">
      <path d="M-0,506 L540.176,506 L540.176,0.387 L-0,0.387 z"/>
    </clipPath>
  </defs>
  <g id="Layer_1">
    <path d="M203.473,1.114 C101.738,1.114 0.73,77.418 0.73,204.578 C0.73,331.746 85.027,433.473 204.203,433.473 C323.375,433.473 410.574,320.852 410.574,215.477 C410.574,110.106 323.375,1.114 203.473,1.114 z" fill="url(#Gradient_1)"/>
    <path d="M190.391,17.098 C190.391,17.098 151.156,24.364 139.527,30.906 C127.906,37.442 97.379,68.692 88.66,76.68 C79.941,84.676 72.672,91.219 66.137,98.485 C59.59,105.75 39.254,137.723 34.164,145.715 C29.07,153.711 14.547,189.317 12.359,208.934 C10.176,228.555 8.727,248.903 7.273,266.344 C7.273,266.344 -0,223.465 -0,213.297 C-0,213.297 7.273,180.602 12.359,171.157 C17.453,161.707 23.262,142.809 26.168,134.813 C29.07,126.825 47.238,104.301 53.055,97.031 C58.867,89.77 83.578,65.059 92.293,57.789 C101.02,50.52 119.91,36.719 124.996,31.629 C130.078,26.543 142.43,24.364 153.328,20.723 C164.234,17.098 189.672,12.735 189.672,12.735 L190.391,17.098" fill="#1A1919"/>
    <path d="M194.758,20.008 C194.758,20.008 156.969,39.625 140.258,52.703 C123.543,65.781 110.465,71.598 108.281,82.496 C106.102,93.399 93.746,108.66 85.027,121.739 C76.309,134.813 62.5,167.516 58.867,184.227 C55.234,200.946 43.609,218.387 40.699,230.016 C37.793,241.637 35.613,259.078 36.344,271.426 C37.066,283.778 38.523,314.305 41.43,323.746 C44.328,333.2 56.695,366.625 56.695,366.625 C56.695,366.625 52.324,325.207 52.324,312.856 C52.324,300.5 50.875,288.149 53.055,280.153 C55.234,272.157 53.785,261.258 53.055,253.992 C52.324,246.727 52.324,244.547 55.965,237.282 C59.59,230.016 65.406,212.575 66.137,207.481 C66.863,202.399 81.402,179.871 82.848,167.516 C84.305,155.164 98.836,118.828 106.824,105.028 C114.82,91.219 126.445,78.864 131.531,74.508 C136.621,70.145 140.977,65.781 140.977,65.781 C140.977,65.781 127.906,105.75 121.355,115.196 C114.82,124.641 114.82,135.543 113.359,144.266 C111.914,152.985 104.652,189.317 98.109,206.754 C91.562,224.196 91.562,240.907 91.562,248.903 C91.562,256.899 96.656,292.504 95.926,296.137 C95.203,299.774 100.289,325.207 100.289,336.832 C100.289,348.461 96.656,352.817 100.289,361.539 C103.918,370.258 106.824,374.621 106.102,380.426 C105.375,386.246 103.918,391.328 110.465,395.692 C117,400.055 118.453,404.418 120.633,408.774 C122.816,413.129 129.352,416.77 129.352,416.77 C129.352,416.77 123.543,398.598 123.543,391.328 C123.543,384.067 122.086,370.985 119.18,366.625 C116.27,362.27 114.82,350.633 114.09,339.742 C113.359,328.836 111.914,307.77 113.359,294.684 C114.82,281.602 115.551,272.157 112.645,259.078 C109.734,245.996 107.555,239.461 114.82,226.375 C122.086,213.297 122.086,200.219 122.816,187.137 C123.543,174.059 127.176,157.344 130.813,144.989 C134.441,132.637 139.527,115.926 143.887,93.399 C148.25,70.867 154.059,60.7 160.609,53.426 C167.145,46.16 198.387,21.453 198.387,21.453 L194.758,20.008" fill="#1A1919"/>
    <path d="M198.387,21.453 C198.387,21.453 186.031,51.973 186.031,61.426 C186.031,70.867 185.309,90.489 184.586,101.395 C183.855,112.285 183.855,126.825 185.309,134.813 C186.762,142.809 190.391,157.344 183.855,174.059 C177.32,190.778 176.59,210.391 176.59,224.926 C176.59,239.461 174.41,253.992 173.68,264.891 C172.961,275.797 171.5,300.496 172.961,307.77 C174.41,315.035 176.59,339.012 176.59,348.461 C176.59,357.907 177.32,387.7 180.223,400.778 C183.125,413.86 186.762,432.75 186.762,432.75 L204.203,433.473 C204.203,433.473 204.93,392.063 204.93,378.981 C204.93,365.903 209.293,346.278 206.383,332.477 C203.473,318.668 204.93,306.313 204.93,296.137 C204.93,285.965 198.387,251.813 206.383,241.637 C214.379,231.461 215.828,218.387 210.738,208.934 C205.652,199.489 199.117,175.512 201.297,158.805 C203.473,142.078 212.199,141.356 213.648,132.637 C215.102,123.914 215.828,113.016 215.102,102.84 C214.379,92.668 210.738,59.246 210.016,46.16 C209.293,33.078 204.93,20.008 204.93,20.008 L198.387,21.453" fill="#1A1919"/>
    <path d="M218.004,20.723 C218.004,20.723 230.359,26.543 230.359,33.809 C230.359,41.075 226.73,46.887 234.715,54.883 C242.711,62.871 250.707,67.961 253.617,81.774 C256.527,95.575 259.422,95.575 262.332,104.301 C265.242,113.016 268.148,121.739 273.23,128.278 C278.324,134.813 282.68,144.266 285.59,157.344 C288.492,170.426 292.855,182.051 287.77,192.223 C282.68,202.399 279.047,214.754 279.773,219.84 C280.504,224.926 281.227,229.285 285.59,235.094 C289.949,240.907 297.945,251.082 297.945,259.078 C297.945,267.071 291.402,276.52 289.949,281.602 C288.492,286.688 287.043,297.594 292.125,304.129 C297.215,310.672 302.301,327.387 303.031,332.477 C303.762,337.563 303.762,350.633 303.762,357.907 C303.762,365.164 299.398,382.606 296.488,392.782 C293.582,402.957 295.035,408.043 295.035,408.043 L314.656,397.145 C314.656,397.145 316.113,370.985 316.832,360.809 C317.563,350.633 316.832,342.649 318.289,327.387 C319.742,312.125 321.922,297.594 318.289,288.867 C314.656,280.153 313.93,267.797 314.656,259.078 C315.379,250.352 323.375,234.371 324.098,225.653 C324.828,216.93 316.832,214.754 312.477,199.489 C308.117,184.227 305.211,165.332 303.031,157.344 C300.852,149.348 291.402,110.836 281.227,90.489 C271.059,70.145 257.246,52.703 253.617,48.34 C249.977,43.985 248.531,44.715 248.531,41.075 C248.531,37.442 244.172,29.446 240.535,26.543 C236.906,23.633 218.004,20.723 218.004,20.723" fill="#1A1919"/>
    <path d="M220.914,16.367 C220.914,16.367 249.254,22.91 265.973,36.719 C282.68,50.52 301.578,65.059 303.031,75.227 C304.48,85.403 303.762,87.586 310.297,89.039 C316.832,90.489 326.285,96.305 329.188,102.84 C332.094,109.383 348.082,134.082 350.984,150.809 C353.895,167.516 355.355,171.157 358.98,177.692 C362.613,184.227 376.422,209.664 376.422,223.465 C376.422,237.282 377.145,243.086 380.063,251.082 C382.965,259.078 384.418,260.528 385.148,270.703 C385.867,280.875 385.871,312.848 378.602,327.387 L396.77,291.059 C396.77,291.059 391.684,260.532 392.414,252.535 C393.133,244.547 393.145,230.016 391.684,219.11 C390.223,208.211 383.695,192.223 380.785,182.782 C377.871,173.325 373.512,158.805 361.891,138.453 C350.262,118.106 346.633,116.657 343.719,104.301 C340.816,91.942 331.371,81.043 323.375,73.055 C315.379,65.059 297.215,51.973 287.77,42.528 C278.324,33.078 239.809,14.188 218.734,13.457 L220.914,16.367" fill="#1A1919"/>
    <path d="M226.004,12.012 C226.004,12.012 258.707,14.188 270.328,20.008 C281.957,25.813 307.387,34.531 314.656,43.985 C321.922,53.426 338.629,68.692 344.449,73.055 C350.262,77.418 355.355,82.496 359.711,86.86 C364.066,91.219 366.977,98.485 371.332,103.571 C375.691,108.66 396.039,140.633 396.039,140.633 C396.039,140.633 370.609,88.309 337.184,59.965 C303.762,31.629 277.594,14.918 255.797,11.281 C233.992,7.653 226.004,12.012 226.004,12.012" fill="#1A1919"/>
    <path d="M111.188,22.91 C111.188,22.91 156.246,9.832 189.672,12.735 L142.43,9.102 L111.188,22.91" fill="#1A1919"/>
    <path d="M170.777,3.285 L193.301,14.918 L183.855,2.559 L170.777,3.285" fill="#1A1919"/>
    <path d="M203.473,1.114 L206.383,14.188 L212.918,0.387 L203.473,1.114" fill="#1A1919"/>
    <path d="M227.457,1.836 L211.469,13.457 L239.078,4.016 L227.457,1.836" fill="#1A1919"/>
    <g clip-path="url(#Clip_1)">
      <path d="M183.652,16.172 C183.652,12.766 192.844,10.008 204.203,10.008 C215.551,10.008 224.754,12.766 224.754,16.172 C224.754,19.578 215.551,22.336 204.203,22.336 C192.844,22.336 183.652,19.578 183.652,16.172" fill="#62563A"/>
      <path d="M523.738,230.41 C538.27,255.114 535.367,327.785 527.371,357.571 C519.375,387.367 485.223,439.688 448.891,462.946 C412.555,486.192 345.703,519.625 249.055,484.746 C152.41,449.864 134.969,327.059 134.969,327.059 C131.332,372.11 139.145,401.321 162.578,430.25 C196.738,472.391 246.957,490.551 246.957,490.551 C277.625,501.621 305.539,506 330.508,506 C330.52,506 330.535,506 330.547,506 C385.961,506 426.754,484.442 452.215,468.149 C471.383,455.844 489.352,436.473 503.785,416.305 C518.191,396.086 528.98,375.25 533.34,359.184 C537.488,343.594 540.152,318.383 540.176,293.305 C540.164,280.367 539.445,267.524 537.738,256.125 C536,244.711 535.371,236.469 531.008,228.957 L523.738,230.41" fill="#5B8741"/>
      <path d="M134.969,327.059 C134.969,327.059 152.41,449.864 249.055,484.746 C345.703,519.625 412.555,486.192 448.891,462.946 C485.223,439.688 519.375,387.367 527.371,357.571 C535.367,327.785 538.27,255.114 523.738,230.41 L134.969,327.059" fill="#F1E8B8"/>
    </g>
    <path d="M330.18,491.672 C304.781,491.672 278.203,486.723 251.195,476.977 C182.344,452.129 154.027,358.145 145.477,324.395 L519.41,231.43 C525.293,258.758 525.297,330.453 518.285,356.563 C511.426,382.129 479.113,433.571 444.102,455.985 C420.156,471.301 382.289,491.672 330.18,491.672" fill="#F1E8B8"/>
    <path d="M517.105,356.061 C510.289,381.464 478.184,432.576 443.396,454.847 C419.604,470.066 381.979,490.307 330.202,490.307 C304.966,490.307 278.558,485.389 251.722,475.705 C183.311,451.017 155.176,357.633 146.68,324.099 L518.223,231.728 C524.068,258.881 524.072,330.118 517.105,356.061" fill="#EFDEAE"/>
    <path d="M515.926,355.559 C509.153,380.799 477.254,431.582 442.689,453.71 C419.051,468.83 381.668,488.941 330.226,488.941 C330.225,488.941 330.226,488.941 330.225,488.941 C305.15,488.941 278.912,484.056 252.25,474.434 C184.278,449.905 156.324,357.12 147.883,323.802 L517.035,232.027 C522.844,259.005 522.848,329.783 515.926,355.559" fill="#ECD4A4"/>
    <path d="M514.746,355.057 C508.018,380.133 476.325,430.588 441.984,452.573 C418.498,467.596 381.357,487.575 330.248,487.575 C330.246,487.575 330.248,487.575 330.246,487.575 C305.336,487.575 279.267,482.722 252.776,473.162 C185.246,448.791 157.473,356.61 149.086,323.506 L515.849,232.325 C521.619,259.128 521.623,329.45 514.746,355.057" fill="#EACB9C"/>
    <path d="M513.566,354.555 C506.881,379.468 475.396,429.593 441.278,451.435 C417.945,466.361 381.046,486.209 330.271,486.209 C330.269,486.209 330.271,486.209 330.269,486.209 C305.521,486.209 279.621,481.388 253.304,471.891 C186.213,447.679 158.621,356.097 150.289,323.21 L514.661,232.623 C520.395,259.251 520.398,329.115 513.566,354.555" fill="#E7C293"/>
    <path d="M512.387,354.054 C505.744,378.803 474.466,428.6 440.572,450.297 C417.393,465.125 380.736,484.844 330.293,484.844 C330.291,484.844 330.293,484.844 330.291,484.844 C305.705,484.844 279.976,480.055 253.831,470.619 C187.181,446.567 159.77,355.585 151.492,322.914 L513.474,232.921 C519.171,259.375 519.173,328.78 512.387,354.054" fill="#E4B88B"/>
    <path d="M511.207,353.552 C504.608,378.138 473.537,427.606 439.866,449.16 C416.84,463.891 380.426,483.479 330.316,483.479 C330.313,483.479 330.316,483.479 330.313,483.479 C305.89,483.479 280.33,478.721 254.358,469.347 C188.148,445.453 160.918,355.073 152.695,322.617 L512.286,233.22 C517.946,259.498 517.948,328.445 511.207,353.552" fill="#E2AF84"/>
    <path d="M510.027,353.05 C503.473,377.473 472.607,426.611 439.16,448.023 C416.288,462.656 380.114,482.113 330.339,482.113 C330.336,482.113 330.339,482.113 330.336,482.113 C306.074,482.113 280.686,477.387 254.885,468.075 C189.115,444.341 162.066,354.561 153.898,322.322 L511.1,233.518 C516.721,259.621 516.724,328.11 510.027,353.05" fill="#E0A67C"/>
    <path d="M508.848,352.548 C502.336,376.807 471.678,425.616 438.454,446.885 C415.735,461.42 379.804,480.747 330.361,480.747 C330.357,480.747 330.361,480.747 330.357,480.747 C306.259,480.747 281.039,476.054 255.412,466.804 C190.083,443.229 163.215,354.049 155.102,322.026 L509.912,233.816 C515.497,259.745 515.499,327.775 508.848,352.548" fill="#DD9D75"/>
    <path d="M507.668,352.046 C501.199,376.143 470.748,424.622 437.748,445.748 C415.183,460.186 379.493,479.382 330.385,479.382 C330.381,479.382 330.385,479.382 330.381,479.382 C306.443,479.382 281.394,474.72 255.939,465.533 C191.05,442.116 164.363,353.537 156.305,321.729 L508.725,234.115 C514.272,259.868 514.274,327.441 507.668,352.046" fill="#DB946E"/>
    <path d="M506.488,351.544 C500.063,375.477 469.818,423.628 437.043,444.611 C414.63,458.95 379.182,478.016 330.407,478.016 C330.402,478.016 330.407,478.016 330.402,478.016 C306.629,478.016 281.748,473.387 256.467,464.261 C192.018,441.003 165.512,353.026 157.508,321.433 L507.537,234.412 C513.048,259.992 513.05,327.106 506.488,351.544" fill="#D98C67"/>
    <path d="M505.309,351.042 C498.927,374.812 468.889,422.634 436.337,443.473 C414.077,457.715 378.872,476.651 330.43,476.651 C330.425,476.651 330.43,476.651 330.425,476.651 C306.813,476.651 282.104,472.053 256.993,462.99 C192.985,439.891 166.66,352.514 158.711,321.137 L506.351,234.711 C511.824,260.116 511.825,326.771 505.309,351.042" fill="#D78461"/>
    <path d="M504.129,350.541 C497.791,374.147 467.96,421.639 435.631,442.336 C413.525,456.481 378.562,475.285 330.453,475.285 C330.447,475.285 330.453,475.285 330.447,475.285 C306.998,475.285 282.457,470.719 257.521,461.717 C193.952,438.778 167.809,352.001 159.914,320.84 L505.163,235.009 C510.6,260.239 510.601,326.436 504.129,350.541" fill="#D47C5B"/>
    <path d="M502.949,350.039 C496.654,373.481 467.03,420.645 434.926,441.199 C412.973,455.245 378.25,473.919 330.476,473.919 C330.469,473.919 330.476,473.919 330.469,473.919 C307.184,473.919 282.813,469.385 258.048,460.447 C194.92,437.665 168.957,351.49 161.117,320.544 L503.976,235.307 C509.374,260.363 509.375,326.101 502.949,350.039" fill="#D27456"/>
    <path d="M501.77,349.537 C495.519,372.816 466.102,419.651 434.22,440.061 C412.42,454.01 377.939,472.554 330.498,472.554 C330.491,472.554 330.498,472.554 330.491,472.554 C307.368,472.554 283.167,468.052 258.575,459.174 C195.887,436.553 170.105,350.978 162.32,320.248 L502.788,235.605 C508.15,260.486 508.15,325.766 501.77,349.537" fill="#D16C51"/>
    <path d="M500.59,349.035 C494.382,372.151 465.171,418.657 433.514,438.924 C411.867,452.775 377.629,471.189 330.521,471.189 C330.514,471.189 330.521,471.189 330.514,471.189 C307.553,471.189 283.521,466.718 259.102,457.903 C196.854,435.441 171.254,350.465 163.523,319.951 L501.601,235.904 C506.926,260.609 506.926,325.432 500.59,349.035" fill="#CF644C"/>
    <path d="M499.41,348.533 C493.246,371.486 464.242,417.662 432.808,437.786 C411.314,451.54 377.318,469.823 330.544,469.823 C330.536,469.823 330.544,469.823 330.536,469.823 C307.737,469.823 283.876,465.385 259.629,456.631 C197.821,434.327 172.402,349.953 164.727,319.656 L500.414,236.202 C505.701,260.733 505.701,325.097 499.41,348.533" fill="#CD5C47"/>
    <path d="M330.559,468.457 C307.922,468.457 284.23,464.051 260.156,455.36 C198.789,433.215 173.551,349.442 165.93,319.36 L499.227,236.5 C504.477,260.856 504.477,324.762 498.23,348.032 C492.109,370.821 463.313,416.668 432.102,436.649 C410.762,450.305 377.008,468.457 330.566,468.457 C330.559,468.457 330.566,468.457 330.559,468.457" fill="#CB5342"/>
    <path d="M368.664,402.496 C368.664,406.469 366.516,408.793 363.867,408.793 C361.223,408.793 359.074,406.469 359.074,402.496 C359.074,398.516 362.703,393.203 363.867,393.203 C365.023,393.203 368.664,398.516 368.664,402.496" fill="#1A1919"/>
    <path d="M431.98,369.825 C434.324,373.035 433.945,376.176 431.816,377.739 C429.664,379.293 426.566,378.692 424.23,375.473 C421.895,372.262 421.703,365.821 422.645,365.141 C423.566,364.461 429.645,366.614 431.98,369.825" fill="#1A1919"/>
    <path d="M459.094,325.586 C462.203,328.055 462.68,331.192 461.031,333.262 C459.383,335.328 456.227,335.567 453.125,333.086 C450.012,330.61 448.109,324.453 448.84,323.547 C449.566,322.641 455.996,323.114 459.094,325.586" fill="#1A1919"/>
    <path d="M464.625,286.367 C468.598,286.575 470.805,288.828 470.664,291.481 C470.527,294.125 468.109,296.153 464.129,295.946 C460.176,295.742 455.043,291.84 455.102,290.68 C455.164,289.52 460.668,286.16 464.625,286.367" fill="#1A1919"/>
    <path d="M314.887,402.137 C314.887,406.106 312.742,408.426 310.098,408.426 C307.438,408.426 305.305,406.106 305.305,402.137 C305.305,398.153 308.93,392.836 310.098,392.836 C311.242,392.836 314.887,398.153 314.887,402.137" fill="#1A1919"/>
    <path d="M259.484,379.117 C257.23,382.391 254.148,383.098 251.965,381.586 C249.785,380.086 249.332,376.965 251.578,373.692 C253.82,370.418 259.832,368.094 260.789,368.746 C261.742,369.403 261.73,375.844 259.484,379.117" fill="#1A1919"/>
    <path d="M221.605,338.399 C218.184,340.422 215.086,339.758 213.742,337.473 C212.398,335.188 213.301,332.168 216.723,330.145 C220.145,328.125 226.57,328.551 227.156,329.539 C227.746,330.543 225.016,336.379 221.605,338.399" fill="#1A1919"/>
    <path d="M263.543,345.836 C260.121,347.852 257.035,347.188 255.688,344.903 C254.34,342.629 255.238,339.598 258.668,337.575 C262.09,335.555 268.516,335.981 269.105,336.977 C269.691,337.977 266.961,343.809 263.543,345.836" fill="#1A1919"/>
    <path d="M306.18,370.45 C304.469,374.02 301.52,375.188 299.141,374.035 C296.746,372.883 295.816,369.864 297.555,366.293 C299.266,362.703 304.844,359.492 305.891,359.989 C306.934,360.492 307.91,366.864 306.18,370.45" fill="#1A1919"/>
    <path d="M342.477,379.356 C342.219,383.317 339.914,385.504 337.277,385.325 C334.641,385.149 332.645,382.696 332.906,378.727 C333.172,374.762 337.145,369.688 338.305,369.774 C339.461,369.844 342.742,375.399 342.477,379.356" fill="#1A1919"/>
    <path d="M388.934,364.082 C391.023,367.465 390.426,370.567 388.172,371.965 C385.918,373.352 382.867,372.508 380.773,369.125 C378.684,365.746 378.988,359.317 379.973,358.707 C380.953,358.102 386.848,360.7 388.934,364.082" fill="#1A1919"/>
    <path d="M427.914,336.637 C431.238,338.809 432.012,341.883 430.559,344.098 C429.117,346.313 426,346.848 422.668,344.664 C419.344,342.504 416.867,336.547 417.512,335.578 C418.141,334.61 424.59,334.469 427.914,336.637" fill="#1A1919"/>
    <path d="M434.824,300.414 C438.609,301.61 440.18,304.348 439.383,306.879 C438.578,309.399 435.719,310.758 431.93,309.555 C428.152,308.36 424.16,303.293 424.512,302.188 C424.867,301.086 431.035,299.219 434.824,300.414" fill="#1A1919"/>
    <path d="M435.355,264.782 C439.27,265.375 441.262,267.836 440.863,270.457 C440.48,273.075 437.859,274.871 433.938,274.27 C430.004,273.692 425.281,269.305 425.457,268.164 C425.621,267.012 431.414,264.203 435.355,264.782" fill="#1A1919"/>
  </g>
</svg>
