<?xml version="1.0"?>
<svg xmlns:rdf="http://www.w3.org/1999/02/22-rdf-syntax-ns#" xmlns="http://www.w3.org/2000/svg" xmlns:cc="http://creativecommons.org/ns#" xmlns:xlink="http://www.w3.org/1999/xlink" xmlns:dc="http://purl.org/dc/elements/1.1/" xmlns:svg="http://www.w3.org/2000/svg" id="svg1" viewBox="0 0 48 48" version="1.1">
  <defs id="defs3">
    <linearGradient id="linearGradient3613">
      <stop id="stop3615" stop-color="#ff5959" offset="0"/>
      <stop id="stop3617" stop-color="#d90000" offset="1"/>
    </linearGradient>
    <radialGradient id="radialGradient2897" xlink:href="#linearGradient3613" gradientUnits="userSpaceOnUse" cy="32.427" cx="17" gradientTransform="matrix(1 0 0 1.2949 2.4062 -10.895)" r="6.1782"/>
    <radialGradient id="radialGradient2899" gradientUnits="userSpaceOnUse" cy="27.326" cx="25" gradientTransform="matrix(-.79157 -1.0228 1.2785 -.98947 14.407 84.862)" r="6.1855">
      <stop id="stop3766" stop-color="#7ed249" offset="0"/>
      <stop id="stop3768" stop-color="#286325" offset="1"/>
    </radialGradient>
    <radialGradient id="radialGradient2903" gradientUnits="userSpaceOnUse" cy="28.308" cx="12" gradientTransform="matrix(1 0 0 1.2506 0 -9.4012)" r="5.3856">
      <stop id="stop3772" stop-color="#d1f6f6" offset="0"/>
      <stop id="stop3774" stop-color="#2adbdb" offset="1"/>
    </radialGradient>
    <linearGradient id="linearGradient3679">
      <stop id="stop3681" stop-color="#520" offset="0"/>
      <stop id="stop3683" stop-color="#b6632c" offset="1"/>
    </linearGradient>
    <linearGradient id="linearGradient3109" x1="27.666" xlink:href="#linearGradient3679" gradientUnits="userSpaceOnUse" y1="40.841" gradientTransform="translate(0,-2)" x2="18" y2="16"/>
    <linearGradient id="linearGradient3111" x1="9" xlink:href="#linearGradient3679" gradientUnits="userSpaceOnUse" y1="30" gradientTransform="translate(0,-2)" x2="45" y2="35"/>
    <linearGradient id="linearGradient3113" x1="25" xlink:href="#linearGradient3679" gradientUnits="userSpaceOnUse" y1="16" gradientTransform="translate(0,-2)" x2="37" y2="19.469"/>
    <linearGradient id="linearGradient3669">
      <stop id="stop3671" stop-color="#ffd73b" offset="0"/>
      <stop id="stop3673" stop-color="#ee8400" offset="1"/>
    </linearGradient>
    <radialGradient id="radialGradient4001" gradientUnits="userSpaceOnUse" cy="25.621" cx="23" gradientTransform="matrix(.99373 -.90053 .81498 .89932 -21.592 23.012)" r="5.6789">
      <stop id="stop2870" stop-color="#d700d7" offset="0"/>
      <stop id="stop2872" stop-color="#6e006e" offset="1"/>
    </radialGradient>
    <radialGradient id="radialGradient4005" xlink:href="#linearGradient3669" gradientUnits="userSpaceOnUse" cy="11.667" cx="26" gradientTransform="matrix(1 0 0 .75 0 3.25)" r="4"/>
    <radialGradient id="radialGradient4009" xlink:href="#linearGradient3669" gradientUnits="userSpaceOnUse" cy="10.317" cx="14.319" gradientTransform="matrix(1.8241 1.0595 -.40180 .69178 -7.6554 -13.254)" r="7.5"/>
    <radialGradient id="radialGradient4013" xlink:href="#linearGradient3669" gradientUnits="userSpaceOnUse" cy="8.5683" cx="13.489" gradientTransform="matrix(3.7 .61045 .10237 -.62048 -19.785 4.0823)" r="7.5"/>
    <radialGradient id="radialGradient4021" xlink:href="#linearGradient3613" gradientUnits="userSpaceOnUse" cy="29.411" cx="25.177" gradientTransform="matrix(.57762 1.1572 -1.4465 .72203 61.459 -22.048)" r="6.1855"/>
    <filter id="filter4206" y="-.27049" width="1.2797" x="-.13984" height="1.541">
      <feGaussianBlur id="feGaussianBlur4208" stdDeviation="0.38237703"/>
    </filter>
    <filter id="filter4210" y="-.13723" width="1.3864" x="-.1932" height="1.2745">
      <feGaussianBlur id="feGaussianBlur4212" stdDeviation="0.38237703"/>
    </filter>
    <filter id="filter4214" y="-.22932" width="1.2599" x="-.12994" height="1.4586">
      <feGaussianBlur id="feGaussianBlur4216" stdDeviation="0.38237703"/>
    </filter>
    <filter id="filter4218" y="-.11471" width="1.3601" x="-.18006" height="1.2294">
      <feGaussianBlur id="feGaussianBlur4220" stdDeviation="0.38237703"/>
    </filter>
    <filter id="filter4222" y="-.15788" width="1.3496" x="-.1748" height="1.3158">
      <feGaussianBlur id="feGaussianBlur4224" stdDeviation="0.38237703"/>
    </filter>
    <filter id="filter4238" y="-.12645" width="1.2195" x="-.10973" height="1.2529">
      <feGaussianBlur id="feGaussianBlur4240" stdDeviation="0.34575155"/>
    </filter>
    <filter id="filter4242" y="-.096911" width="2.1064" x="-.5532" height="1.1938">
      <feGaussianBlur id="feGaussianBlur4244" stdDeviation="0.34575155"/>
    </filter>
    <filter id="filter4268" y="-.28621" width="1.3463" x="-.17316" height="1.5724">
      <feGaussianBlur id="feGaussianBlur4270" stdDeviation="0.56366219"/>
    </filter>
    <filter id="filter4272" y="-.46052" width="1.3971" x="-.19857" height="1.921">
      <feGaussianBlur id="feGaussianBlur4274" stdDeviation="0.56366219"/>
    </filter>
    <filter id="filter3679" y="-.29183" width="1.1409" x="-.070441" height="1.5837">
      <feGaussianBlur id="feGaussianBlur3681" stdDeviation="0.85116496"/>
    </filter>
  </defs>
  <path id="path4026" d="m38 41.5a14.5 3.5 0 1 1 -29 0 14.5 3.5 0 1 1 29 0z" fill-opacity=".7686" fill-rule="evenodd" transform="matrix(.85142 0 0 .89956 5.2361 3.1362)" filter="url(#filter3679)"/>
  <path id="path2895" style="color:#000000" fill="url(#linearGradient3113)" d="m29.625 9.9375c5.846 4.5185 5.671 9.9295 7.375 15.062h-4c-0.295-5.437-2.053-10.56-7-15l3.625-0.0625z"/>
  <path id="path2869" fill-rule="evenodd" fill="url(#linearGradient3111)" d="m43 29c0 3.2676-4.9415 7.1242-17.542 7.2611-11.685 0.12689-17.91-4.1728-17.91-7.4404s10.188-4.3719 17.91-4.3925c6.711-0.018 17.542 1.304 17.542 4.572z"/>
  <path id="path2884" fill-rule="evenodd" fill="url(#radialGradient2903)" d="m17 21c2.4926 0.95531 3.2385 5.139 1.9512 8.4977-1.2873 3.3588-3.0877 5.7915-6.844 4.3518-4.5687-1.752-3.4694-4.453-2.1821-7.812 1.2871-3.359 4.5821-5.993 7.0751-5.038z"/>
  <path id="path3115" fill-rule="evenodd" fill="url(#radialGradient4001)" d="m19 25c-0.15662-2.7488 3.4626-5.2215 7.1667-5.4325 3.7041-0.21105 6.7544 0.45251 6.9904 4.595 0.2871 5.0387-2.7192 5.1483-6.4233 5.3593-3.704 0.211-7.577-1.773-7.734-4.522z"/>
  <path id="path2880" fill-rule="evenodd" fill="url(#radialGradient2899)" d="m33 22c2.7228 1.3425 3.1299 6.1583 1.3208 9.8273s-4.1024 6.2356-8.2057 4.2124c-4.991-2.461-3.463-5.405-1.654-9.074s5.816-6.309 8.539-4.966z"/>
  <path id="path2882" d="m20 24c-0.20158 0.01524-0.39538 0.04455-0.59375 0.09375-3.1739 0.78722-4.6233 5.7543-3.5625 10.031 0.12447 0.50186 0.2182 0.99539 0.34375 1.4688 2.8332 1.0575 6.605 1.7589 11.281 1.75 0.642-1.665 0.412-3.801-0.157-6.094-0.994-4.01-4.288-7.479-7.312-7.25z" fill="url(#radialGradient2897)" fill-rule="evenodd"/>
  <path id="path4044" filter="url(#filter4222)" style="color:#000000" fill="#fff" d="m10 27c1.3967-2.5026 3.7739-4.6967 5.25-5.8125-3.75 1.187-4.688 4.187-5.25 5.812z"/>
  <path id="path2872" fill-rule="evenodd" fill="url(#linearGradient3109)" d="m29.062 9.7812c-1.996-0.3369-3.062 0.2188-5.062 0.2188-11.906 3.969-11.247 14.54-12.156 23.656-2.8208-1.444-4.2815-3.264-4.2815-4.844 0 5.509 6.2215 14.315 17.906 14.188 12.601-0.137 17.716-8.94 17.532-14 0 3.268-4.931 7.113-17.531 7.25-4.212 0.046-7.712-0.495-10.469-1.344 0.581-10.556 1.165-21.626 15-24.906-0.259-0.1352-0.576-0.1934-0.938-0.2188z"/>
  <path id="path4007" style="color:#000000" fill="url(#radialGradient4009)" d="m23.688 7.9046c-4.688 2.0954-9.567-3.6982-13.688-1.9046-1.7722 3.7433-0.69836 7.7861 2 12 5.8723 2.8366 6-5 13-6l-1.312-4.0954z"/>
  <path id="path4011" style="color:#000000" fill="url(#radialGradient4013)" d="m27 8c6-2 6.0308-4.6457 9.6627-4.9649 4.0824 2.9548 1.5636 6.664 1.6295 9.4233-3.292 1.542-5.292-2.458-11.203-1.079l-0.089-3.379z"/>
  <path id="path4003" fill-rule="evenodd" fill="url(#radialGradient4005)" transform="translate(-1,-3)" d="m31 13a4 3 0 1 1 -8 0 4 3 0 1 1 8 0z"/>
  <path id="path4019" d="m36.75 22.281c-1.9105 0.2131-3.5701 1.783-5.125 3.8125-2.4506 3.1986-3.0058 7.9077-0.71875 9.8125 4.1234-0.48773 7.0803-1.4656 9.0312-2.6562 0.01292-0.0079 0.01841-0.02334 0.03125-0.03125 0.12344-0.14424 0.25958-0.28685 0.375-0.4375 2.4879-3.2473 4.5423-5.8345 0.125-9.2188-1.362-1.043-2.573-1.409-3.719-1.281z" fill="url(#radialGradient4021)" fill-rule="evenodd"/>
  <path id="path4036" filter="url(#filter4218)" style="color:#000000" fill="#fff" d="m21 24c-3.4792 0.47917-5.5833 4.0833-5 8 0.66872-3.3795 2.0078-6.2802 5-8z"/>
  <path id="path4038" filter="url(#filter4214)" style="color:#000000" fill="#fff" d="m19.938 23.875c2.023-1.788 4.372-3.087 7.062-3.875-0.75154-0.5625-6.19 0.75-7.0625 3.875z"/>
  <path id="path4040" filter="url(#filter4210)" style="color:#000000" fill="#fff" d="m25.25 26.5 1.375 2.1875c-0.799-3.192 2.106-4.531 3.375-6.688-1.8511 1.0005-3.4444 2.0279-4.75 4.5z"/>
  <path id="path4042" filter="url(#filter4206)" style="color:#000000" fill="#fff" d="m32.438 26.062c1.985-1.344 3.785-2.984 6.562-3.062-2.3125-0.89583-5 0-6.5625 3.0625z"/>
  <path id="path4226" style="color:#000000" d="m8.1875 31.25c3.4307 3.4963 5.1848 3.1606 7.5625 4.25-2.709-0.071-2.48 2.261-1.75 3.5-2.129-1.539-4.1535-3.392-5.8125-7.75z" fill-opacity=".32589" filter="url(#filter4238)" fill="#fff"/>
  <path id="path4228" style="color:#000000" d="m12.125 33.75 0.8125-8.0625c0.22911 2.8542-0.76278 6.0572 0.6875 8.5625l-1.5-0.5z" fill-opacity=".32589" filter="url(#filter4242)" fill="#fff"/>
  <path id="path4248" style="color:#000000" d="m9.5625 10.75c0.085621-1.603 0.21065-3.1863 0.625-4.625 2.8464-0.45135 4.9849 0.69022 7.1875 1.6875-4.104-0.6463-6.528 0.2873-7.8125 2.9375z" fill-opacity=".78571" filter="url(#filter4268)" fill="#fff"/>
  <path id="path4250" style="color:#000000" d="m31.688 6.25c1.4967-1.0508 2.4186-2.4848 4.8125-2.9375 1.0833 0.91667 1.75 1.8333 2 2.75-2.392-1.8761-4.5768-0.4367-6.8125 0.1875z" fill-opacity=".78571" filter="url(#filter4272)" fill="#fff"/>
  <metadata>
    <rdf:RDF>
      <cc:Work>
        <dc:format>image/svg+xml</dc:format>
        <dc:type rdf:resource="http://purl.org/dc/dcmitype/StillImage"/>
        <cc:license rdf:resource="http://creativecommons.org/licenses/publicdomain/"/>
        <dc:publisher>
          <cc:Agent rdf:about="http://openclipart.org/">
            <dc:title>Openclipart</dc:title>
          </cc:Agent>
        </dc:publisher>
        <dc:title>Easter Icon</dc:title>
        <dc:date>2010-11-05T11:21:32</dc:date>
        <dc:description>Easter - basket\n\nPart of the "Events" set made for WorldLabel.com</dc:description>
        <dc:source>http://openclipart.org/detail/93973/easter-icon-by-nicubunu</dc:source>
        <dc:creator>
          <cc:Agent>
            <dc:title>nicubunu</dc:title>
          </cc:Agent>
        </dc:creator>
        <dc:subject>
          <rdf:Bag>
            <rdf:li>basket</rdf:li>
            <rdf:li>clip art</rdf:li>
            <rdf:li>clipart</rdf:li>
            <rdf:li>color</rdf:li>
            <rdf:li>easter</rdf:li>
            <rdf:li>eggs</rdf:li>
            <rdf:li>event</rdf:li>
            <rdf:li>events</rdf:li>
            <rdf:li>holiday</rdf:li>
            <rdf:li>holidays</rdf:li>
            <rdf:li>icon</rdf:li>
            <rdf:li>occasion</rdf:li>
            <rdf:li>occasions</rdf:li>
            <rdf:li>worldlabel</rdf:li>
          </rdf:Bag>
        </dc:subject>
      </cc:Work>
      <cc:License rdf:about="http://creativecommons.org/licenses/publicdomain/">
        <cc:permits rdf:resource="http://creativecommons.org/ns#Reproduction"/>
        <cc:permits rdf:resource="http://creativecommons.org/ns#Distribution"/>
        <cc:permits rdf:resource="http://creativecommons.org/ns#DerivativeWorks"/>
      </cc:License>
    </rdf:RDF>
  </metadata>
</svg>
