<?xml version="1.0" encoding="UTF-8" standalone="no"?>
<svg id="svg4136" xmlns:rdf="http://www.w3.org/1999/02/22-rdf-syntax-ns#" xmlns="http://www.w3.org/2000/svg" height="3099" viewBox="0 0 3078 3099" width="3078" version="1.1" xmlns:cc="http://creativecommons.org/ns#" xmlns:xlink="http://www.w3.org/1999/xlink" xmlns:dc="http://purl.org/dc/elements/1.1/">
<defs id="defs4140">
<linearGradient id="linearGradient4280-808" y2="1549.5" gradientUnits="userSpaceOnUse" y1="1549.5" x2="3078.3" x1="-.26409">
<stop id="stop4206" stop-color="#00f" offset="0"/>
<stop id="stop4208" offset=".5"/>
<stop id="stop4210" stop-color="#00f" offset="1"/>
</linearGradient>
<radialGradient id="radialGradient4194-596" cx="429.46" gradientUnits="userSpaceOnUse" cy="623.26" r="334.1" gradientTransform="matrix(.60729 -.40119 .68643 1.0391 -206.82 152.43)">
<stop id="stop4214" stop-color="#5d00e9" offset="0"/>
<stop id="stop4216" stop-color="#e200e9" offset="1"/>
</radialGradient>
<linearGradient id="linearGradient4226-94" y2="754.57" gradientUnits="userSpaceOnUse" y1="748.72" x2="803.04" x1="1328.1">
<stop id="stop4220" stop-color="#5d00e9" offset="0"/>
<stop id="stop4222" stop-color="#e200e9" offset="1"/>
</linearGradient>
<linearGradient id="linearGradient4250-506" y2="1420.5" gradientUnits="userSpaceOnUse" y1="1432.2" x2="648.05" x1="1404.4">
<stop id="stop4226" stop-color="#5d00e9" offset="0"/>
<stop id="stop4228" stop-color="#e200e9" offset="1"/>
</linearGradient>
<linearGradient id="linearGradient4272-162" y2="1588.1" gradientUnits="userSpaceOnUse" y1="1599.8" x2="985.45" x1="1443.1">
<stop id="stop4232" stop-color="#5d00e9" offset="0"/>
<stop id="stop4234" stop-color="#e200e9" offset="1"/>
</linearGradient>
<linearGradient id="linearGradient4266-391" y2="1641.4" gradientUnits="userSpaceOnUse" y1="1653.1" x2="1068.8" x1="1418.1">
<stop id="stop4238" stop-color="#5d00e9" offset="0"/>
<stop id="stop4240" stop-color="#e200e9" offset="1"/>
</linearGradient>
<linearGradient id="linearGradient4270-713" y2="1488.4" gradientUnits="userSpaceOnUse" y1="1488.4" x2="2102.4" x1="1636.1">
<stop id="stop4244" stop-color="#5d00e9" offset="0"/>
<stop id="stop4246" stop-color="#e200e9" offset="1"/>
</linearGradient>
<linearGradient id="linearGradient4242-637" y2="1338.5" gradientUnits="userSpaceOnUse" y1="1338.5" x2="2439.9" x1="1653.6">
<stop id="stop4250" stop-color="#5d00e9" offset="0"/>
<stop id="stop4252" stop-color="#e200e9" offset="1"/>
</linearGradient>
<linearGradient id="linearGradient4268-171" y2="1647.1" gradientUnits="userSpaceOnUse" y1="1647.1" x2="2010.3" x1="1653.3">
<stop id="stop4256" stop-color="#5d00e9" offset="0"/>
<stop id="stop4258" stop-color="#e200e9" offset="1"/>
</linearGradient>
<linearGradient id="linearGradient4234-19" y2="837.59" gradientUnits="userSpaceOnUse" y1="837.59" x2="2288.4" x1="1707.4">
<stop id="stop4262" stop-color="#5d00e9" offset="0"/>
<stop id="stop4264" stop-color="#e200e9" offset="1"/>
</linearGradient>
<radialGradient id="radialGradient4202-550" cx="2650.1" gradientUnits="userSpaceOnUse" cy="626.83" r="334.12" gradientTransform="matrix(.60828 .37144 -.63955 1.0473 1379.3 -1013.2)">
<stop id="stop4268" stop-color="#5d00e9" offset="0"/>
<stop id="stop4270" stop-color="#e200e9" offset="1"/>
</radialGradient>
<linearGradient id="linearGradient4258-582" y2="2290" gradientUnits="userSpaceOnUse" y1="1752" x2="2301.1" x1="1701.8">
<stop id="stop4274" stop-color="#5d00e9" offset="0"/>
<stop id="stop4277" stop-color="#e200e9" offset="1"/>
</linearGradient>
<linearGradient id="linearGradient4260-293" y2="2353.4" gradientUnits="userSpaceOnUse" y1="1780.4" x2="1857.7" x1="1698.5">
<stop id="stop4281" stop-color="#5d00e9" offset="0"/>
<stop id="stop4283" stop-color="#e200e9" offset="1"/>
</linearGradient>
<radialGradient id="radialGradient4210-900" cx="2298.4" gradientUnits="userSpaceOnUse" cy="2672.9" r="165.9" gradientTransform="matrix(-.65783 .25013 -.52885 -1.3908 5222.1 5756.2)">
<stop id="stop4287" stop-color="#5d00e9" offset="0"/>
<stop id="stop4289" stop-color="#e200e9" offset="1"/>
</radialGradient>
<radialGradient id="radialGradient4218-278" cx="787.13" gradientUnits="userSpaceOnUse" cy="2638.8" r="165.1" gradientTransform="matrix(-.61227 -.33862 .69352 -1.254 -561.02 6183)">
<stop id="stop4293" stop-color="#5d00e9" offset="0"/>
<stop id="stop4295" stop-color="#e200e9" offset="1"/>
</radialGradient>
<linearGradient id="linearGradient4262-343" y2="2307.2" gradientUnits="userSpaceOnUse" y1="1810.2" x2="1221.2" x1="1383.3">
<stop id="stop4299" stop-color="#5d00e9" offset="0"/>
<stop id="stop4301" stop-color="#e200e9" offset="1"/>
</linearGradient>
<linearGradient id="linearGradient4264-59" y2="2295.7" gradientUnits="userSpaceOnUse" y1="1746" x2="798.17" x1="1344.3">
<stop id="stop4305" stop-color="#5d00e9" offset="0"/>
<stop id="stop4307" stop-color="#e200e9" offset="1"/>
</linearGradient>
</defs>
<g>
<path id="path4146" d="m550.59 3097.8c-1.1556-4.1466-19.722-149.74-20.563-161.25-3.5961-49.232-9.3084-119.87-10.998-136-13.051-124.61 5.4372-303.54 49.598-480 60.977-243.66 161.01-391.08 328.73-484.47 47.198-26.28 67.101-34.006 127.65-49.547 27.225-6.9882 54.225-13.972 60-15.52l10.5-2.8139-15.5-0.081c-611.02-3.3-1032.3-686.8-1079.6-1751.8l-0.66409-15.077 14.382-0.65778c24.793-1.1342 81.31-0.21051 108.88 1.7794 3.575 0.25802 10.55 0.73173 15.5 1.0527 325.17 21.085 611.82 161.62 850.56 417 200.4 214.38 400.86 603.05 469.04 909.47 2.9081 13.068 3.4504 14.827 4.3019 13.95 0.2226-0.2292 7.0078-28.542 15.078-62.917l14.674-62.5-0.4917-15.5c-0.3876-12.222-1.1499-18.567-3.6042-30-11.449-53.334-7.6831-74.629 19.332-109.31l7.893-10.134-0.6803-21.026c-7.7-238.51-59.9-410.05-155.2-510.42-25.6-26.93-33.7-32.17-108.2-69.78-93.7-47.28-119.4-63.06-137.7-84.3-11.36-13.249-11.912-18.004-2.9466-25.399 36.726-30.293 85.4-18.408 149.4 36.479 123.06 105.54 197.96 242.09 239.39 436.42 13.334 62.537 15.557 81.726 19.636 169.5 1.2283 26.424 3.9322 64.284 4.6423 65 0.7013 0.707 30.358 0.7622 30.794 0.057 0.6088-0.9851 3.4052-41.347 4.5073-65.057 4.0799-87.774 6.3028-106.96 19.636-169.5 41.434-194.33 116.34-330.88 239.39-436.42 63.999-54.887 112.67-66.772 149.4-36.479 8.9652 7.3949 8.4136 12.15-2.9466 25.399-18.21 21.238-43.971 37.016-137.64 84.301-74.504 37.609-82.629 42.849-108.21 69.779-95.331 100.37-147.49 271.91-155.21 510.45l-0.6803 21.026 7.893 10.134c27.015 34.686 30.781 55.981 19.332 109.31-2.4543 11.433-3.2166 17.778-3.6042 30l-0.4917 15.5 14.674 62.5c8.0704 34.375 14.856 62.688 15.078 62.917 0.8515 0.8765 1.3938-0.8821 4.3019-13.95 51.08-229.54 193.15-542.64 340.52-750.47 247.8-349.3 590.3-550.78 979.2-576 4.95-0.32097 11.925-0.79469 15.5-1.0527 27.572-1.9899 84.089-2.9135 108.88-1.7794l14.382 0.6579-0.6705 15.088c-47.3 1065-468.6 1748.5-1079.6 1751.7l-15.5 0.081 10.5 2.8139c5.775 1.5477 32.775 8.5317 60 15.52 60.546 15.541 80.449 23.267 127.65 49.547 167.72 93.386 267.75 240.81 328.73 484.47 44.161 176.46 62.649 355.39 49.598 480-1.6963 16.196-7.4013 86.714-11.043 136.5-0.5834 7.975-5.3059 46.293-10.494 85.152-5.1887 38.858-9.4339 71.794-9.4339 73.191 0 4.8091-3.1024 4.015-37.5-9.5984-270.79-107.17-499.59-360.4-686.01-759.24-72.731-155.61-124.17-300.67-194.05-547.25-2.4959-8.807-3.0373-5.9513-1.8008 9.5 12.034 150.38-3.8523 296.94-51.29 473.22-8.5057 31.606-15.981 59.394-16.611 61.75-1.4366 5.3712-2.0252 5.3712-3.4618 0-0.6301-2.356-8.105-30.144-16.611-61.75-47.437-176.27-63.323-322.84-51.29-473.22 1.2365-15.451 0.6951-18.307-1.8008-9.5-77.386 273.05-132.97 424.72-221.09 603.25-186.35 377.55-423.74 624.35-686.41 713.63-9.821 3.3382-9.0317 3.2034-9.4736 1.618zm88.018-161.59c153.26-81.893 222.25-141.56 267.93-231.73 57.835-114.15-13.012-262-131.07-273.53l-11.424-1.1154-6.6791 4.7661c-86.216 61.523-130.85 182.87-142.33 386.94-2.4162 42.97-4.1986 128.5-2.6778 128.5 0.19642 0 12.009-6.2262 26.25-13.836zm1827.4-14.4c-0.057-260.06-46.852-416.9-145.35-487.19l-6.6791-4.7661-11.424 1.1154c-63.089 6.1604-121.69 58.684-143.93 129.01-35.664 112.76 39.597 234.55 206.89 334.82 24.771 14.846 97.001 54.783 99.75 55.153 0.4125 0.056 0.7472-12.612 0.7438-28.149zm-1461.9-255.9c84.821-46.008 148.96-146.45 173.31-271.4 5.5413-28.436 5.8933-32.29 5.2511-57.5-0.3292-12.925-1.7851-68.5-3.2353-123.5-3.0434-115.42-3.8586-100.84 7.944-142.16 6.7602-23.668 9.4953-35.342 8.2804-35.342-0.9803 0-41.607 59-47.857 69.5-54.847 92.144-81.389 178.25-94.79 307.5-7.4249 71.613-9.2331 87.732-12.059 107.5-8.1521 57.022-19.635 96.752-39.091 135.25-4.2388 8.3875-7.583 15.25-7.4316 15.25 0.15143 0 4.5053-2.2944 9.6753-5.0988zm1072-10.1c-19.456-38.498-30.939-78.228-39.091-135.25-2.8262-19.768-4.6344-35.887-12.059-107.5-13.401-129.25-39.943-215.36-94.79-307.5-6.25-10.5-46.876-69.5-47.857-69.5-1.2149 0 1.5202 11.674 8.2804 35.342 11.803 41.323 10.987 26.734 7.944 142.16-1.4502 55-2.9061 110.58-3.2353 123.5-0.489 19.196-0.2949 25.423 1.0596 34 21.64 137.03 86.069 244.27 177.1 294.8 4.95 2.7476 9.3039 5.0406 9.6754 5.0955 0.3714 0.055-2.7928-6.7626-7.0316-15.15zm-854.14-299.97c34.448-39.799 70.417-121.05 91.978-207.78 12.628-50.794 15.856-75.379 19.498-148.5 5.1304-103 15.787-155.43 42.274-208.02 11.679-23.186 11.777-23.108-6.8426-5.4829-135.91 128.65-160.77 194.45-146.42 387.5 7.0919 95.409 6.4169 133.43-3.0451 171.5-1.2986 5.225-3.0563 11.469-3.906 13.876-2.526 7.1547-2.3233 7.0576 6.4634-3.0939zm640.46 3.1242c-0.8556-2.4233-2.6181-8.681-3.9167-13.906-9.462-38.071-10.137-76.091-3.0451-171.5 14.35-193.05-10.513-258.85-146.42-387.5-18.619-17.626-18.522-17.704-6.8426 5.4829 26.487 52.584 37.144 105.02 42.274 208.02 3.6423 73.121 6.8702 97.706 19.498 148.5 21.575 86.787 57.527 167.98 92.031 207.84 7.9204 9.1507 8.7021 9.5236 6.4211 3.063zm-1080.1-45.5c122.88-36.233 236.17-114.05 309.85-212.84 12.486-16.741 15.44-21.238 41.526-63.226 122.64-197.4 196.69-279.91 265.96-296.33 2.8875-0.6843 5.25-1.6494 5.25-2.1445 0-1.618-71.639-1.1133-80.64 0.568-4.3233 0.8076-27.21 4.8393-50.86 8.9593-109.85 19.137-211.7 76.428-261.21 146.94-22.962 32.698-38.134 64.182-72.591 150.63-52.766 132.39-81.393 179.83-151.6 251.25-10.678 10.862-19.047 19.75-18.597 19.75 0.44987 0 6.2585-1.6042 12.908-3.5649zm1507.5-16.2c-70.205-71.418-98.832-118.86-151.6-251.25-64.348-161.45-99.391-204.58-209.57-257.96-47.639-23.08-69.678-30.107-124.24-39.612-23.65-4.12-46.537-8.1517-50.86-8.9593-9.0008-1.6813-80.64-2.186-80.64-0.568 0 0.4951 2.3625 1.4602 5.25 2.1445 69.27 16.418 143.33 98.931 265.96 296.33 26.086 41.988 29.04 46.486 41.526 63.226 68.014 91.19 170.42 165.11 282.76 204.12 14.338 4.9778 37.203 12.054 39.408 12.196 0.7745 0.05-7.3285-8.7969-18.006-19.659zm-872.99-597.5c-24.632-62.739-88.517-104.46-164.41-107.38l-15-0.5763-7.8225 3.6661c-29.669 13.905-65.276 20.978-105.68 20.993-25.058 0.01-28.02-0.2483-46.884-4.072-2.6563-0.5385-3.2863-0.3845-2.9297 0.7158 0.5067 1.5633 0.2611 1.4027 21.814 14.265 8.525 5.0876 23.508 14.318 33.296 20.513 55.315 35.007 74.864 39.399 173.2 38.915 60.828-0.2997 64.661-0.1178 82 3.8899 9.5763 2.2136 20.902 6.6366 27.5 10.74 7.2175 4.4884 7.3148 4.4553 4.9096-1.6707zm248.19 2.0952c6.7549-4.1564 17.372-8.4234 26.79-10.767 17.346-4.3168 22.756-4.5922 84.112-4.2828 97.728 0.4929 117.45-3.9519 172.7-38.919 9.7879-6.1945 24.771-15.425 33.296-20.513 21.552-12.862 21.307-12.702 21.814-14.265 0.3566-1.1003-0.2734-1.2543-2.9297-0.7158-18.864 3.8237-21.826 4.081-46.884 4.072-40.401-0.015-76.008-7.088-105.68-20.993l-7.8225-3.6661-15 0.5763c-75.893 2.9159-139.78 44.64-164.41 107.38-2.4273 6.1823-2.5399 6.1234 4.0068 2.0952zm-705.39-14.178c2.8261-0.7331 6.3638-2.1358 7.8615-3.1171l2.7231-1.7843-12.394-4.7769c-129.91-50.073-195.77-184.6-168.31-343.79 1.3948-8.0851 2.8035-16.222 3.1305-18.083l0.59454-3.3829 1.3338 2.5457c0.73361 1.4001 5.5936 15.119 10.8 30.487 16.587 48.959 25.971 67.906 40.439 81.642 3.7241 3.5358 3.7624 3.4504 4.5423-10.133 6.1291-106.74 57.669-203.1 134.32-251.11 10.979-6.8774 10.888-7.0002 5.6498 7.589-19.421 54.095-20.777 59.411-20.842 81.75-0.0305 10.407 0.43046 17.858 1.3187 21.316l1.3655 5.3158 2.1345-1.9144c1.174-1.0529 5.7345-4.0275 10.134-6.6103 4.4-2.5827 14.3-9.2306 22-14.773 32.926-23.7 48.061-32.507 67.597-39.333 99.359-34.716 198.37 13.261 279 135.19 12.147 18.368 17.083 28.022 46.431 90.807 19.3 41.289 19.996 42.693 19.094 38.498-0.2955-1.3739-2.1785-10.82-4.1844-20.99-55.43-281.04-230.85-461.99-459.63-474.1l-21.315-1.1285-12 4.0807c-7.9658 2.7089-17.379 4.9434-28 6.6467-47.269 7.5807-48.518 7.9051-67.878 17.622-96.481 48.425-154.68 137.44-175.09 267.79-21.946 140.21 37.77 281.24 150.96 356.53 46.046 30.627 127.94 55.07 158.2 47.22zm1195.7-0.651c181.17-30.972 302.23-210.34 272.06-403.1-20.401-130.34-78.604-219.36-175.09-267.79-19.36-9.7172-20.61-10.042-67.878-17.622-10.621-1.7034-20.034-3.9379-28-6.6467l-12-4.0807-21.315 1.1285c-228.78 12.113-404.2 193.06-459.63 474.1-2.0059 10.171-3.8889 19.616-4.1844 20.99-0.9021 4.1949-0.2056 2.7906 19.094-38.498 29.348-62.785 34.284-72.44 46.431-90.807 80.633-121.93 179.65-169.91 279-135.19 19.536 6.8256 34.671 15.632 67.597 39.333 7.7 5.5426 17.6 12.19 22 14.773 4.4 2.5828 8.9605 5.5574 10.134 6.6103l2.1345 1.9144 1.3655-5.3158c0.8882-3.4577 1.3491-10.908 1.3187-21.316-0.065-22.339-1.4208-27.655-20.842-81.75-5.2379-14.589-5.3294-14.466 5.6497-7.589 76.65 48.014 128.19 144.37 134.32 251.11 0.7799 13.583 0.8182 13.669 4.5423 10.133 14.467-13.736 23.852-32.682 40.439-81.642 5.2064-15.368 10.066-29.087 10.8-30.487l1.3339-2.5457 0.5945 3.3829c0.327 1.8606 1.7358 9.998 3.1305 18.083 27.461 159.18-38.404 293.72-168.31 343.79l-12.394 4.7769 2.7422 1.7968c7.2959 4.7805 25.521 5.7752 44.951 2.4536zm-723.82-29.099c-35.227-128.37-123.35-260.63-210.52-315.96-40.364-25.62-89.627-38.992-110.72-30.054-3.7701 1.5975-15.855 5.691-26.855 9.0967-41.614 12.884-59.407 26.956-78.984 62.468-49.345 89.508-10.055 182.34 75.866 179.25 18.904-0.6797 25.928-2.362 65.618-15.716 57.73-19.423 79.265-21.915 113-13.076 51.357 13.457 82.424 35.267 137.57 96.575 19.676 21.874 37.55 40.711 38.105 40.157 0.1772-0.1772-1.2112-5.91-3.0854-12.74zm249.8-27.3c55.109-61.286 86.206-83.117 137.57-96.575 33.735-8.8397 55.27-6.3479 113 13.076 39.689 13.354 46.714 15.036 65.618 15.716 85.922 3.0894 125.21-89.739 75.866-179.25-19.578-35.512-37.37-49.584-78.984-62.468-11-3.4057-23.085-7.4992-26.855-9.0967-21.092-8.9374-70.355 4.4346-110.72 30.054-90.297 57.312-179.39 193.95-213.58 327.54-0.6957 2.7192 15.294-13.655 38.085-39zm-1051.8-72.7c-0.77356-1.7875-3.0738-6.85-5.1118-11.25-57.548-124.25-48.854-272.59 25.039-427.2 9.5507-19.983 9.7732-19.428-4.7974-11.961-81.218 41.621-192.99 21.797-360.61-63.956-36.764-18.809-38.963-23.696 29.976 66.615 35.955 47.102 47.88 68.167 90.855 160.5 83.144 178.64 131.35 244.01 208.86 283.24 16.607 8.4057 17.816 8.7127 15.78 4.0083zm1834.5-4.0083c77.514-39.233 125.72-104.61 208.86-283.24 42.976-92.333 54.9-113.4 90.855-160.5 68.939-90.311 66.74-85.424 29.976-66.615-167.61 85.753-279.39 105.58-360.61 63.956-14.571-7.4669-14.348-8.0217-4.7974 11.961 73.893 154.61 82.587 302.95 25.039 427.2-8.2248 17.758-9.0296 17.212 10.668 7.2417zm-1102.1-330.6c-0.01-22.592-3.0347-54.05-7.6256-79.25-6.1014-33.492-12.84-57.923-32.548-118-3.8792-11.825-9.2304-28.642-11.892-37.371-2.6612-8.7289-5.0475-16.08-5.3029-16.335-0.2554-0.25542-2.81 6.7953-5.6769 15.668-5.6922 17.618-14.921 34.459-14.954 27.288-0.3307-72.588-43.281-175.05-96.456-230.11-11.067-11.459-10.972-11.808-4.1697 15.465 8.7976 35.27 12.624 58.185 12.627 75.615 0 10.191-2.0307 7.909-7.4365-8.3475-26.804-80.608-94.565-178.27-144.86-208.79-5.3033-3.218-5.3131-2.8616-0.305 11.038 9.4274 26.166 13.401 40.448 16.566 59.539 1.8431 11.119 4.4262 39.293 3.6717 40.047-1.2085 1.2085-3.5201-1.5272-5.0612-5.9898-15.542-45.004-55.353-84.586-112.91-112.27-18.596-8.9422-17.95-10.702-5.793 15.781 13.638 29.711 23.375 57.866 20.877 60.364-0.79432 0.79433-37.034-36.862-49.862-51.812-72.651-84.665-96.014-144.81-87.454-225.14 2.1073-19.774 1.8984-19.925-3.8154-2.7546-37.439 112.51-27.023 226.35 28.464 311.11 34.863 53.258 79.995 91.458 188.64 159.67 13.867 8.7064 37.717 23.683 53 33.282 170 106.77 246.3 185.46 269.35 277.8 2.05 8.2107 2.933 6.2508 2.9286-6.5zm356.94 6.5c23.053-92.334 99.354-171.03 269.35-277.8 15.283-9.5987 39.133-24.576 53-33.282 108.65-68.213 153.78-106.41 188.64-159.67 55.487-84.764 65.903-198.6 28.464-311.11-5.7138-17.171-5.9227-17.02-3.8154 2.7546 8.5605 80.33-14.803 140.48-87.454 225.14-12.829 14.95-49.068 52.607-49.862 51.812-2.4982-2.4982 7.2394-30.654 20.877-60.364 12.157-26.484 12.803-24.724-5.793-15.781-57.56 27.679-97.371 67.262-112.91 112.27-1.5411 4.4626-3.8527 7.1983-5.0612 5.9898-0.7545-0.75446 1.8286-28.928 3.6717-40.047 3.1644-19.091 7.1382-33.373 16.566-59.539 5.0081-13.9 4.9983-14.257-0.305-11.038-50.3 30.522-118.06 128.18-144.86 208.79-12.996 39.082-9.26-9.3321 5.1909-67.268 6.8028-27.273 6.897-26.924-4.1697-15.465-53.175 55.059-96.125 157.52-96.456 230.11-0.033 7.171-9.2618-9.67-14.954-27.288-2.8669-8.873-5.4215-15.924-5.6769-15.668-0.2554 0.25542-2.6417 7.6062-5.3029 16.335-2.6611 8.7289-8.0123 25.546-11.892 37.371-19.708 60.077-26.447 84.508-32.548 118-7.1421 39.204-11.095 111.38-4.697 85.75zm-1168.2-272.15c147.32-22.13 237.63-174.37 203.27-342.66-52.22-255.73-320.42-455.92-630.35-470.51l-14.883-0.70029 0.67603 6.908c34.28 350.32 141.25 650.23 270.59 758.65 47.173 39.544 110.22 57.387 170.7 48.305zm2028.3 1.39c188.62-17.223 343.65-338.88 389.59-808.35l0.676-6.908-14.883 0.70029c-309.93 14.583-578.13 214.77-630.35 470.51-39.011 191.04 85.83 359.5 254.97 344.05z" fill="url(#linearGradient4280-808)"/>
<path id="path4148" d="m109.66 135.67c-10.954 0.99899-8.9656 13.35-7.7658 20.973 13.693 130.97 36.684 261.23 74.154 387.59 29.468 99.308 67.384 197.34 124.24 284.42 24.126 36.289 52.857 70.201 87.631 96.684 53.409 38.227 123.63 52.417 187.31 35.234 58.9-14.66 110.89-52.67 144.22-103.23 31.4-48.42 48.55-105.78 49.61-163.51 1.74-87.62-30.14-172.71-75.05-246.77-66.89-106.03-168.5-187.56-281.58-240.03-94.74-43.69-198.59-67.59-302.77-71.35zm615.67 711.31c-0.0756 0.23376 0.0937-0.34864 0 0z" fill="url(#radialGradient4194-596)"/>
<path id="path4150" d="m816.37 434.91c-28.326 72.494-33.169 153.54-17.15 229.5 13.707 64.162 51.209 121.19 99.592 164.73 53.433 48.792 116.82 84.674 177.34 123.7 52.703 33.268 105.76 66.723 152.86 106.92 37.57 31.523 72.093 67.787 96.973 110.29 12.396 20.726 20.119 43.376 27.292 66.394 4.1213 8.9896 18.427 4.1838 16.816-5.4446-0.2858-55.226-9.6203-110.14-26.537-162.68-10.378-32.146-19.707-64.593-31.267-96.304-4.1579-8.3755-16.57-4.5714-17.653 3.9971-1.8412 4.3604-3.2961 11.159-4.9992 14.127-8.5554-67.239-35.539-131.99-75.879-186.34-9.845-11.3-18.635-24.227-30.915-32.973-9.2314-3.6248-14.935 7.751-11.061 15.252 3.2342 14.279 7.0837 28.433 9.8472 42.629-22.309-47.785-49.836-93.788-85.364-132.96-15.938-15.964-31.182-33.642-50.897-44.996-8.9108-4.17-16.277 6.7624-11.769 14.496 7.0265 21.909 15.088 43.988 18.35 66.599-25.359-43.05-68.722-72.097-113.33-92.358-8.6557-4.8118-18.058 5.5193-12.976 13.838 5.8343 16.667 14.417 32.225 20.414 48.807-40.661-42.891-80.205-89.277-102.37-144.76-11.011-27.214-14.455-56.596-13.413-86.261-0.8152-12.137 2.9614-24.014 0.32548-35.814-3.9189-4.6956-10.034-4.8835-14.227-0.38829z" fill="url(#linearGradient4226-94)"/>
<path id="path4152" d="m941.28 980.39c-19.862 0.87101-38.215 9.6677-57.98 11.804-23.841 3.2957-47.884 8.1784-68.747 20.819-67.433 34.776-118.17 96.947-144.83 167.4-35.578 92.545-44.064 198.49-8.2639 292.33 11.967 31.269 27.708 61.271 46.872 88.702 35.596 47.655 81.817 88.951 137.74 110.93 32.808 12.901 67.34 24.851 103 24.5 9.5833-1.4273 24.258-0.7232 27.594-12.103 0.0756-11.882-14.72-12.717-22.821-17.162-66.096-25.96-118.44-83.091-142.49-148.86-13.334-35.529-20.286-73.043-19.303-110.61 0.18939-21.893 0.26151-43.575 4.1477-65.081 11.492 31.504 20.369 66.288 44.696 90.754 8.0453 6.2838 17.704-2.6198 17.139-11.366 3.7842-63.871 22.448-128.03 59.421-180.72 17.575-23.883 38.42-45.577 62.581-62.858-10.954 29.021-20.923 59.516-17.895 90.989-0.71919 8.5068 3.6853 22.008 14.706 18.291 29.084-17.908 55.513-40.389 86.3-55.488 52.221-24.473 115.61-20.129 165.14 8.8421 53.198 30.238 94.24 78.143 125.55 130.16 21.397 36.202 35.976 75.936 56.141 112.72 6.3075 7.9494 18.764-0.581 15.083-9.5131-12.734-67.316-32.9-133.44-62.092-195.48-30.368-64.358-70.023-125.06-122.25-173.85-74.376-72.806-175.1-117.52-278.94-124.25-6.8177-0.52884-13.652-1.0168-20.495-0.88694z" fill="url(#linearGradient4250-506)"/>
<path id="path4154" d="m1115.3 1301.9c-35.816 12.791-77.373 21.376-101.68 53.458-25.526 33.372-41.295 75.716-37.704 118.11 1.4508 47.236 39.287 92.777 87.599 96.358 25.12 2.917 49.879-3.3059 73.396-11.598 35.594-10.733 72.62-27.498 110.53-18.647 38.539 7.1973 73.79 26.962 102.17 53.719 27.939 24.662 49.948 55.291 77.292 80.55 8.8038 6.1389 17.881-5.4348 13.547-13.838-29.288-102.77-81.668-200.17-156.92-276.61-44.664-44.368-102.43-84.692-168.23-81.51z" fill="url(#linearGradient4272-162)"/>
<path id="path4156" d="m1241.4 1584.1c-14.943 1.3822-27.493 10.769-42.164 13.916-23.59 7.3279-47.99 10.978-72.524 9.9475-16.999 0.1324-34.057-0.3103-50.786-3.3294-10.228-0.081-11.595 14.46-2.7009 17.91 33.196 19.09 64.172 42.383 99.404 57.734 43.376 17.31 91.176 13.298 136.87 14.39 31.271 1.3446 64.991-3.6383 93.874 11.258 6.5359 5.6089 20.463 7.4772 22.087-3.6916-1.5947-12.646-10.556-23.213-16.277-34.366-35.554-55.852-103.14-84.189-167.79-83.768z" fill="url(#linearGradient4266-391)"/>
<path id="path4158" d="m259.71 1024.1c-10.281 0.9273-10.019 13.812-4.3511 19.86 35.089 52.581 80.09 98.752 106.86 156.65 31.268 60.922 57.394 124.39 90.941 184.16 31.859 59.419 69.733 118.33 125.96 157.47 15.353 10.295 31.311 20.661 49.067 26.144 9.2217 0.5392 11.851-10.497 7.1462-16.933-21.402-45.589-34.625-93.689-38.678-144.23-6.6914-82.25 9.5526-164.61 40.688-240.48 7.9126-21.051 19.143-40.794 26.5-62.006 1.2695-9.2943-10.585-12.768-16.959-7.5174-47.002 26.369-103.81 26.949-155.48 16.574-80.262-15.044-154.57-53.371-228.06-89.246-1.1852-0.2157-2.4328-0.3702-3.6374-0.4483z" fill="#f0f"/>
</g>
<g>
<path id="path4160" d="m1950.3 1301.7c-59.008 3.1827-111.26 37.666-152.5 77.77-68.114 67.809-116.74 153.46-148.75 243.62-4.6063 14.856-10.8 29.608-12.966 44.985 2.0092 10.181 14.898 8.205 19.537 1.1791 33.206-32.538 61.422-70.375 99.468-97.609 27.915-18.962 61.216-32.421 94.48-34.483 48.055-0.1828 90.885 26.591 137.87 32.682 31.476 3.8165 65.238-5.6825 86.751-29.81 20.207-21.292 30.207-51.347 27.91-80.53 0.6088-40.968-17.552-80.711-43.907-111.37-23.506-26.704-60.32-32.819-91.959-45.104-5.2055-1.2403-10.599-1.4502-15.928-1.3276z" fill="url(#linearGradient4270-713)"/>
<path id="path4162" d="m2136.4 980.4c-80.605 1.9346-160.77 25.357-228.48 69.448-62.468 39.699-114.25 94.821-153.32 157.46-22.985 35.49-41.542 73.83-57.378 112.97-19.424 49.38-34.338 100.79-43.523 153.08-1.5039 10.543 14.383 13.804 17.893 4.0685 25.451-48.585 43.58-101.63 78.581-144.68 18.859-25.933 42.085-48.479 66.333-69.322 36.257-28.783 81.817-48.626 128.5-46.402 31.921-0.2494 63.26 9.5623 89.952 26.89 23.534 13.572 44.784 32.399 69.092 44.858 12.194 1.8253 11.521-14.127 11.848-22.629 1.3003-23.666-3.0328-47.168-11.668-69.181-1.5189-5.4479-5.4663-13.941-5.7587-17.67 68.201 47.434 106.41 128.1 117.94 208.69 3.2445 15.56 1.3376 32.249 6.5609 47.177 10.125 7.9324 17.367-5.5837 23.432-12.237 17.304-23.455 25.169-52.125 35.266-79.068 9.6278 57.068 5.2591 115.97-13.168 170.67-9.1421 23.822-20.572 47.186-35.823 67.712-26.608 35.39-61.377 65.856-102.37 82.764-8.8448 5.5616-21.779 5.874-27.868 15.1-3.6299 11.925 11.336 15.337 20.02 16 30.285 2.8824 60.258-6.3437 88.772-15.523 63.517-22.29 118.65-65.61 158.45-119.58 55.925-76.192 79.618-174.6 66.798-268.07-9.5156-72.062-33.07-144.32-78.711-201.83-31.978-38.94-73.099-71.402-120.21-89.847-28.179-9.1594-58.566-8.8818-86.391-19.466-4.8182-1.2877-9.8261-1.494-14.786-1.379z" fill="url(#linearGradient4242-637)"/>
<path id="path4164" d="m1832.2 1584.1c-62.876 0.9194-127.97 28.831-162.78 82.925-6.17 11.338-15.084 22.648-16.111 35.804 1.652 10.177 13.948 8.3929 20.131 3.6564 14.558-7.2549 30.551-11.128 46.862-10.37 49.16-2.455 98.751 0.1438 147.82-5.4371 50.316-7.8173 90.259-41.906 133.58-65.808 8.0967-2.7664 12.717-15.112 3.3176-19.417-10.276-2.167-20.735 3.2377-31.252 2.5896-43.72 2.153-88.177-3.0045-128.36-22.255-4.2192-1.5395-8.752-1.828-13.205-1.6874z" fill="url(#linearGradient4268-171)"/>
<path id="path4166" d="m2252.9 437.19c-10.892 5.4377-4.8846 19.696-5.1334 29.136 2.6321 29.366-2.8343 59.062-11.617 87.037-3.6443 7.9913-5.756 16.88-10.657 24.507-23.686 46.157-57.095 86.416-93.021 123.51 5.4364-18.477 17.256-34.76 21.173-53.592 0.093-9.9351-12.339-11.448-18.912-6.6066-40.816 19.928-80.532 46.471-105.32 85.443-4.1497 8.2727-3.74 4.4857-2.0286-2.6037 3.871-21.132 11.207-41.337 17.967-61.624 2.6232-9.4589-9.6913-15.452-16.539-9.2761-29.994 19.706-52.93 48.268-74.763 76.324-22.838 31.238-41.726 65.251-57.901 100.36 3.0902-16.917 9.3845-33.412 10.527-50.595-1.0656-10.598-14.944-10.244-19.648-2.4782-46.137 50.172-77.612 113.25-93.082 179.44-2.1609 11.156-4.3294 22.082-5.8919 33.3-4.228-8.1899-3.287-22.919-14.846-24.582-11.534 3.3177-10.065 18.387-14.686 27.546-22.512 70.319-48.041 141.28-49.887 215.93 0.7093 9.5726-5.8519 23.736 5.108 29.733 12.145 2.7208 13.803-12.359 17.144-20.362 15.473-48.579 46.5-90.057 83.177-125.24 55.713-58.112 125.44-99.168 192.38-142.86 46.606-28.266 92.653-57.715 136.47-90.195 46.917-34.757 88.936-78.207 113.27-131.93 42.513-88.275 40.395-192.82 8.5908-284.08-1.7972-4.7093-6.8441-7.8923-11.868-6.2355z" fill="url(#linearGradient4234-19)"/>
</g>
<g>
<path id="path4168" d="m2966.5 135.67c-89.311 3.506-178.03 21.633-261.24 54.355-127.24 50.368-242.88 135.99-317.92 251.51-34.874 56.843-62.962 119.03-73.332 185.33-16.794 93.073 7.6301 195.04 72.202 265.37 30.314 32.398 69.454 56.62 112.6 67.511 35.366 9.9012 73.394 10.409 109.11 2.1438 64.41-15.867 114.83-63.781 154.5-114.7 62.634-81.898 100.77-178.56 131.85-276 22.885-73.964 41.035-149.3 54.853-225.29 12.961-66.358 20.801-133.65 27.977-200.85 0.1065-5.5107-5.0848-10.197-10.604-9.376z" fill="url(#radialGradient4202-550)"/>
<path id="path4170" d="m2816.6 1024.7c-37.997 15.033-73.017 36.531-111.14 51.427-55.05 23.011-112.56 41.5-172.27 43.958-35.599 1.6524-71.14-6.6365-102.91-22.585-7.3777-5.5059-19.694 1.0189-15.592 10.522 18.124 40.157 36.514 80.471 48.108 123.4 12.423 42.67 19.851 87.129 18.986 131.68 0.5517 33.01-0.25 65.922-8.3704 98.279-6.7467 32.729-18.866 63.978-32.66 94.295-3.7329 9.4331 8.4783 16.244 15.854 10.661 51.331-23.002 93.175-63.009 124.51-109.17 38.264-55.665 67.255-116.98 96.475-177.69 16.787-35.525 33.172-71.596 52.176-105.71 10.494-17.785 22.429-35.244 35.106-51.786 20.037-28.03 43.068-54.087 60.896-83.604 3.5907-6.3057-1.8995-14.832-9.1591-13.679zm-88.002 149.89c-0.37 0.2442 0.2221-0.1643 0 0z" fill="#f0f"/>
<path id="path4172" d="m1669.9 1731.8c-8.0087 7.1844 0.5389 16.95 9.1736 17.448 46.5 13.638 79.981 50.622 112.41 84.383 37.742 43.096 70.394 90.424 101.88 138.23 8.4744 14.018 18.034 27.164 26.261 41.327 30.229 48.124 58.993 97.874 99.026 138.77 76.164 81.02 174.88 140.5 281.76 170.91 9.7947 3.1339 17.078-10.432 8.7508-16.785-32.804-34.604-66.584-68.919-91.344-110.03-36.117-59.308-60.135-124.11-86.561-188.03-24.832-57.636-50.46-117.92-98.1-160.78-40.712-37.642-90.569-63.527-141.56-84.308-42.835-16.756-88.816-22.544-133.75-30.74-27.974-1.537-56.205-2.1464-84.103-1.6313-1.2776 0.4105-2.5553 0.821-3.833 1.2316z" fill="url(#linearGradient4258-582)"/>
<path id="path4174" d="m1691 1766.8c-9.81 7.3209 0.1156 18.627 3.2262 26.783 30.378 57.944 37.994 125.25 41.367 189.93 2.5813 55.409 5.8663 111.23 20.379 165.03 19.052 73.166 44.64 146.52 90.103 207.79 4.4702 6.4451 13.389 16.812 21.157 8.5112 5.7084-8.5385-1.816-19.398-2.6067-28.633-8.4545-38.033-4.6757-77.402-4.1827-116 3.5446-71.604 12.813-144.26-0.553-215.39-11.453-57.895-39.06-112.2-78.758-155.84-25.767-28.673-52.779-56.427-81.523-82.081-2.8556-1.9024-5.5653-0.5751-8.608-0.1056z" fill="url(#linearGradient4260-293)"/>
<path id="path4176" d="m1881 2031.7c-11.35 4.9103-3.594 18.093-2.088 26.603 6.8575 24.267 15.486 48.753 13.272 74.403-0.6228 74.582-4.4797 149.15-4.304 223.79 1.6489 38.947 13.092 76.786 25.214 113.58 25.992 76.891 73.04 148.98 141.87 193.8 8.9086 4.2719 17.537 14.203 28.151 11.483 10.724-5.4761 3.3158-17.932-1.0192-25.244-34.974-70.797-39.636-150.37-48.094-227.44-9.2893-93.286-26.845-187.62-70.416-271.56-19.391-41.266-44.844-79.42-72.325-115.67-2.5074-3.2205-6.2276-4.5095-10.258-3.7487z" fill="#f0f"/>
<path id="path4178" d="m2312.7 2421.7c-49.7 2.6839-95.813 29.885-126.03 68.798-31.567 39.682-48.242 91.23-43.518 141.93 2.9571 49.505 27.948 94.94 57.571 133.55 59.163 75.714 142.02 127.72 225.74 172.38 12.455 5.9513 24.124 14.454 37.102 18.855 11.617 1.5933 10.833-12.277 10.385-19.99-0.5187-74.565-2.2374-149.33-13.07-223.23-11.654-82.667-33.524-166.9-83.751-235.08-16.932-21.979-37.27-42.197-60.99-56.465-1.1576-0.1501-2.2041-1.1586-3.4347-0.7446z" fill="url(#radialGradient4210-900)"/>
<path id="path4180" d="m760.79 2422.5c-49.261 32.516-83.967 83.023-105.39 137.35-35.407 90.119-44.257 187.8-49.373 283.68-1.2822 35.52-2.1511 71.276-1.0156 106.7 2.3069 10.953 14.986 6.1537 21.185 1.5034 71.841-38.075 143.83-78.381 204.17-133.53 44.75-42.803 83.885-94.878 99.477-155.7 11.614-53.244 2.2721-111.1-27.498-157-27.619-43.188-73.099-77.224-125.12-82.328-5.5219-0.6294-10.956-2.5008-16.439-0.6716z" fill="url(#radialGradient4218-278)"/>
<path id="path4182" d="m1193.3 2032c-10.972 2.2678-14.372 15.446-21.22 22.931-28.076 40.839-54.408 83.244-73.194 129.23-33.276 77.308-47.707 161.13-55.514 244.48-6.1265 56.538-10.748 112.88-26.492 167.88-7.0987 23.936-17.92 46.493-28.405 69.035-2.1383 9.7509 10.272 13.914 16.968 8.4595 76.335-40.749 127.9-116.41 156.62-196.36 11.882-34.085 22.426-69.038 27.163-104.89 2.6752-65.75-2.1881-131.59-2.6484-197.3 0.041-24.995-1.5646-50.301 0.2452-75.105 4.9316-20.002 13.301-39.449 15.68-59.947-0.3852-4.7152-4.4205-8.5332-9.2018-8.4225z" fill="#f0f"/>
<path id="path4184" d="m1378.8 1767.6c-20.289 15.459-37.63 34.698-55.751 52.656-38.202 39.519-73.795 83.726-91.436 136.54-25.042 66.504-21.873 139.05-17.769 208.75 3.8461 59.574 11.125 120.13-2.5254 179.11-1.8326 7.6543-8.0147 19.838 3.1805 23.294 11.703 0.5507 16.871-12.949 23.88-20.228 35.113-49.237 56.311-106.83 74.06-164.2 16.251-53.095 25.738-108.14 27.84-163.64 3.4362-66.177 6.3508-132.54 29.607-195.18 5.3958-16.716 15.643-31.512 20.833-48.188 0.6615-6.1137-6.2076-11.29-11.92-8.9164z" fill="url(#linearGradient4262-343)"/>
<path id="path4186" d="m1362.2 1730.2c-41.876-0.6224-83.02 8.899-123.75 17.45-45.423 11.455-89.498 29.096-129.81 52.873-40.228 24.53-78.725 54.325-105.24 93.952-34.578 50.124-53.937 108.53-77.292 164.26-17.11 43.686-36.847 86.348-60.014 127.08-16.141 27.656-34.999 53.591-56.715 77.142-13.517 16.364-30.279 30.056-42.901 47.054-4.4097 8.9988 6.9173 16.564 14.748 12.049 123.08-36.058 235.61-110.41 313.88-212.38 38.827-52.544 69.737-110.37 107.07-163.95 35.946-53.608 74.446-106.38 121.93-150.75 23.678-21.612 51.264-39.718 82.546-47.962 10.327-3.8831 4.6814-19.22-5.5817-16.778-12.955-0.012-25.911-0.053-38.866-0.044z" fill="url(#linearGradient4264-59)"/>
</g>
</svg>
