<?xml version="1.0" encoding="UTF-8" standalone="no"?>
<!-- Created with Inkscape (http://www.inkscape.org/) -->
<svg xmlns:rdf="http://www.w3.org/1999/02/22-rdf-syntax-ns#" xmlns="http://www.w3.org/2000/svg" xmlns:cc="http://web.resource.org/cc/" xmlns:dc="http://purl.org/dc/elements/1.1/" xmlns:svg="http://www.w3.org/2000/svg" xmlns:inkscape="http://www.inkscape.org/namespaces/inkscape" xmlns:sodipodi="http://sodipodi.sourceforge.net/DTD/sodipodi-0.dtd" xmlns:ns1="http://sozi.baierouge.fr" xmlns:xlink="http://www.w3.org/1999/xlink" id="svg2" viewBox="0 0 720 720" version="1.1" inkscape:version="0.91 r13725">
  <g id="g4142" transform="matrix(1.2664 0 0 1.2664 -118.82 -109.17)">
    <path id="path3948" style="fill:#ff0000" d="m378.1 121.74c-68.684 0-124.34 55.711-124.34 124.4 0 68.684 55.66 124.34 124.34 124.34-67.64-11.93-112.79-76.43-100.87-144.07 10.65-60.37 63.16-102.79 122.42-102.74-7.0013-1.2234-14.201-1.927-21.552-1.927z"/>
    <path id="path4120" style="fill:#ff8000" d="m421.29 125.52c-67.64-11.93-132.13 33.27-144.05 100.91-11.927 67.641 33.223 132.12 100.86 144.05-64.542-23.491-97.806-94.856-74.315-159.4 20.967-57.606 80.048-90.262 138.4-79.923-6.6825-2.4206-13.65-4.3637-20.89-5.6403z"/>
    <path id="path4122" style="fill:#ffff00" d="m463.17 136.74c-64.542-23.491-135.9 9.8229-159.39 74.365-23.491 64.542 9.7753 135.88 74.317 159.37-59.482-34.342-79.849-110.4-45.507-169.88 30.651-53.09 94.506-74.991 150.17-54.676-6.1606-3.5442-12.685-6.6678-19.594-9.1822z"/>
    <path id="path4124" style="fill:#80ff00" d="m502.47 155.07c-59.482-34.342-135.54-13.925-169.88 45.557-34.342 59.482-13.969 135.52 45.513 169.86-52.615-44.149-59.466-122.59-15.316-175.2 39.405-46.961 106.09-57.441 157.39-27.768-5.4516-4.5602-11.335-8.7693-17.701-12.445z"/>
    <path id="path4126" style="fill:#00ff00" d="m537.99 179.94c-52.615-44.149-131.06-37.25-175.21 15.365-44.149 52.615-37.289 131.03 15.326 175.18-44.149-52.615-37.275-131.05 15.34-175.2 46.961-39.405 114.45-38.145 159.82-0.016063-4.5769-5.4376-9.6398-10.604-15.271-15.33z"/>
    <path id="path4128" style="fill:#00ff80" d="m568.64 210.59c-44.149-52.615-122.6-59.443-175.22-15.294-52.615 44.149-59.476 122.57-15.326 175.18-34.342-59.482-13.952-135.53 45.53-169.87 53.09-30.651 119.34-17.691 157.39 27.736-3.5631-6.1497-7.6519-12.117-12.377-17.749z"/>
    <path id="path4130" style="fill:#00ffff" d="m593.51 246.11c-34.34-59.48-110.42-79.83-169.9-45.49-59.482 34.342-79.855 110.38-45.513 169.86-23.491-64.542 9.7948-135.9 74.337-159.39 57.606-20.967 120.6 3.3008 150.19 54.646-2.4411-6.675-5.4315-13.262-9.1073-19.628z"/>
    <path id="path4132" style="fill:#0080ff" d="m611.84 285.41c-23.49-64.54-94.88-97.79-159.42-74.3-64.55 23.49-97.81 94.83-74.32 159.37-11.93-67.64 33.24-132.13 100.88-144.06 60.371-10.645 118.19 24.192 138.41 79.895-1.2449-6.9975-3.0461-14.003-5.5605-20.912z"/>
    <path id="path4134" style="fill:#0000ff" d="m623.06 327.29c-11.927-67.641-76.457-112.78-144.1-100.85-67.641 11.927-112.79 76.407-100.86 144.05 0-68.684 55.683-124.35 124.37-124.35 61.303-2e-13 112.2 44.349 122.44 102.72-0.010902-7.1074-0.56818-14.32-1.8448-21.56z"/>
    <path id="path4136" style="fill:#8000ff" d="m626.84 370.48c0-68.684-55.711-124.34-124.4-124.34-68.684 9e-14 -124.34 55.66-124.34 124.34 11.927-67.641 76.431-112.79 144.07-100.87 60.371 10.645 102.79 63.158 102.74 122.42 1.2234-7.0013 1.927-14.201 1.927-21.552z"/>
    <path id="path4138" style="fill:#ff00ff" d="m623.06 413.68c11.927-67.641-33.272-132.13-100.91-144.06-67.641-11.927-132.12 33.223-144.05 100.86 23.491-64.542 94.856-97.806 159.4-74.315 57.606 20.967 90.262 80.048 79.923 138.4 2.4206-6.6825 4.3637-13.65 5.6403-20.89z"/>
    <path id="path4140" style="fill:#ff0080" d="m611.84 455.56c23.491-64.542-9.8229-135.9-74.365-159.39-64.542-23.491-135.88 9.7753-159.37 74.317 34.342-59.482 110.4-79.849 169.88-45.507 53.09 30.651 74.991 94.506 54.676 150.17 3.5442-6.1606 6.6678-12.685 9.1822-19.594z"/>
  </g>
  <g id="g4156" transform="matrix(-.63319 1.0967 -1.0967 -.63319 1005.7 179.92)">
    <path id="path4158" style="fill:#ff0000" d="m378.1 121.74c-68.684 0-124.34 55.711-124.34 124.4 0 68.684 55.66 124.34 124.34 124.34-67.64-11.93-112.79-76.43-100.87-144.07 10.65-60.37 63.16-102.79 122.42-102.74-7.0013-1.2234-14.201-1.927-21.552-1.927z"/>
    <path id="path4160" style="fill:#ff8000" d="m421.29 125.52c-67.64-11.93-132.13 33.27-144.05 100.91-11.927 67.641 33.223 132.12 100.86 144.05-64.542-23.491-97.806-94.856-74.315-159.4 20.967-57.606 80.048-90.262 138.4-79.923-6.6825-2.4206-13.65-4.3637-20.89-5.6403z"/>
    <path id="path4162" style="fill:#ffff00" d="m463.17 136.74c-64.542-23.491-135.9 9.8229-159.39 74.365-23.491 64.542 9.7753 135.88 74.317 159.37-59.482-34.342-79.849-110.4-45.507-169.88 30.651-53.09 94.506-74.991 150.17-54.676-6.1606-3.5442-12.685-6.6678-19.594-9.1822z"/>
    <path id="path4164" style="fill:#80ff00" d="m502.47 155.07c-59.482-34.342-135.54-13.925-169.88 45.557-34.342 59.482-13.969 135.52 45.513 169.86-52.615-44.149-59.466-122.59-15.316-175.2 39.405-46.961 106.09-57.441 157.39-27.768-5.4516-4.5602-11.335-8.7693-17.701-12.445z"/>
    <path id="path4166" style="fill:#00ff00" d="m537.99 179.94c-52.615-44.149-131.06-37.25-175.21 15.365-44.149 52.615-37.289 131.03 15.326 175.18-44.149-52.615-37.275-131.05 15.34-175.2 46.961-39.405 114.45-38.145 159.82-0.016063-4.5769-5.4376-9.6398-10.604-15.271-15.33z"/>
    <path id="path4168" style="fill:#00ff80" d="m568.64 210.59c-44.149-52.615-122.6-59.443-175.22-15.294-52.615 44.149-59.476 122.57-15.326 175.18-34.342-59.482-13.952-135.53 45.53-169.87 53.09-30.651 119.34-17.691 157.39 27.736-3.5631-6.1497-7.6519-12.117-12.377-17.749z"/>
    <path id="path4170" style="fill:#00ffff" d="m593.51 246.11c-34.34-59.48-110.42-79.83-169.9-45.49-59.482 34.342-79.855 110.38-45.513 169.86-23.491-64.542 9.7948-135.9 74.337-159.39 57.606-20.967 120.6 3.3008 150.19 54.646-2.4411-6.675-5.4315-13.262-9.1073-19.628z"/>
    <path id="path4172" style="fill:#0080ff" d="m611.84 285.41c-23.49-64.54-94.88-97.79-159.42-74.3-64.55 23.49-97.81 94.83-74.32 159.37-11.93-67.64 33.24-132.13 100.88-144.06 60.371-10.645 118.19 24.192 138.41 79.895-1.2449-6.9975-3.0461-14.003-5.5605-20.912z"/>
    <path id="path4174" style="fill:#0000ff" d="m623.06 327.29c-11.927-67.641-76.457-112.78-144.1-100.85-67.641 11.927-112.79 76.407-100.86 144.05 0-68.684 55.683-124.35 124.37-124.35 61.303-2e-13 112.2 44.349 122.44 102.72-0.010902-7.1074-0.56818-14.32-1.8448-21.56z"/>
    <path id="path4176" style="fill:#8000ff" d="m626.84 370.48c0-68.684-55.711-124.34-124.4-124.34-68.684 9e-14 -124.34 55.66-124.34 124.34 11.927-67.641 76.431-112.79 144.07-100.87 60.371 10.645 102.79 63.158 102.74 122.42 1.2234-7.0013 1.927-14.201 1.927-21.552z"/>
    <path id="path4178" style="fill:#ff00ff" d="m623.06 413.68c11.927-67.641-33.272-132.13-100.91-144.06-67.641-11.927-132.12 33.223-144.05 100.86 23.491-64.542 94.856-97.806 159.4-74.315 57.606 20.967 90.262 80.048 79.923 138.4 2.4206-6.6825 4.3637-13.65 5.6403-20.89z"/>
    <path id="path4180" style="fill:#ff0080" d="m611.84 455.56c23.491-64.542-9.8229-135.9-74.365-159.39-64.542-23.491-135.88 9.7753-159.37 74.317 34.342-59.482 110.4-79.849 169.88-45.507 53.09 30.651 74.991 94.506 54.676 150.17 3.5442-6.1606 6.6678-12.685 9.1822-19.594z"/>
  </g>
  <g id="g4182" transform="matrix(-.63319 -1.0967 1.0967 -.63319 193.09 1009.3)">
    <path id="path4184" style="fill:#ff0000" d="m378.1 121.74c-68.684 0-124.34 55.711-124.34 124.4 0 68.684 55.66 124.34 124.34 124.34-67.64-11.93-112.79-76.43-100.87-144.07 10.65-60.37 63.16-102.79 122.42-102.74-7.0013-1.2234-14.201-1.927-21.552-1.927z"/>
    <path id="path4186" style="fill:#ff8000" d="m421.29 125.52c-67.64-11.93-132.13 33.27-144.05 100.91-11.927 67.641 33.223 132.12 100.86 144.05-64.542-23.491-97.806-94.856-74.315-159.4 20.967-57.606 80.048-90.262 138.4-79.923-6.6825-2.4206-13.65-4.3637-20.89-5.6403z"/>
    <path id="path4188" style="fill:#ffff00" d="m463.17 136.74c-64.542-23.491-135.9 9.8229-159.39 74.365-23.491 64.542 9.7753 135.88 74.317 159.37-59.482-34.342-79.849-110.4-45.507-169.88 30.651-53.09 94.506-74.991 150.17-54.676-6.1606-3.5442-12.685-6.6678-19.594-9.1822z"/>
    <path id="path4190" style="fill:#80ff00" d="m502.47 155.07c-59.482-34.342-135.54-13.925-169.88 45.557-34.342 59.482-13.969 135.52 45.513 169.86-52.615-44.149-59.466-122.59-15.316-175.2 39.405-46.961 106.09-57.441 157.39-27.768-5.4516-4.5602-11.335-8.7693-17.701-12.445z"/>
    <path id="path4192" style="fill:#00ff00" d="m537.99 179.94c-52.615-44.149-131.06-37.25-175.21 15.365-44.149 52.615-37.289 131.03 15.326 175.18-44.149-52.615-37.275-131.05 15.34-175.2 46.961-39.405 114.45-38.145 159.82-0.016063-4.5769-5.4376-9.6398-10.604-15.271-15.33z"/>
    <path id="path4194" style="fill:#00ff80" d="m568.64 210.59c-44.149-52.615-122.6-59.443-175.22-15.294-52.615 44.149-59.476 122.57-15.326 175.18-34.342-59.482-13.952-135.53 45.53-169.87 53.09-30.651 119.34-17.691 157.39 27.736-3.5631-6.1497-7.6519-12.117-12.377-17.749z"/>
    <path id="path4196" style="fill:#00ffff" d="m593.51 246.11c-34.34-59.48-110.42-79.83-169.9-45.49-59.482 34.342-79.855 110.38-45.513 169.86-23.491-64.542 9.7948-135.9 74.337-159.39 57.606-20.967 120.6 3.3008 150.19 54.646-2.4411-6.675-5.4315-13.262-9.1073-19.628z"/>
    <path id="path4198" style="fill:#0080ff" d="m611.84 285.41c-23.49-64.54-94.88-97.79-159.42-74.3-64.55 23.49-97.81 94.83-74.32 159.37-11.93-67.64 33.24-132.13 100.88-144.06 60.371-10.645 118.19 24.192 138.41 79.895-1.2449-6.9975-3.0461-14.003-5.5605-20.912z"/>
    <path id="path4200" style="fill:#0000ff" d="m623.06 327.29c-11.927-67.641-76.457-112.78-144.1-100.85-67.641 11.927-112.79 76.407-100.86 144.05 0-68.684 55.683-124.35 124.37-124.35 61.303-2e-13 112.2 44.349 122.44 102.72-0.010902-7.1074-0.56818-14.32-1.8448-21.56z"/>
    <path id="path4202" style="fill:#8000ff" d="m626.84 370.48c0-68.684-55.711-124.34-124.4-124.34-68.684 9e-14 -124.34 55.66-124.34 124.34 11.927-67.641 76.431-112.79 144.07-100.87 60.371 10.645 102.79 63.158 102.74 122.42 1.2234-7.0013 1.927-14.201 1.927-21.552z"/>
    <path id="path4204" style="fill:#ff00ff" d="m623.06 413.68c11.927-67.641-33.272-132.13-100.91-144.06-67.641-11.927-132.12 33.223-144.05 100.86 23.491-64.542 94.856-97.806 159.4-74.315 57.606 20.967 90.262 80.048 79.923 138.4 2.4206-6.6825 4.3637-13.65 5.6403-20.89z"/>
    <path id="path4206" style="fill:#ff0080" d="m611.84 455.56c23.491-64.542-9.8229-135.9-74.365-159.39-64.542-23.491-135.88 9.7753-159.37 74.317 34.342-59.482 110.4-79.849 169.88-45.507 53.09 30.651 74.991 94.506 54.676 150.17 3.5442-6.1606 6.6678-12.685 9.1822-19.594z"/>
  </g>
  <metadata>
    <rdf:RDF>
      <cc:Work>
        <dc:format>image/svg+xml</dc:format>
        <dc:type rdf:resource="http://purl.org/dc/dcmitype/StillImage"/>
        <cc:license rdf:resource="http://creativecommons.org/licenses/publicdomain/"/>
        <dc:publisher>
          <cc:Agent rdf:about="http://openclipart.org/">
            <dc:title>Openclipart</dc:title>
          </cc:Agent>
        </dc:publisher>
        <dc:title>36 circle swirl 12 color</dc:title>
        <dc:date>2011-07-14T21:08:19</dc:date>
        <dc:description>36 circle swirl 12 color</dc:description>
        <dc:source>https://openclipart.org/detail/149731/36-circle-swirl-12-color-by-10binary</dc:source>
        <dc:creator>
          <cc:Agent>
            <dc:title>10binary</dc:title>
          </cc:Agent>
        </dc:creator>
        <dc:subject>
          <rdf:Bag>
            <rdf:li>12</rdf:li>
            <rdf:li>36</rdf:li>
            <rdf:li>circle</rdf:li>
            <rdf:li>color</rdf:li>
            <rdf:li>swirl</rdf:li>
          </rdf:Bag>
        </dc:subject>
      </cc:Work>
      <cc:License rdf:about="http://creativecommons.org/licenses/publicdomain/">
        <cc:permits rdf:resource="http://creativecommons.org/ns#Reproduction"/>
        <cc:permits rdf:resource="http://creativecommons.org/ns#Distribution"/>
        <cc:permits rdf:resource="http://creativecommons.org/ns#DerivativeWorks"/>
      </cc:License>
    </rdf:RDF>
  </metadata>
</svg>
