<?xml version="1.0" encoding="utf-8"?>
<!-- Generator: Adobe Illustrator 17.0.0, SVG Export Plug-In . SVG Version: 6.00 Build 0)  -->
<!DOCTYPE svg PUBLIC "-//W3C//DTD SVG 1.1//EN" "http://www.w3.org/Graphics/SVG/1.1/DTD/svg11.dtd">
<svg version="1.1"
	 id="svg2" xmlns:rdf="http://www.w3.org/1999/02/22-rdf-syntax-ns#" xmlns:cc="http://creativecommons.org/ns#" xmlns:dc="http://purl.org/dc/elements/1.1/"
	 xmlns="http://www.w3.org/2000/svg" xmlns:xlink="http://www.w3.org/1999/xlink" x="0px" y="0px" width="1584px" height="1303px"
	 viewBox="0 0 1584 1303" enable-background="new 0 0 1584 1303" xml:space="preserve">
<g id="g4173">
	
		<radialGradient id="path4_1_" cx="852.7813" cy="648.1915" r="935.351" gradientTransform="matrix(0.8 0 0 -0.6897 74.245 1098.1575)" gradientUnits="userSpaceOnUse">
		<stop  offset="0" style="stop-color:#000000"/>
		<stop  offset="1" style="stop-color:#FF0000"/>
	</radialGradient>
	<path id="path4" fill="url(#path4_1_)" stroke="#000000" stroke-width="13" stroke-miterlimit="10" d="M614.7,6
		c-4.6,0-9.3,0.2-14,0.6C549.4,9.8,499.6,40.2,477,87c-22.9,48.7-23.9,105.9-7.9,156.9c13.9,41.8,37.6,79.7,65.1,113.9
		c37.7,45.2,75.2,90.6,115.1,133.9c16.4,18.4,26.2,41.2,37,63c4,5.9,8.8-2.2,9.2-6.4c5.2-30.6-7.1-60.6-18.2-88.6
		c-10.7-25.6-24.5-54-14.6-82c16.6-38.8,86-35.2,93.4,8.4c4,29.3,3,59.4,8.4,88.5c1.6,5.4,5.9-0.5,7-3.3
		c10.5-25.9,14.8-53.9,19.6-81.3c2.2-11.8,7.1-23.6,16.4-31.6c18-15,51.5-12,59.9,12.4c8.7,25.7-1.7,53.1-11.5,77
		c-2.3,4.1-4.3,13.6,3,9.1c58.2-43.6,117-87.9,184.2-116.9c20-9.8,40.7-19.5,57.3-34.6c13.4-10.6,9.4-29.2,13.4-43.8
		c5.5-33.5,26.1-62.5,52.5-83c9-43.7-18.8-89.1-59-106.6c-41.4-19.1-87.2-28-132.5-32.5c-67.4-8.5-134.7,27.7-201.5,5.5
		C720,33.4,669.5,6.1,614.7,6L614.7,6z M275.2,181.4c-1.9,0-3.7,0-5.6,0.1c-54.9,5.3-99.7,50.7-120.4,99.6
		c-13.7,42.7-41.9,79.4-76.4,107.6C18.1,429.7,1,504.6,10.8,569.2C23.3,625,80.3,653.4,131,667c91,21.3,187.7,37.3,279.7,12.6
		c54.4-12.4,110.6-13,166.2-11c4.3,0.7,10.1-2.1,5-5.5c-43-25.8-93-37.4-142.2-44.8c-18-3.1-36.4-8.4-50.4-20.5
		c-21.2-18.8-10-60.9,18-65.9c42.9-0.8,76.4,37.1,120,34.8c2.7-1,1.6-3.5,0.1-5.1c-25.5-19-55.9-36.3-69.4-66.5
		c-7.6-17.2,9.6-36.1,26.9-35.2c19,0.5,34.7,13,48.4,24.9c33,30.9,69.7,58.8,111.3,76.8c7.6,2,2.5-7.4-0.8-9.4
		c-44.7-50.1-83.2-105.4-115.9-164C487.1,314,427,250.3,354.2,206.8C329.9,193.5,303.2,181.7,275.2,181.4L275.2,181.4z
		 M1331.8,361.3c-2.2,0-4.2,0.1-6.3,0.2c-4.7,0.7-11.5,0.2-13.5,5.7c-7.3,17.6-17,35.8-33.9,45.8c-23,12.7-50.4,2.8-70.8-10.4
		c-10.2-5.4-18.6-16.6-31.2-15.6c-46.3,1-86.8,27.2-124.1,52c-61.7,43.3-120.7,92-167.8,151.3c-1.5,2.1-8.7,10.2-2.2,10.7
		c42.7-14.9,75.2-49.7,117.1-66c26.7-11.7,52.9,24.7,36.1,47.3c-24,25.2-61.8,29.4-88.6,50.8c1.1,1.4,2.5,3.3,4.6,2.7
		c42.2-4.3,84-13,124.7-25c24.1-6.6,51.1-13.1,75.2-3c18.8,7.9,32.5,35.5,15.5,51.7c-37.6,29.7-89.8,25.8-134.6,22.3
		c-55.4-8.5-112.3-4.5-166.4,9.6c-4.5,1.1-4.6,5.8,0.1,6.9c71.9,21,144.1,42.3,218.1,54.7c47.8,10.9,91.8,33.8,134.3,57.7
		c41.4,23,88.1,38,135.8,39c36.1-1,72.1-11.4,103-30c24.6-14.5,42.7-40,46.5-68.6c5-31.5-5.4-62.4-13.3-92.5
		c-12.2-41.6-24.3-84.6-49.6-120.4c-25.9-27.3-36-65.2-41.5-101.5c-2.1-17.2-4.3-35-14.2-49.7
		C1373.7,369.4,1352.2,361.3,1331.8,361.3z M553.4,688.9c-9.3,0-18.6,0.3-27.9,0.7c-75,3.3-151.5,16.2-218.6,51.4
		c-48,23.9-88.7,60-125.6,98.4c-32.6,35.6-63.2,78-66,127.9c1,53.2,29.6,103.9,71.7,135.7c21.6,17.5,47.1,29,70.9,43.1
		c48.7,27.9,93.1,63.5,130.2,105.8c49.3,47.8,125,48.8,188.9,40.2c44-5.5,89.1-19,122.4-49.6c23.5-22,38.3-52.4,44.1-83.9
		c11.2-56.2,17.5-115.1,4.4-171.6c-10.1-37.9-19.5-76.6-20-116.1c1.2-40.3-8.9-80.1-23.4-117.5c-1.4-3.8-6.4-2.4-7.4,0.9
		c-7.7,16.8-12.3,34.9-14.8,53.2c-3.3,37.9-22.1,74.3-49.4,100.6c-12.7,14.2-42.1,13-46.3-7.9c-5-48.3,27.3-88.1,53.3-125
		c1.6-2.6,10-12.8,2.1-13c-28.7,11.7-52.8,33.2-71,58.1c-12.4,17.2-28.8,34.3-50.8,37.8c-15.4,1.6-35.2-3-41.5-19
		c-9-22.6,1.5-48.6,20.1-63c43.2-34.7,100.1-46.5,145.1-78.3c0.7-4.2-4.3-4-7.2-4.6C609.1,690.3,581.3,688.7,553.4,688.9
		L553.4,688.9z M854.5,736.4c-4.4,1.9,2.2,5.5,4.1,7.1c33.7,20.4,68.2,39.7,104.3,55.6c22.2,10.4,41.3,30.5,45,55.3
		c1.9,9.6-3,20.6-13.3,22.6c-20.2,4.9-40.2-5-56.6-16c-24.3-17-48.8-34.5-76.5-45.4c-5.3-1.4-2.9,4.3-0.6,6.5
		c26.4,27.7,55,56.3,67.4,93.5c6.6,20.6,5.9,49-12.5,63.4c-19.8,10-43.4,0.3-60.6-11.2c-35.2-26.1-58-68.1-61.3-111.7
		c-2.6-31.4-22.7-58.3-46.2-78c-2.7-2.7-6.8-0.1-5.2,3.4c7.8,31.7,17.2,63.8,12.8,96.9c1,45.8,13,90.5,24.8,134.5
		c22.2,67.9,64.9,127,112.9,179.1c57,63.3,145,92.2,228.7,85.8c47-3.9,95.5-8.8,138.3-29.8c22.8-10.6,42.8-30.4,47-55.9
		c10.6-48.6,29.8-94.7,52.2-138.9c18.8-44.7-6.7-93-35.2-127.2c-51.4-61.4-121.8-114.2-203.9-121.1c-48.3-4.1-98.2-7.5-143-28
		C939.3,756,897.2,742.1,854.5,736.4L854.5,736.4z"/>
	
		<linearGradient id="path6_1_" gradientUnits="userSpaceOnUse" x1="753.076" y1="639.269" x2="1470.046" y2="1075.439" gradientTransform="matrix(1 0 0 -1 -5.500000e-02 1302.86)">
		<stop  offset="0" style="stop-color:#7A0000"/>
		<stop  offset="1" style="stop-color:#FFFF00"/>
	</linearGradient>
	<path id="path6" fill="url(#path6_1_)" stroke="#000000" stroke-width="13" stroke-miterlimit="10" d="M1464.5,114.5
		c22.2-3.4,42.3,18.9,37,40.8c-0.5,3.9-4.3,16.2,4.6,12c10.1-22.4,44.8-26.5,60-7.4c15.6,18.1,8.1,52.7-17.1,57.2
		c-4.3,1.6-14.9,0.3-13.8,7.6c3.1,5.9,11.8,3.2,17.2,5.9c23.8,6.7,30.4,40.1,14.9,57.8c-16,18.1-51,13.7-60.1-9.4
		c-1.1-2.9-3.6-5.3-6.8-3.4c-0.1,12.5,2.3,26.3-5.6,37.2c-14.4,20-48.8,17.7-60.8-3.8c-5.8-12.2-4.8-26.8,1.3-38.7
		c3.3-6.5-5.8-6.7-10.1-6.1c-44.7,4.1-88.4,15.3-132.2,24.9c-95.4,20-185.8,62.4-262.4,122.6c-50,40.2-97.4,83.7-142.3,129.6
		c-32.3,32.1-62.2,67-86.3,105.7c-15.9,23.5-31.6,47.9-53.6,66.4c-18.8,16.5-54.1,10.9-62.9-13.9c-6.8-16.5-3-34.9,6.5-49.4
		c18.4-30.8,41.3-59,68.3-82.7c52.3-46.5,109.6-87,166.7-127.4c95.8-67.4,199.8-125.7,313-158c54.4-14.7,110.1-24.6,163.2-43.7
		c2.9-0.5,5.8-4.4,1.6-5.2c-15.2-1.3-31.6-10.6-34.2-26.8c-6.3-20.4,10.2-44.1,31.7-44.3c13.4-2.1,25.1,5.6,33.8,14.9
		c6-2.1-1.1-8.5-1.6-12.4C1424.2,143.3,1440.5,114.8,1464.5,114.5L1464.5,114.5z"/>
	<g>
		<path id="path8" fill="#FF6600" stroke="#000000" stroke-width="13" stroke-miterlimit="10" d="M1278.7,178.5
			c28.5-7.5,51.8,26.8,38.2,51.4c-11.6,26.7-55.2,23.5-64.9-3.1C1243.8,207,1257.2,181.3,1278.7,178.5L1278.7,178.5z"/>
		<path id="path12" fill="#FF6600" stroke="#000000" stroke-width="13" stroke-miterlimit="10" d="M1175.7,216.5
			c17.5-4.2,37.7,6.7,41.2,24.8c6.1,17.5-4.3,40-23.2,43.7c-20.1,7.2-45.7-8.3-45.7-30.3C1145.4,237.2,1158.8,219.8,1175.7,216.5
			L1175.7,216.5z"/>
		<path id="path14" fill="#FF6600" stroke="#000000" stroke-width="13" stroke-miterlimit="10" d="M1354.8,286.5
			c26.1-7.2,49.8,21.3,40.8,46c-6.8,29.5-53.4,32.1-65.5,5.4C1319.4,317.8,1332,290,1354.8,286.5z"/>
		<path id="path16" fill="#FF6600" stroke="#000000" stroke-width="13" stroke-miterlimit="10" d="M1239.8,331.5
			c16.4-4,35,5.5,40.2,21.8c6.8,17.9-2,43-22.2,46.6c-18.6,6.6-41.9-5.7-45.4-25.4C1207.1,355.8,1220.8,334.8,1239.8,331.5z"/>
	</g>
</g>
</svg>
