<?xml version="1.0" encoding="UTF-8" standalone="no"?>
<svg id="svg2" xmlns:rdf="http://www.w3.org/1999/02/22-rdf-syntax-ns#" xmlns="http://www.w3.org/2000/svg" height="361.09mm" width="289.84mm" version="1.1" xmlns:cc="http://creativecommons.org/ns#" xmlns:dc="http://purl.org/dc/elements/1.1/" viewBox="0 0 1026.9837 1279.4472">
<defs id="defs4">
<filter id="filter4287" style="color-interpolation-filters:sRGB" height="1.0315" width="1.1011" y="-.015737" x="-.050538">
<feGaussianBlur id="feGaussianBlur4289" stdDeviation="7.9226561"/>
</filter>
<filter id="filter4466" style="color-interpolation-filters:sRGB" height="1.1922" width="1.1151" y="-.096103" x="-.057563">
<feGaussianBlur id="feGaussianBlur4468" stdDeviation="23.220402"/>
</filter>
<filter id="filter4553" style="color-interpolation-filters:sRGB" height="1.0944" width="1.0977" y="-.047180" x="-.048849">
<feGaussianBlur id="feGaussianBlur4555" stdDeviation="20.903039"/>
</filter>
<filter id="filter4557" style="color-interpolation-filters:sRGB" height="1.1321" width="1.1099" y="-.066067" x="-.054953">
<feGaussianBlur id="feGaussianBlur4559" stdDeviation="23.515106"/>
</filter>
<filter id="filter4619" style="color-interpolation-filters:sRGB" height="1.4519" width="2.008" y="-.22593" x="-.50399">
<feGaussianBlur id="feGaussianBlur4621" stdDeviation="120.16039"/>
</filter>
<clipPath id="clipPath4672" clipPathUnits="userSpaceOnUse">
<path id="path4674" fill="#fcce80" d="m-564.71 1190.9c-22.752-1.6835-47.581-4.7227-61.5-7.5277-2.75-0.5542-8.6-1.7014-13-2.5494-11.926-2.2983-27.742-6.1952-39-9.6087-12.355-3.7463-32.141-10.25-35.5-11.67-1.375-0.581-6.775-2.7-12-4.709-19.066-7.3307-50.42-22.88-68-33.724-14.325-8.8359-36.032-23.594-42.487-28.886-1.1072-0.9076-6.513-5.2195-12.013-9.5819-22.857-18.13-50.961-46.388-70.5-70.889-3.6079-4.524-14.694-19.071-16.032-21.037-0.8077-1.1869-4.2116-6.1369-7.5644-11-54.99-79.761-89.398-187.44-96.132-300.84-1.1762-19.808-0.8484-86.914 0.5154-105.5 13.74-187.26 82.863-364 193.59-495 14.739-17.438 29.042-32.412 46.124-48.286 54.915-51.035 111.19-84.761 172.39-103.31 59.249-17.959 126.01-19.029 184.61-2.957 15.862 4.3507 17.93 5.0148 35.684 11.462 15.936 5.7875 36.601 15.701 61.45 29.478 23.764 13.176 55.178 36.681 87.026 65.115 6.1579 5.4977 37.911 37.938 42.863 43.791 0.5624 0.66469 4.8481 5.7085 9.5239 11.209 106.28 125.01 173.99 295.39 191.16 481 1.7814 19.259 1.7702 108.93-0.016 128-4.3733 46.703-13.505 97.246-23.125 128-20.998 67.126-41.472 110.54-74.74 158.5-39.577 57.05-93.55 108.14-146.32 138.51-1.925 1.1078-6.2 3.5742-9.5 5.4809-22.776 13.16-56.085 28.69-77.5 36.133-22.73 7.9007-41.682 13.374-66.5 19.203-6.6746 1.5678-28.43 5.284-44.5 7.6013-29.675 4.2792-78.157 5.879-109 3.5967z"/>
</clipPath>
</defs>
<g id="layer1" transform="translate(1039.2 87.521)">
<g id="g4661" clip-path="url(#clipPath4672)">
<path id="path4179" d="m-564.71 1190.9c-22.752-1.6835-47.581-4.7227-61.5-7.5277-2.75-0.5542-8.6-1.7014-13-2.5494-11.926-2.2983-27.742-6.1952-39-9.6087-12.355-3.7463-32.141-10.25-35.5-11.67-1.375-0.581-6.775-2.7-12-4.709-19.066-7.3307-50.42-22.88-68-33.724-14.325-8.8359-36.032-23.594-42.487-28.886-1.1072-0.9076-6.513-5.2195-12.013-9.5819-22.857-18.13-50.961-46.388-70.5-70.889-3.6079-4.524-14.694-19.071-16.032-21.037-0.8077-1.1869-4.2116-6.1369-7.5644-11-54.99-79.761-89.398-187.44-96.132-300.84-1.1762-19.808-0.8484-86.914 0.5154-105.5 13.74-187.26 82.863-364 193.59-495 14.739-17.438 29.042-32.412 46.124-48.286 54.915-51.035 111.19-84.761 172.39-103.31 59.249-17.959 126.01-19.029 184.61-2.957 15.862 4.3507 17.93 5.0148 35.684 11.462 15.936 5.7875 36.601 15.701 61.45 29.478 23.764 13.176 55.178 36.681 87.026 65.115 6.1579 5.4977 37.911 37.938 42.863 43.791 0.5624 0.66469 4.8481 5.7085 9.5239 11.209 106.28 125.01 173.99 295.39 191.16 481 1.7814 19.259 1.7702 108.93-0.016 128-4.3733 46.703-13.505 97.246-23.125 128-20.998 67.126-41.472 110.54-74.74 158.5-39.577 57.05-93.55 108.14-146.32 138.51-1.925 1.1078-6.2 3.5742-9.5 5.4809-22.776 13.16-56.085 28.69-77.5 36.133-22.73 7.9007-41.682 13.374-66.5 19.203-6.6746 1.5678-28.43 5.284-44.5 7.6013-29.675 4.2792-78.157 5.879-109 3.5967z" fill="#cf80fd"/>
<path id="path4504" opacity=".6" d="m-527.38-87.521c-33.366-0.03034-66.962 4.7444-98.438 14.285-61.202 18.551-117.48 52.278-172.39 103.31-17.082 15.875-31.384 30.847-46.123 48.285-110.73 131-179.85 307.74-193.59 495-1.3638 18.586-1.6919 85.692-0.5157 105.5 3.3866 57.031 13.78 112.61 30.264 163.93 39.468-7.7394 78.712-11.282 108.18-4.7129 75.111 16.744 109.19 129.07 185.71 137.14 100.88 10.643 175.75-128.96 277.14-125.71 64.729 2.0755 106.7 89.42 171.43 91.428 59.638 1.8496 103.42-69.059 162.86-74.285 14.859-1.3064 31.944-0.35482 50.123 2.1387 5.4714-14.427 10.762-29.913 16.084-46.926 9.6205-30.754 18.752-81.297 23.125-128 1.7862-19.075 1.797-108.74 0.016-128-17.158-185.55-84.87-355.94-191.15-480.95-4.6757-5.5-8.961-10.542-9.5234-11.207-4.9525-5.8534-36.705-38.295-42.863-43.793-31.848-28.434-63.264-51.937-87.027-65.113-24.849-13.778-45.513-23.691-61.449-29.479-17.754-6.4474-19.821-7.1122-35.684-11.463-27.467-7.5335-56.728-11.301-86.168-11.328z" filter="url(#filter4553)"/>
<path id="path4174" fill="#f79bfe" d="m-527.38-87.521c-33.366-0.03034-66.962 4.7444-98.438 14.285-61.202 18.551-117.48 52.278-172.39 103.31-17.082 15.875-31.384 30.847-46.123 48.285-110.73 131-179.85 307.74-193.59 495-1.3638 18.586-1.6919 85.692-0.5157 105.5 3.3866 57.031 13.78 112.61 30.264 163.93 39.468-7.7394 78.712-11.282 108.18-4.7129 75.111 16.744 109.19 129.07 185.71 137.14 100.88 10.643 175.75-128.96 277.14-125.71 64.729 2.0755 106.7 89.42 171.43 91.428 59.638 1.8496 103.42-69.059 162.86-74.285 14.859-1.3064 31.944-0.35482 50.123 2.1387 5.4714-14.427 10.762-29.913 16.084-46.926 9.6205-30.754 18.752-81.297 23.125-128 1.7862-19.075 1.797-108.74 0.016-128-17.158-185.55-84.87-355.94-191.15-480.95-4.6757-5.5-8.961-10.542-9.5234-11.207-4.9525-5.8534-36.705-38.295-42.863-43.793-31.848-28.434-63.264-51.937-87.027-65.113-24.849-13.778-45.513-23.691-61.449-29.479-17.754-6.4474-19.821-7.1122-35.684-11.463-27.467-7.5335-56.728-11.301-86.168-11.328z"/>
<path id="path4470" opacity=".6" d="m-527.38-87.521c-33.366-0.03034-66.962 4.7444-98.438 14.285-61.202 18.551-117.48 52.278-172.39 103.31-17.082 15.875-31.384 30.847-46.123 48.285-110.73 131-179.85 307.74-193.59 495-1.1841 16.137-1.5846 68.776-0.9004 95.352 56.238-18.149 118.09-32.091 161.69-24.922 65.163 10.716 100.39 90.293 165.71 100 97.181 14.441 184.78-88.609 282.86-82.857 89.885 5.2713 158.57 103.17 248.57 105.71 50.591 1.431 99.871-24.716 142.86-51.43 7.3945-4.5953 15.12-9.926 23.066-15.824 0.18637-1.8464 0.37886-3.6972 0.55078-5.5332 1.7862-19.075 1.797-108.74 0.01563-128-17.168-185.61-84.881-355.99-191.16-481-4.6757-5.5-8.961-10.542-9.5234-11.207-4.9525-5.8534-36.705-38.295-42.863-43.793-31.848-28.434-63.264-51.937-87.027-65.113-24.849-13.778-45.513-23.691-61.449-29.479-17.754-6.4474-19.821-7.1122-35.684-11.463-27.467-7.5335-56.728-11.301-86.168-11.328z" filter="url(#filter4557)"/>
<path id="path4169" fill="#e2abc8" d="m-527.38-87.521c-33.366-0.03034-66.962 4.7444-98.438 14.285-61.202 18.551-117.48 52.278-172.39 103.31-17.082 15.875-31.384 30.847-46.123 48.285-110.73 131-179.85 307.74-193.59 495-1.1841 16.137-1.5846 68.776-0.9004 95.352 56.238-18.149 118.09-32.091 161.69-24.922 65.163 10.716 100.39 90.293 165.71 100 97.18 14.441 184.78-88.609 282.86-82.857 89.885 5.2713 158.57 103.17 248.57 105.71 50.59 1.431 99.871-24.716 142.86-51.43 7.3945-4.5953 15.12-9.926 23.066-15.824 0.1864-1.8464 0.3789-3.6972 0.5508-5.5332 1.7862-19.075 1.797-108.74 0.016-128-17.188-185.6-84.9-355.99-191.18-481-4.6757-5.5-8.961-10.542-9.5234-11.207-4.9525-5.8534-36.705-38.295-42.863-43.793-31.848-28.434-63.264-51.937-87.027-65.113-24.849-13.778-45.513-23.691-61.449-29.479-17.754-6.4474-19.821-7.1122-35.684-11.463-27.467-7.5335-56.728-11.301-86.168-11.328z"/>
<path id="path4428" opacity=".6" d="m-527.38-87.521c-33.366-0.03034-66.962 4.7444-98.438 14.285-61.202 18.551-117.48 52.278-172.39 103.31-17.082 15.875-31.384 30.847-46.123 48.285-78.528 92.906-136.12 208.83-167.88 335.18 74.189-44.164 163.47-85.448 229.36-78.324 83.711 9.0493 116.21 145.98 200 154.29 100.45 9.9593 171.27-146.83 271.43-134.29 69.7 8.7297 89.76 137.89 160 137.14 45.783-0.487 101.1-85.419 107.35-95.242-32.721-118.99-87.546-226.34-160.59-312.26-4.6757-5.5-8.961-10.542-9.5234-11.207-4.9525-5.8534-36.705-38.295-42.863-43.793-31.848-28.434-63.264-51.937-87.027-65.113-24.849-13.778-45.513-23.691-61.449-29.479-17.754-6.4474-19.821-7.1122-35.684-11.463-27.467-7.5335-56.728-11.301-86.168-11.328z" filter="url(#filter4466)"/>
<path id="path4164" fill="#b2ccf1" d="m-527.38-87.521c-33.366-0.03034-66.962 4.7444-98.438 14.285-61.202 18.551-117.48 52.278-172.39 103.31-17.082 15.875-31.384 30.847-46.123 48.285-78.528 92.906-136.12 208.83-167.88 335.18 74.189-44.164 163.47-85.448 229.36-78.324 83.711 9.0493 116.21 145.98 200 154.29 100.45 9.9593 171.27-146.83 271.43-134.29 69.7 8.7297 89.76 137.89 160 137.14 45.783-0.487 101.1-85.419 107.35-95.242-32.721-118.99-87.546-226.34-160.59-312.26-4.6757-5.5-8.961-10.542-9.5234-11.207-4.9525-5.8534-36.705-38.295-42.863-43.793-31.848-28.434-63.264-51.937-87.027-65.113-24.849-13.778-45.513-23.691-61.449-29.479-17.754-6.4474-19.821-7.1122-35.684-11.463-27.467-7.5335-56.728-11.301-86.168-11.328z"/>
<path id="path4226" opacity="0.313" d="m-668.64-59.859c-47.147 19.766-91.649 49.38-135.29 89.936-17.082 15.875-31.384 30.847-46.123 48.285-110.73 131-179.85 307.74-193.59 495-1.3638 18.586-1.6919 85.692-0.5157 105.5 6.7337 113.4 41.143 221.08 96.133 300.84 3.3528 4.8631 6.7568 9.8131 7.5645 11 1.3376 1.9657 12.423 16.511 16.031 21.035 19.539 24.501 47.643 52.761 70.5 70.891 5.5 4.3624 10.907 8.6744 12.014 9.582 6.4555 5.2921 28.162 20.049 42.486 28.885 13.441 8.2908 34.92 19.322 52.816 27.338-10.61-5.403-20.746-10.936-28.338-15.619-14.62-9.0179-36.773-24.079-43.361-29.48-1.1299-0.9262-6.6484-5.3271-12.262-9.7793-23.328-18.503-52.009-47.344-71.951-72.35-3.6822-4.6171-14.996-19.462-16.361-21.469-0.82434-1.2113-4.2988-6.2652-7.7207-11.229-56.122-81.404-91.241-191.3-98.113-307.04-1.2004-20.216-0.8665-88.703 0.5254-107.67 14.023-191.12 84.571-371.5 197.58-505.2 15.043-17.797 29.641-33.079 47.074-49.281 36.067-33.519 72.712-59.712 110.9-79.18z" filter="url(#filter4287)"/>
<path id="path4307" opacity="0.438" d="m-436.23-162.91c-50.084 1.1492-101.83 6.8576-146.99 30.051-37.186 23.899-40.689 83.569-7.959 112.69 17.671 17.231 43.581 20.508 67.117 21.792 71.937 9.2192 136.54 49.95 185.3 102.33 65 68.694 109.44 154.05 138.42 243.88 29.308 92.893 41.909 191.42 37.987 288.27-3.4826 52.621-10.696 105.21-24.201 156.24-27.021 98.051-82.457 190.08-164.18 251.96-40.765 31.581-88.033 54.218-137.7 67.81-16.923 5.416-35.567 9.1035-48.457 22.353-22.282 20.685-30.644 56.02-16.664 83.617 13.66 29.794 47.886 47.676 80.162 43.282 137.25-1.6883 274.65-53.064 375.22-147.3 99.74-91.7 224.13-210.35 249.1-342.84 17.08-85.9 22.16-174.19 14.19-261.43-14.06-161.96-125.47-330.77-223.1-462.03-50.98-68.726-115.47-128.83-192.58-167.02-57.367-28.769-121.48-43.943-185.67-43.688z" transform="matrix(.99190 -.12703 .12703 .99190 -71.854 -27.58)" filter="url(#filter4619)"/>
</g>
</g>
</svg>
