<?xml version="1.0" encoding="UTF-8" standalone="no"?>
<!-- Created with Inkscape (http://www.inkscape.org/) -->

<svg
   xmlns:dc="http://purl.org/dc/elements/1.1/"
   xmlns:cc="http://creativecommons.org/ns#"
   xmlns:rdf="http://www.w3.org/1999/02/22-rdf-syntax-ns#"
   xmlns:svg="http://www.w3.org/2000/svg"
   xmlns="http://www.w3.org/2000/svg"
   xmlns:sodipodi="http://sodipodi.sourceforge.net/DTD/sodipodi-0.dtd"
   xmlns:inkscape="http://www.inkscape.org/namespaces/inkscape"
   width="90.701157mm"
   height="95.064156mm"
   viewBox="0 0 321.38205 336.84149"
   id="svg4212"
   version="1.1"
   inkscape:version="0.91 r13725"
   sodipodi:docname="rabbit-pinksvg.svg">
  <defs
     id="defs4214" />
  <sodipodi:namedview
     id="base"
     pagecolor="#ffffff"
     bordercolor="#666666"
     borderopacity="1.0"
     inkscape:pageopacity="0.0"
     inkscape:pageshadow="2"
     inkscape:zoom="0.35"
     inkscape:cx="-444.30897"
     inkscape:cy="125.56361"
     inkscape:document-units="px"
     inkscape:current-layer="layer1"
     showgrid="false"
     fit-margin-top="0"
     fit-margin-left="0"
     fit-margin-right="0"
     fit-margin-bottom="0"
     inkscape:window-width="1855"
     inkscape:window-height="1056"
     inkscape:window-x="65"
     inkscape:window-y="24"
     inkscape:window-maximized="1" />
  <metadata
     id="metadata4217">
    <rdf:RDF>
      <cc:Work
         rdf:about="">
        <dc:format>image/svg+xml</dc:format>
        <dc:type
           rdf:resource="http://purl.org/dc/dcmitype/StillImage" />
        <dc:title></dc:title>
      </cc:Work>
    </rdf:RDF>
  </metadata>
  <g
     inkscape:label="Layer 1"
     inkscape:groupmode="layer"
     id="layer1"
     transform="translate(-325.02326,-321.08431)">
    <g
       id="g4249"
       transform="matrix(0.99971,-0.024068,0.024068,0.99971,-71.880468,164.77001)">
      <path
         id="path4159"
         sodipodi:nodetypes="sssss"
         style="fill:#ff62ff"
         inkscape:connector-curvature="0"
         d="m 567.06,272.18 c 3.5138,42.885 23.748,76.226 45.195,74.469 21.447,-1.7573 35.984,-37.947 32.471,-80.832 -3.5138,-42.885 -20.916,-96.49 -42.363,-94.733 -21.447,1.7573 -38.817,58.211 -35.303,101.1 z" />
      <path
         id="path3829-4"
         d="m 562.99,271.93 c 3.5138,42.885 23.748,76.226 45.195,74.469 21.447,-1.7573 35.984,-37.947 32.471,-80.832 -3.5138,-42.885 -20.916,-96.49 -42.363,-94.733 -21.447,1.7573 -38.817,58.211 -35.303,101.1 z"
         sodipodi:nodetypes="sssss"
         style="fill:#ff9bff"
         inkscape:connector-curvature="0" />
      <path
         id="path3850-5"
         d="m 573.93,285.85 c 2.462,30.047 17.545,54.971 28.507,54.073 10.962,-0.89816 17.852,-25.984 15.39,-56.032 -2.462,-30.047 -11.915,-70.884 -20.291,-63.756 -14.91,12.689 -26.068,35.667 -23.606,65.715 z"
         sodipodi:nodetypes="sssss"
         style="fill:#fdd99b"
         inkscape:connector-curvature="0" />
      <path
         id="path4157"
         sodipodi:nodetypes="sssss"
         style="fill:#ff62ff"
         inkscape:connector-curvature="0"
         d="m 542.29,204.42 c 9.7128,31.136 0.0444,84.647 -21.595,119.52 -21.6394,34.873 -47.055,37.902 -56.768,6.7653 -9.7128,-31.136 -7.2785,-74.282 14.361,-109.16 21.639,-34.873 54.289,-48.266 64.002,-17.13 z" />
      <path
         id="path3829-1-8"
         d="m 546.98,201.58 c 9.7128,31.136 0.0444,84.647 -21.595,119.52 -21.6394,34.873 -47.055,37.902 -56.768,6.7653 -9.7128,-31.136 -7.2785,-74.282 14.361,-109.16 21.639,-34.873 54.289,-48.266 64.002,-17.13 z"
         sodipodi:nodetypes="sssss"
         style="fill:#ff9bff"
         inkscape:connector-curvature="0" />
      <path
         id="path3850-6-8"
         d="m 485.86,267.55 c -10.404,32.585 -10.959,76.884 -0.48124,80.23 10.477,3.3454 27.405,-20.358 37.809,-52.943 10.404,-32.585 10.345,-61.712 -0.13226,-65.058 -10.477,-3.3454 -26.792,5.1858 -37.196,37.771 z"
         sodipodi:nodetypes="sssss"
         style="fill:#fdd99b"
         inkscape:connector-curvature="0" />
      <path
         id="path4155"
         sodipodi:nodetypes="sssss"
         style="fill:#ff67ff"
         inkscape:connector-curvature="0"
         d="m 428.6,412.4 c -14.865,73.567 19.727,98.014 112.98,92.547 77.763,-4.5589 127.28,-39.626 112.25,-91.269 C 631.159,335.77 599.833,317.55 543.58,324.424 471.671,333.2117 439.7,357.445 428.6,412.4 Z" />
      <path
         id="path3763-1"
         d="m 427.94,404.35 c -14.865,73.567 19.727,98.014 112.98,92.547 77.763,-4.5589 127.28,-39.626 112.25,-91.269 -22.671,-77.908 -49.099,-92.047 -105.35,-85.172 -71.909,8.7877 -108.78,28.939 -119.88,83.894 z"
         sodipodi:nodetypes="sssss"
         style="fill:#ff9bff"
         inkscape:connector-curvature="0" />
      <ellipse
         ry="31.747652"
         rx="32.613495"
         cy="398.93781"
         cx="407.23578"
         id="path3766-21"
         style="fill:#ffffff"
         transform="matrix(-0.68493,0.056121,0.058213,0.71048,867.53,101.08)" />
      <ellipse
         ry="31.747652"
         rx="32.613495"
         cy="398.93781"
         cx="407.23578"
         id="path3766-2-4"
         style="fill:#000000"
         transform="matrix(-0.48521,0.041679,0.041923,0.53669,790.76,178.78)" />
      <path
         id="path3827-8"
         d="m 517.42,429.29 c 0.70518,8.6064 11.153,15.68 21.831,14.805 10.678,-0.87493 17.544,-9.3675 16.838,-17.974 -0.70518,-8.6064 -10.383,-8.4011 -21.061,-7.5262 -10.678,0.87493 -18.313,2.0882 -17.608,10.695 z"
         sodipodi:nodetypes="sssss"
         style="fill:#565248"
         inkscape:connector-curvature="0" />
      <path
         id="path3902-2"
         d="m 562.76,450.02 c -5.3948,11.529 -15.525,30.343 -42.498,5.5274"
         sodipodi:nodetypes="cc"
         style="fill:none;stroke:#000000;stroke-width:3.67860007;stroke-linecap:round;stroke-miterlimit:1.29999995"
         inkscape:connector-curvature="0" />
      <path
         id="path4024-2"
         d="m 584.54,456.34 c 0.62588,7.6388 7.5078,13.309 15.371,12.665 7.8634,-0.64429 13.731,-7.359 13.105,-14.998 -0.62589,-7.6388 -7.0344,-12.529 -14.898,-11.884 -7.8634,0.64429 -14.204,6.5788 -13.578,14.218 z"
         sodipodi:nodetypes="sssss"
         style="fill:#fdd99b"
         inkscape:connector-curvature="0" />
      <path
         id="path4024-3-9"
         d="m 480.75,462.38 c 0.61348,7.6385 7.3879,13.306 15.131,12.659 7.7432,-0.64719 13.523,-7.364 12.909,-15.002 -0.61348,-7.6385 -6.922,-12.526 -14.665,-11.879 -7.7432,0.6472 -13.989,6.584 -13.375,14.222 z"
         sodipodi:nodetypes="sssss"
         style="fill:#fdd99b"
         inkscape:connector-curvature="0" />
      <ellipse
         ry="31.747652"
         rx="32.613495"
         cy="398.93781"
         cx="407.23578"
         id="path3766-6-9"
         style="fill:#ffffff"
         transform="matrix(-0.68493,0.056121,0.058213,0.71048,721.83,111.07)" />
      <ellipse
         ry="31.747652"
         rx="32.613495"
         cy="398.93781"
         cx="407.23578"
         id="path3766-2-2-8"
         style="fill:#000000"
         transform="matrix(-0.50387,0.041285,0.046064,0.56219,653.83,178.85)" />
      <path
         id="path4161-6"
         d="m 443.2,453.36 c -21.417,-5.2956 -38.454,-5.9776 -55.756,-13.468"
         sodipodi:nodetypes="cc"
         style="fill:none;stroke:#000000;stroke-width:2.00399995;stroke-linecap:round"
         inkscape:connector-curvature="0" />
      <path
         id="path4161-8-2"
         d="m 444.26,459.81 c -22.046,0.8451 -38.604,4.9097 -57.304,2.5064"
         sodipodi:nodetypes="cc"
         style="fill:none;stroke:#000000;stroke-width:2.00399995;stroke-linecap:round"
         inkscape:connector-curvature="0" />
      <path
         id="path4161-8-6-3"
         sodipodi:nodetypes="cc"
         d="m 447.23,464.56 c -21.059,6.5751 -35.981,14.824 -54.66,17.39"
         inkscape:transform-center-x="14.513255"
         inkscape:transform-center-y="-7.2246641"
         inkscape:connector-curvature="0"
         style="fill:none;stroke:#000000;stroke-width:2.00399995;stroke-linecap:round" />
      <path
         id="path4161-82"
         d="m 641.32,432.28 c 23.74,-5.8462 43.157,-7.9523 61.852,-14.99"
         sodipodi:nodetypes="cc"
         style="fill:none;stroke:#000000;stroke-width:1.83669996;stroke-linecap:round"
         inkscape:connector-curvature="0" />
      <path
         id="path4161-8-62"
         d="m 640.8,436.04 c 25.476,0.6143 44.611,3.5689 66.221,1.8219"
         sodipodi:nodetypes="cc"
         style="fill:none;stroke:#000000;stroke-width:1.83669996;stroke-linecap:round"
         inkscape:connector-curvature="0" />
      <path
         id="path4161-8-6-7"
         sodipodi:nodetypes="cc"
         d="m 635.36,442.01 c 24.336,4.7794 41.58,10.776 63.165,12.641"
         inkscape:transform-center-x="-16.771507"
         inkscape:transform-center-y="-5.2515916"
         inkscape:connector-curvature="0"
         style="fill:none;stroke:#000000;stroke-width:1.83669996;stroke-linecap:round" />
    </g>
  </g>
</svg>
