<?xml version="1.0" encoding="UTF-8" standalone="no"?>
<svg id="svg2" xmlns:rdf="http://www.w3.org/1999/02/22-rdf-syntax-ns#" xmlns="http://www.w3.org/2000/svg" height="851.2pt" width="1116.8pt" version="1.1" xmlns:cc="http://creativecommons.org/ns#" xmlns:dc="http://purl.org/dc/elements/1.1/" viewBox="0 0 1116.848 851.20099">
<g id="g4267" transform="translate(-2400)">
<g>
<path id="rect4264" d="m2400 0v0.77969c0.2-0.2 0.6-0.58969 0.8-0.77969zm940.52 4.2594c-6.66 7.17-18.69 23.941-7.2797 31.761-16.71-0.02-33.42-0.12032-50.12 0.02969 1.54 11.74-7.8606 36.09 13.009 29-0.26 2.44-1.0897 4.59-2.4797 6.45-5.3275-1.4625-10.725-2.1233-16.088-2.0766-16.086 0.14016-31.848 6.6522-44.403 17.017-35.54-26.21-66.809-61.621-110.69-73.891-7.53-2.365-15.25-3.4066-22.945-3.3109-23.085 0.28688-45.945 10.806-62.775 26.511-20.52 20.03-35.78 45.101-46.32 71.641-13.23 10.13-28.489 17.75-39.909 30.13-16.26 17.9-22.06 42.66-38.53 60.47-13.36 17.88-33.741 30.11-43.031 50.98-12.52 24.21-7.75 54.29 6.25 76.88 0.91 2.31 4.3503 5.5306 1.5703 7.8406-8.77 8.01-15.03 18.18-20.88 28.4-17.44-9.26-31.94-22.83-49.05-32.55 1.26-9.045-9.5342-15.014-18.997-14.762-3.1541 0.0839-6.1609 0.85969-8.5234 2.4422-7.45-11.08-16.969-22.161-29.589-27.091-1.3312-0.45125-2.5116-0.63656-3.5562-0.60469-7.3122 0.22313-8.0338 11.112-8.2438 16.266-9.97-2.77-21.191-11.671-32.241-5.2312-12.69 7.99-13.82 27.25-4.7297 38.5 11.94 14.56 29.83 23.22 48 27.07-4.77 11.51 10.959 27.75 21.889 21.55 34.57 18.52 66.001 42.931 100.98 60.391 2.24 2.15 4.8 3.9297 7.2 5.9297-5.08 20.15-5.8506 42.019-0.1906 62.009 2.37 15.57 10.16 29.501 16.03 43.861-1.1738-0.035-2.3467-0.051-3.5203-0.0485-8.2152 0.0178-16.422 0.90375-24.569 1.9188-5.59-26.65-26.12-52.331-55.07-53.491-67.36-0.5-134.75-0.24969-202.12-0.12969-11.91-0.28-22.21 14.289-14.65 24.709 5.94 11.16 20.19 7.39 30.32 9-0.69 29.34-0.051 58.73-0.2906 88.1 0.92 51.06 34.831 99.091 82.191 117.89 34.67 15.6 73.63 7.8397 110.23 11.08-5.68 19.97-12.51 39.76-19.82 59.13-96.84-0.06-193.68-0.0304-290.52-0.02-24.59 0.4-50.269-11.809-61.989-34.089-14.47-25.33-9.27-61.311 15.55-78.291 24.32-16.01 56.909-19.079 84.189-9.4391 25.73 8.75 33.17 44.149 16.87 64.489-12.35 15.85-36.52 18.28-53.62 9.3-8.92-3.53-11.839-16.859-4.4188-23.359 11.72-12.46 35.399-0.73062 42.009-19.191 4.43-13.71-11.971-25.729-24.641-20.489-30.05 0.85-61.569 28.66-52.589 60.55 7.78 29.16 41.72 43.239 69.63 39.569 29.45-1.82 54.58-24.98 62.02-53 9.82-32.41-7.0409-69.839-37.061-85.069-15.681-7.5673-33.54-11.226-51.48-11.103-42.488 0.28986-85.424 21.779-100.92 62.722-19.33 47.8 9.9503 106.27 57.92 122.84 29.38 11.71 61.72 6.32 92.47 7.55 312.48-1.63 625.05-0.44064 937.37-2.3906 11.3-1.26 18.63-15.78 11.17-25.05-7.46-10-21.781-7.15-32.461-7.6-30.57-0.73-61.029 1.4413-91.589 1.0813-7.42-19.12-12.59-39.131-20.1-58.231 9.28-2.95 19.289-1.8791 28.609-4.7891 57.35-12.66 101.33-67.62 101.73-126.28 0.31-78.22-1.4691-156.44-0.7391-234.69 11.36 0.75 25.03-8.3106 21.2-21.041-6.84-19.78-32.861-10.919-48.231-13.009 0.05-28 0.14-56.01-0.05-84 0.48-5.41-0.02-10.86-0.3797-16.25 7.64-1.7 15.55-0.29031 23.32-0.82031-0.26-16.21 1.27-35.16-0.65-49.68-9.71-0.64-19.45 0.0294-29.15-0.29062-0.22-44.39 0.1394-88.789-0.1406-133.17 0.36-2.78 0.3709-5.5912 0.5609-8.3812 0.42-5.3 9.01-0.92875 12.3-2.5188 0.61-8.92 0.2397-17.89 0.1797-26.82-17.11-0.43-34.26 0.76031-51.28-1.1797 15.51-3.16 2.1997-24.701-4.2703-31.341-11.01 2.44-20.459 12.7-27.659 21.38-5.22 2.75-11.861-0.12906-17.391 1.5109-12.26-4.58-18.85-21.681-32.83-23.181zm-134.5 142.04c4.6 0.14 9.2197 0.26031 13.83 0.57031 8.21 10 14.17 21.76 24.42 30.17-2.69 10.64-11.071 25.59 2.1188 32.23-2.45 0.26-4.8791 0.64969-7.2891 1.0797-6.84-23.11-20.66-43.5-33.08-64.05zm98.188 611.43c9.3385-0.0661 18.719 0.54686 28.012 0.95313 4.61 19.76 14.339 38.261 17.569 58.241-14.33 0.21-28.7 0.42968-43-0.27032-6.57-19.24-12.849-38.6-19.319-57.88 5.5464-0.72 11.134-1.0041 16.738-1.0438zm-435.9 0.07c9.3458-0.0567 18.703 0.35156 28.022 0.92031-6.92 19.52-12.81 39.42-19.98 58.83-12.72 1.45-25.661-0.04-38.431 0.55-6.58 3.44-4.78-1.7897-4.35-4.4797 5.86-18.42 12.751-36.52 17.941-55.15 5.5875-0.435 11.191-0.63627 16.798-0.67031zm223.52 0.0547c54.118-0.0252 108.24 0.19 162.32 0.825 4.57 19.79 14.47 38.32 17.5 58.33-120.14 0.45-240.34-0.94-360.45 0.7 3.75-20.21 13.569-39.139 18.309-59.239 54.085-0.325 108.2-0.59047 162.32-0.61562z" fill="#edbd51"/>
<path id="path4" d="m2400 0v0.77969c0.2-0.2 0.6-0.58969 0.8-0.77969h-0.8zm610.67 227.15c-1.725-0.006-3.43 0.0719-5.0937 0.22813-5.95-1.67-24.259 10.22-11.359 11.13 13.11-9.43 34.879-6.2094 43.759 7.7406 2.86 2.67 6.7103-1.47 4.4703-4.5-6.65-10.395-19.701-14.558-31.777-14.598zm112.13 23.591c-2.7122 0.005-5.4112 0.22469-8.0437 0.64844-4.57-0.09-14.579 6.9091-6.8688 9.6391 14.85-8.89 36.91-3.3503 45.5 11.83 5.49 1.14 3.59-6.8588 1.1-9.3188-7.93-8.8156-19.934-12.819-31.688-12.798zm-376.6 38.78c-7.3122 0.22313-8.0338 11.112-8.2438 16.266-9.97-2.77-21.191-11.671-32.241-5.2312-12.69 7.99-13.82 27.25-4.7297 38.5 11.94 14.56 29.83 23.22 48 27.07 4.46-18.94 16.299-35.749 30.359-48.909-7.45-11.08-16.969-22.161-29.589-27.091-1.3312-0.45125-2.5116-0.63656-3.5562-0.60469zm635.51 18.675c-14.71 1.73-27.561 12.151-35.831 24.041 14.36 17.17 24.43 38.18 26.6 60.63 40.84 0.33 81.691-0.0303 122.53 0.17969 11.36 0.75 25.03-8.3106 21.2-21.041-6.84-19.78-32.861-10.919-48.231-13.009-13.58 0.01-27.159-0.16-40.719 0.55 5.19-11.88 5.63-28.67-6.3-36.63-10.75-4.73-22.64-1.2603-32.87 3.0297 1.02-6.27 3.0403-17.62-6.3797-17.75zm-111.9 50.88c-2.4475-0.01-4.8906-0.004-7.3406 0.0656-1.41 2.82-2.5 5.7703-3.45 8.7703 6.26-2.38 13.051-4.2709 18.161-8.8109-2.47 0.01-4.9228-0.015-7.3703-0.025zm-40.809 108c-9.39 11.33-21.13 20.58-34.8 26.18-5.38 34.52 10.249 74.491-8.0109 106.03-62.66 17.63-131.38 11.089-192.07-11.631-3.32 8.63-8.6291 16.231-13.189 24.211 2.15 2.48 6.8603 2.5597 8.1703 5.1297-29.89 2.56-60.21-0.72031-90.2-0.62031-25.78-3.46-34.95-32.179-32.05-54.639-5.59-26.65-26.12-52.331-55.07-53.491-67.36-0.5-134.75-0.24969-202.12-0.12969-11.91-0.28-22.21 14.289-14.65 24.709 5.94 11.16 20.19 7.39 30.32 9 62.46 0.46 124.94-0.0594 187.4 0.24062 19.05 3.85 20.709 26.85 20.639 42.52 2.2 36.8 35.511 66.889 72.011 67.189 83.14 0.42 166.3 0.25062 249.44 0.0906 38.75-0.73 72.041-34.94 74.111-73.23 0.34-37.18 0.05-74.371 0.07-111.56zm-350.2 48.93c2.37 15.57 10.16 29.501 16.03 43.861 5.45 10.58 16.14 16.609 25.92 22.589 3.6-7.45 8.1103-14.389 12.37-21.459-17.74-14.89-38.26-27.641-54.32-44.991zm66.459 51.011c-3.61 6.67-8.5591 12.699-11.389 19.759 11.22 6.46 21.959 16.02 34.489 18.87 3.78-7.15 10.851-13.731 11.241-22.041-10.37-7.48-22.841-11.519-34.341-16.589zm-433.78 90.867c-42.488 0.28986-85.424 21.779-100.92 62.722-19.33 47.8 9.9503 106.27 57.92 122.84 29.38 11.71 61.72 6.32 92.47 7.55 312.48-1.63 625.05-0.44064 937.37-2.3906 11.3-1.26 18.63-15.78 11.17-25.05-7.46-10-21.781-7.15-32.461-7.6-30.57-0.73-61.029 1.4413-91.589 1.0813-7.42-19.12-12.59-39.131-20.1-58.231-11.07 0.31-22.15 0.38031-33.2-0.12969 4.61 19.76 14.339 38.261 17.569 58.241-14.33 0.21-28.7 0.42968-43-0.27032-6.57-19.24-12.849-38.6-19.319-57.88-11.09 0.39-22.19 0.40938-33.25-0.0906 4.57 19.79 14.47 38.32 17.5 58.33-120.14 0.45-240.34-0.94-360.45 0.7 3.75-20.21 13.569-39.139 18.309-59.239-11.05 0.81-22.13 0.7-33.18 0.25-6.92 19.52-12.81 39.42-19.98 58.83-12.72 1.45-25.661-0.04-38.431 0.55-6.58 3.44-4.78-1.7897-4.35-4.4797 5.86-18.42 12.751-36.52 17.941-55.15-11.37 0.76-22.77 0.67969-34.15 0.42969-5.68 19.97-12.51 39.76-19.82 59.13-96.84-0.06-193.68-0.0303-290.52-0.0203-24.59 0.4-50.269-11.809-61.989-34.089-14.47-25.33-9.27-61.311 15.55-78.291 24.32-16.01 56.909-19.079 84.189-9.4391 25.73 8.75 33.17 44.149 16.87 64.489-12.35 15.85-36.52 18.28-53.62 9.3-8.92-3.53-11.839-16.859-4.4188-23.359 11.72-12.46 35.399-0.73062 42.009-19.191 4.43-13.71-11.971-25.729-24.641-20.489-30.05 0.85-61.569 28.66-52.589 60.55 7.78 29.16 41.72 43.239 69.63 39.569 29.45-1.82 54.58-24.98 62.02-53 9.82-32.41-7.0409-69.839-37.061-85.069-15.681-7.5673-33.54-11.226-51.48-11.103z" fill="#4d4d4d"/>
<path id="path6" d="m3340.5 4.2594c-6.66 7.17-18.69 23.941-7.2797 31.761 11.2 0.18 22.41-0.34094 33.63 0.03906 0.58 9.65-0.021 19.341 0.1094 29.011 0.12 3.3 0.15 6.5891 0.25 9.8891-1 31.03 0.9709 62.141-1.0891 93.131 7.27-5.6 14.769-11.211 23.559-14.161-1.74-26.24-0.2006-52.63-0.6906-78.93-0.02-3.33-0.089-6.6794 0.011-10.009-0.07-9.62-0.2506-19.25 0.059-28.87 11.17-0.51 22.381 0.08031 33.591-0.22969 15.51-3.16 2.1997-24.701-4.2703-31.341-11.01 2.44-20.459 12.7-27.659 21.38 2.64-1.43 9.55-7.9094 10.05-2.3594-5.89 4.37-16.131 10.59-1.7109 11.5-14.08-0.09-28.14-0.04094-42.2 0.13906 1.14-4.57 8.43-0.10875 10.4-4.1188-2.23-4.47-9.6203-4.7909-10.07-10.111 8.33-2.48 8.7606 11.441 16.141 6.4609-12.26-4.58-18.85-21.681-32.83-23.181zm149.7 203.99c-29.17 1.74-58.43 0.23969-87.63 0.77969-13.13-0.08-26.24 0.0209-39.35 0.16093-6.42-0.02-12.8-0.20062-19.18-0.19062-0.08 16.67-0.071 33.33-0.031 50 41.17-0.17 82.35 0.33 123.52-0.25 7.64-1.7 15.55-0.29031 23.32-0.82031-0.26-16.21 1.27-35.16-0.65-49.68zm-228.3 0.73438c-5.181 0.0147-10.362 0.0872-15.541 0.28593-2.45 0.26-4.8791 0.64969-7.2891 1.0797 2.53 16.37 3.7694 32.989 0.9094 49.409 22.99 0.52 46 0.11062 69 0.24062 0.07-17-0.02-34.001 0.02-50.991-7.09-0.05-14.131 0.0709-21.191 0.0609-8.6376 0.025-17.274-0.11045-25.909-0.0859zm82.1 66.02c0.02 18.22-0.17 36.45 0.05 54.68 0.58 0.85 1.1791 1.7009 1.7891 2.5609 8.27-11.89 21.121-22.311 35.831-24.041 9.42 0.13 7.3997 11.48 6.3797 17.75 10.23-4.29 22.12-7.7597 32.87-3.0297 11.93 7.96 11.49 24.75 6.3 36.63 13.56-0.71 27.139-0.54 40.719-0.55 0.05-28 0.14-56.01-0.05-84h-123.89zm-97.791 0.92031c17.07 23.66 25.6 54.85 16.18 83.23 4.9-0.14 9.7709-0.0206 14.711-0.0406 11.13-3.97 21.99-9.1294 32.2-15.059-0.68-22.68-0.1506-45.37-0.3406-68.05-20.92-0.06-41.84 0.12031-62.75-0.0797z" fill="#ffd57f"/>
<path id="path8" d="m3099.5 9.2391c-23.1 0.2868-45.9 10.806-62.7 26.511-20.52 20.03-35.78 45.101-46.32 71.641 55.5-29.57 125.46-23.61 178.65 8.45-12.18-26.33-36.51-44.961-62.12-57.291 34.42-1.09 62.54 30.62 69.9 62.47 10.33 7.7 19.591 16.65 29.131 25.28 4.6 0.14 9.2197 0.26031 13.83 0.57031-6.64-20.73-1.8809-44.61 13.339-60.43-35.6-26.209-66.8-61.62-110.7-73.89-7.6-2.365-15.3-3.4066-23-3.3109zm290.2 144.69c-8.79 2.95-16.289 8.5609-23.559 14.161-8.91 9.01-20.54 16.399-25.25 28.719 6.76-0.22 11.51-17.919 21.48-11.459 0.89 9.09-17.52 7.7397-16.23 17.23 4.17 5.35 15.07-1.0991 17.08 6.6109 13.11-0.14 26.22-0.24093 39.35-0.16093 4.8-2.25 11.65-4.7591 9.4-11.789-3.41-15.79-9.2603-32.911-22.27-43.311zm-145.46 23.111c-2.69 10.64-11.071 25.59 2.1188 32.23 13.81-0.53 27.63-0.16 41.45-0.2 1.49-7.54 13.081-0.31062 16.131-6.1406-2.11-8.38-17.801-7.6394-17.111-17.709-14.68 2.42-29.859-0.54969-42.589-8.1797zm82.272 31.934c-5.84-0.002-11.678 0.004-17.512 0.0344-0.04 16.99 0.05 33.991-0.02 50.991 0.07 5.33 0 10.66 0 16 0.19 22.68-0.3394 45.37 0.3406 68.05 2.49-0.78 4.9797-1.54 7.4797-2.3-1.46-12.15 17.73-17.76 27.27-12.07-0.22-18.23-0.03-36.46-0.05-54.68-0.08-5.33-0.071-10.68-0.011-16-0.04-16.67-0.049-33.33 0.031-50-5.845-0.01-11.688-0.0225-17.528-0.025zm45.947 183.9c-3.58 8.27-19.52 21.27-26.25 10.83-35.9 17.98-72.079 36.12-109.37 51.08-2.63 4.1-5.21 8.23-7.9 12.3-0.02 37.19 0.2697 74.381-0.07 111.56-2.07 38.29-35.361 72.5-74.111 73.23-83.14 0.16-166.3 0.32938-249.44-0.0906-36.5-0.3-69.811-30.389-72.011-67.189 0.07-15.67-1.5891-38.67-20.639-42.52-62.46-0.3-124.94 0.21938-187.4-0.24062-0.69 29.34-0.051 58.73-0.2906 88.1 0.92 51.06 34.831 99.091 82.191 117.89 34.67 15.6 73.63 7.8397 110.23 11.08 11.38 0.25 22.78 0.33031 34.15-0.42969 14.9-1.16 29.91-0.66 44.82 0.25 11.05 0.45 22.13 0.56 33.18-0.25 108.17-0.65 216.47-1.0606 324.64 0.20938 11.06 0.5 22.16 0.48062 33.25 0.0906 14.79-1.92 29.88-0.74062 44.75-0.0906 11.05 0.51 22.13 0.43969 33.2 0.12969 9.28-2.95 19.289-1.8791 28.609-4.7891 57.35-12.66 101.33-67.62 101.73-126.28 0.31-78.22-1.4691-156.44-0.7391-234.69-40.84-0.21-81.691 0.15031-122.53-0.17969z" fill="#db4743"/>
<path id="path12" d="m3422.7 35.891c-11.21 0.31-22.421-0.28031-33.591 0.22969-0.31 9.62-0.1294 19.25-0.059 28.87 23.8 1.36 49.33-2.4212 72.45 1.4188 0.42-5.3 9.01-0.92875 12.3-2.5188 0.61-8.92 0.2397-17.89 0.1797-26.82-17.11-0.43-34.26 0.76031-51.28-1.1797zm-64.214 0.02813c-8.4112-0.0225-16.816 0.23656-25.216 0.10156-16.71-0.02-33.42-0.12031-50.12 0.02969 1.54 11.74-7.8606 36.09 13.009 29 23.62-0.14 47.23-0.05969 70.85 0.02031-0.13-9.67 0.4706-19.361-0.1094-29.011-2.805-0.095-5.6103-0.13312-8.4141-0.14062zm-57.286 38.052c26.27 12.37 41.33 45.12 30.5 72.68-5.18 16.19-18.36 28.73-33.77 35.32 3.8 4.55 7.3894 9.28 11.359 13.7 10.43-1.08 21.801-3.8909 31.631 1.1391 4.71-12.32 16.34-19.709 25.25-28.719 2.06-30.99 0.089-62.101 1.0891-93.131-22.02-0.65-44.049-0.43906-66.059-0.98906zm159.74 0.82031c-23.97 0.46-47.94 0.09937-71.9 0.20938 0.49 26.3-1.0494 52.69 0.6906 78.93 13.01 10.4 18.86 27.521 22.27 43.311 2.25 7.03-4.6 9.5391-9.4 11.789 29.2-0.54 58.46 0.96031 87.63-0.77969-9.71-0.64-19.45 0.0294-29.15-0.29062-0.22-44.39 0.1394-88.789-0.1406-133.17z" fill="#c9eaf5"/>
<path id="path16" d="m3108.6 58.523c-0.5347 0.0011-1.0716 0.0095-1.6094 0.02656 25.61 12.33 49.94 30.961 62.12 57.291 2.43 1.96 5.0497 3.6597 7.7797 5.1797-7.245-31.352-34.606-62.569-68.291-62.497zm189.3 123.45c-3.69 1.12-7.3703 2.21-11.07 3.25-0.69 10.07 15.001 9.3294 17.111 17.709-3.05 5.83-14.641-1.3994-16.131 6.1406 7.06 0.01 14.101-0.11093 21.191-0.0609 11.67-0.06 23.351-0.0294 35.041-0.009 6.38-0.01 12.76 0.17062 19.18 0.19062-2.01-7.71-12.91-1.2609-17.08-6.6109-1.29-9.49 17.12-8.1397 16.23-17.23-9.97-6.46-14.72 11.239-21.48 11.459-9.83-5.03-21.201-2.2191-31.631-1.1391-3.97-4.42-7.5594-9.15-11.359-13.7zm-491.05 147.57c-16.53 16-28.611 36.409-35.991 58.139 34.57 18.52 66.001 42.931 100.98 60.391-20.52-22.73-29.131-57.52-15.941-85.98-17.44-9.26-31.94-22.83-49.05-32.55zm510 12.21c-2.5 0.76-4.9897 1.52-7.4797 2.3-10.21 5.93-21.07 11.089-32.2 15.059-5.11 4.54-11.901 6.4309-18.161 8.8109-4.35 8.81-12.26 15.479-17.65 23.189 6.18 21.03 5.1212 43.82-4.4688 63.67 37.29-14.96 73.469-33.1 109.37-51.08-4.68-22.43-14.089-44.69-29.409-61.95zm-437.8 112.25c-5.08 20.15-5.8506 42.019-0.1906 62.009 16.06 17.35 36.58 30.101 54.32 44.991 4.77-11.62 20.48-11.779 28.83-3.9594 11.7 8.84 32.309 12.829 32.059 30.619 60.69 22.72 129.41 29.261 192.07 11.631 18.26-31.54 2.6309-71.511 8.0109-106.03-28.36 10.6-61.591 4.7712-84.381-15.169-6.35 44.87-55.43 77.649-99.18 65.319-33.64-7.56-59.72-38.74-61.55-73.15-24.38 5.28-50.689-0.19938-69.989-16.259zm12.319 105.82c-8.2152 0.0178-16.422 0.90375-24.569 1.9188-2.9 22.46 6.27 51.179 32.05 54.639 29.99-0.1 60.31 3.1803 90.2 0.62031-1.31-2.57-6.0203-2.6497-8.1703-5.1297-4.76 9.23-18.31 5.3591-26.4 3.8391-11.86-9.97-35.84-13.55-33.67-33.25-9.78-5.98-20.47-12.009-25.92-22.589-1.1738-0.035-2.3467-0.051-3.5203-0.0484z" fill="#b8332e"/>
<path id="path18" d="m3434.7 64.631c-15.216 0.05039-30.766 1.2094-45.641 0.35938-0.1 3.33-0.031 6.6794-0.011 10.009 23.96-0.11 47.93 0.25062 71.9-0.20938 0.36-2.78 0.3709-5.5912 0.5609-8.3812-8.67-1.44-17.68-1.8084-26.809-1.7781zm-103.11 0.34688c-11.808-0.0125-23.615 0.0019-35.425 0.07187-0.26 2.44-1.0897 4.59-2.4797 6.45 2.53 0.71 5.0303 1.5703 7.5203 2.4703 22.01 0.55 44.039 0.33906 66.059 0.98906-0.1-3.3-0.13-6.5891-0.25-9.8891-11.81-0.04-23.618-0.07969-35.425-0.09219z" fill="#b5dceb"/>
<path id="path22" d="m3277.6 69.423c-16.086 0.14016-31.848 6.6522-44.403 17.017-15.22 15.82-19.979 39.7-13.339 60.43 8.21 10 14.17 21.76 24.42 30.17 12.73 7.63 27.909 10.6 42.589 8.1797 3.7-1.04 7.3803-2.13 11.07-3.25 15.41-6.59 28.59-19.13 33.77-35.32 10.83-27.56-4.23-60.31-30.5-72.68-2.49-0.9-4.9903-1.7603-7.5203-2.4703-5.3275-1.4625-10.725-2.1233-16.088-2.0766zm-208.6 18.769c-27.202 0.12522-54.252 6.2616-78.533 19.198-13.23 10.13-28.489 17.75-39.909 30.13-16.26 17.9-22.06 42.66-38.53 60.47-13.36 17.88-33.741 30.11-43.031 50.98-12.52 24.21-7.75 54.29 6.25 76.88 0.91 2.31 4.3503 5.5306 1.5703 7.8406-8.77 8.01-15.03 18.18-20.88 28.4-13.19 28.46-4.5794 63.25 15.941 85.98 2.24 2.15 4.8 3.9297 7.2 5.9297 19.3 16.06 45.609 21.539 69.989 16.259 1.83 34.41 27.91 65.59 61.55 73.15 43.75 12.33 92.83-20.449 99.18-65.319 22.79 19.94 56.021 25.769 84.381 15.169 13.67-5.6 25.41-14.85 34.8-26.18 2.69-4.07 5.27-8.2 7.9-12.3 9.59-19.85 10.649-42.64 4.4688-63.67 5.39-7.71 13.3-14.379 17.65-23.189 0.95-3 2.04-5.9503 3.45-8.7703 9.42-28.38 0.8903-59.57-16.18-83.23-4.28-4.49-11.08-9.6909-6.25-16.161 2.86-16.42 1.6206-33.039-0.9094-49.409-6.84-23.11-20.66-43.5-33.08-64.05-9.54-8.63-18.801-17.58-29.131-25.28-2.73-1.52-5.3497-3.2197-7.7797-5.1797-29.919-18.034-65.144-27.809-100.12-27.648zm-21.672 99.119c61.675-0.6092 124.48 29.328 155.55 83.848 14.93 21.44 8.0388 50.051-1.9812 72.091-15.2-36.06-55.659-56.92-93.809-53.55-0.81 19.26-17.511 35.63-36.591 36.83-27.66 3.29-50.54-27.31-40.35-53.22-34.49-18.07-78.609-14.189-108.07 11.641 0.72-19.84 4.52-41.091 16.7-57.241 29.945-27.066 69.015-40.008 108.55-40.398zm-19.058 11.05c-2.6426-0.0336-5.2269 0.045-7.6625 0.16875-12.96 1.34-28.6 4.0803-35.85 16.37-3.28 5.55 3.4497 10.58 8.2797 7.1297 17.24-5.74 35.49-8.1497 53.5-4.3797 5.05 0.75 15.541 1.3894 11.941-6.8906-6.2156-9.9856-18.756-12.253-30.208-12.398zm88.673 18.605c-2.0534 0.0002-4.1106 0.12563-6.1656 0.38438-7.95-0.02-11.14 12.04-1.6703 12.65 20.42 4.73 38.37 15.28 54.15 28.8 8.57 4.15 8.0297-9.8597 4.4297-14.43-11.5-15.723-30.894-27.407-50.744-27.405zm-329.05 97.813c-3.1542 0.0839-6.1609 0.85969-8.5234 2.4422-14.06 13.16-25.899 29.969-30.359 48.909-4.77 11.51 10.959 27.75 21.889 21.55 7.38-21.73 19.461-42.139 35.991-58.139 1.26-9.045-9.5342-15.014-18.997-14.762zm236.03 6.2719c4.415 0.16369 5.1156 8.0066 8.9219 10.191 16.38 12.77 42.09 16.109 59.4 3.8094 3.79-0.34 3.4706 5.5097 0.5906 6.6797-19.68 12.57-47.461 7.8406-64.941-6.5594-2.45-3.61-9.5288-9.3809-5.4688-13.911 0.5438-0.1622 1.0402-0.22632 1.4969-0.20938zm310.52 6.4047c-9.0357 0.20824-18.654 5.5625-17.605 14.295 15.32 17.26 24.729 39.52 29.409 61.95 6.73 10.44 22.67-2.5597 26.25-10.83-2.17-22.45-12.24-43.46-26.6-60.63-0.61-0.86-1.2091-1.7109-1.7891-2.5609-2.6831-1.6003-6.1299-2.3065-9.6656-2.225z" fill="#f2f2f2"/>
<path id="path36" d="m3047.3 187.31c-39.535 0.39051-78.605 13.332-108.55 40.398-12.18 16.15-15.98 37.401-16.7 57.241 29.46-25.83 73.579-29.711 108.07-11.641 6.61-14.51 21.48-25.689 37.77-25.219 21.5-0.1 41.15 19.859 39.17 41.609 38.15-3.37 78.609 17.49 93.809 53.55 10.02-22.04 16.911-50.651 1.9812-72.091-31.066-54.521-93.875-84.458-155.55-83.848zm-19.058 11.05c11.452 0.14558 23.992 2.4128 30.208 12.398 3.6 8.28-6.8906 7.6406-11.941 6.8906-18.01-3.77-36.26-1.3603-53.5 4.3797-4.83 3.45-11.56-1.5797-8.2797-7.1297 7.25-12.29 22.89-15.03 35.85-16.37 2.4356-0.12375 5.0199-0.20235 7.6625-0.16875zm88.673 18.605c19.85-0.002 39.244 11.681 50.744 27.405 3.6 4.57 4.1403 18.58-4.4297 14.43-15.78-13.52-33.73-24.07-54.15-28.8-9.47-0.61-6.2797-12.67 1.6703-12.65 2.055-0.25875 4.1122-0.38418 6.1656-0.38438zm-106.23 10.186c12.075 0.0409 25.127 4.2034 31.777 14.598 2.24 3.03-1.6103 7.17-4.4703 4.5-8.88-13.95-30.649-17.171-43.759-7.7406-12.9-0.91 5.4094-12.8 11.359-11.13 1.6637-0.15625 3.3687-0.23397 5.0937-0.22813zm112.13 23.591c11.753-0.021 23.758 3.9828 31.688 12.798 2.49 2.46 4.39 10.459-1.1 9.3188-8.59-15.18-30.65-20.72-45.5-11.83-7.71-2.73 2.2988-9.7291 6.8688-9.6391 2.6325-0.42375 5.3315-0.64359 8.0437-0.64844zm-37.655 11.378c-0.8278 0.004-1.7084 0.10844-2.639 0.32969-12.2 0.84-10.899 21.98 1.3812 20.58 14.419 1.8844 13.676-20.963 1.2578-20.909z" fill="#f7c8b4"/>
<path id="path50" d="m3066.4 248.08c-15.688 0.24218-29.845 11.173-36.248 25.23-10.19 25.91 12.69 56.51 40.35 53.22 19.08-1.2 35.781-17.57 36.591-36.83 1.98-21.75-17.67-41.709-39.17-41.609-0.5091-0.0147-1.0158-0.0188-1.5219-0.0109zm18.791 14.041c12.418-0.0535 13.161 22.794-1.2578 20.909-12.28 1.4-13.581-19.74-1.3812-20.58 0.9306-0.22125 1.8112-0.32612 2.639-0.32969zm-61.3 58.93c-0.4567-0.0169-0.9531 0.0472-1.4969 0.20938-4.06 4.53 3.0188 10.301 5.4688 13.911 17.48 14.4 45.261 19.129 64.941 6.5594 2.88-1.17 3.1994-7.0197-0.5906-6.6797-17.31 12.3-43.02 8.9606-59.4-3.8094-3.8063-2.1841-4.5069-10.027-8.9219-10.191z" fill="#f1aba1"/>
</g>
<path id="path88" d="m2933.2 561c4.77-11.62 20.48-11.78 28.83-3.96 11.7 8.84 32.31 12.83 32.06 30.62-3.32 8.63-8.63 16.23-13.19 24.21-4.76 9.23-18.31 5.36-26.4 3.84-11.86-9.97-35.84-13.55-33.67-33.25 3.6-7.45 8.11-14.39 12.37-21.46m12.14 6.02c-3.61 6.67-8.56 12.7-11.39 19.76 11.22 6.46 21.96 16.02 34.49 18.87 3.78-7.15 10.85-13.73 11.24-22.04-10.37-7.48-22.84-11.52-34.34-16.59z" fill="#fd9325"/>
</g>
</svg>
